<svg width="24" height="24" viewBox="0 0 24 24" fill="none" xmlns="http://www.w3.org/2000/svg">
<g clip-path="url(#clip0_89_5007)">
<path d="M16.7652 3.1955C16.7652 2.99296 16.601 2.82871 16.3984 2.82871H6.02325C5.82064 2.82871 5.65647 2.99296 5.65647 3.1955C5.65647 3.39803 5.82064 3.56228 6.02325 3.56228H16.3985C16.601 3.56228 16.7652 3.39803 16.7652 3.1955Z" fill="black"/>
<path d="M4.83568 3.56228C5.03829 3.56228 5.20246 3.39803 5.20246 3.1955C5.20246 2.99296 5.03829 2.82871 4.83568 2.82871H4.21068C4.00807 2.82871 3.8439 2.99296 3.8439 3.1955C3.8439 3.39803 4.00807 3.56228 4.21068 3.56228H4.83568Z" fill="black"/>
<path d="M3.02318 3.56228C3.22579 3.56228 3.38996 3.39803 3.38996 3.1955C3.38996 2.99296 3.22579 2.82871 3.02318 2.82871H2.52318C2.32057 2.82871 2.1564 2.99296 2.1564 3.1955C2.1564 3.39803 2.32057 3.56228 2.52318 3.56228H3.02318Z" fill="black"/>
<path d="M8.57453 10.6249C8.77714 10.6249 8.94131 10.4606 8.94131 10.2581V5.4455C8.94131 5.24296 8.77714 5.07871 8.57453 5.07871H2.71068C2.50807 5.07871 2.3439 5.24296 2.3439 5.4455V14.6331C2.3439 14.8357 2.50807 14.9999 2.71068 14.9999H8.57453C8.77714 14.9999 8.94131 14.8357 8.94131 14.6331V11.9456C8.94131 11.743 8.77714 11.5788 8.57453 11.5788C8.37192 11.5788 8.20775 11.743 8.20775 11.9456V14.2664H3.07746V5.81228H8.20775V10.2581C8.20775 10.4607 8.37192 10.6249 8.57453 10.6249Z" fill="black"/>
<path d="M10.7733 21.1875H16.6372C16.8398 21.1875 17.004 21.0233 17.004 20.8207V17.285C17.004 17.0825 16.8398 16.9182 16.6372 16.9182H10.7733C10.5706 16.9182 10.4065 17.0825 10.4065 17.285V20.8207C10.4065 21.0233 10.5707 21.1875 10.7733 21.1875ZM11.1401 17.6518H16.2704V20.4539H11.14L11.1401 17.6518Z" fill="black"/>
<path d="M8.57453 16.2289H2.71068C2.50807 16.2289 2.3439 16.3931 2.3439 16.5957C2.3439 16.7982 2.50807 16.9624 2.71068 16.9624H8.57453C8.77714 16.9624 8.94131 16.7982 8.94131 16.5957C8.94131 16.3931 8.77714 16.2289 8.57453 16.2289Z" fill="black"/>
<path d="M8.57453 18.2601H7.46068C7.25807 18.2601 7.0939 18.4244 7.0939 18.6269C7.0939 18.8294 7.25807 18.9937 7.46068 18.9937H8.57453C8.77714 18.9937 8.94131 18.8294 8.94131 18.6269C8.94131 18.4244 8.77714 18.2601 8.57453 18.2601Z" fill="black"/>
<path d="M2.71068 18.9937H5.96068C6.16329 18.9937 6.32747 18.8294 6.32747 18.6269C6.32747 18.4244 6.16329 18.2601 5.96068 18.2601H2.71068C2.50807 18.2601 2.3439 18.4244 2.3439 18.6269C2.3439 18.8294 2.50814 18.9937 2.71068 18.9937Z" fill="black"/>
<path d="M2.71068 21.025H8.57453C8.77714 21.025 8.94131 20.8608 8.94131 20.6582C8.94131 20.4557 8.77714 20.2914 8.57453 20.2914H2.71068C2.50807 20.2914 2.3439 20.4557 2.3439 20.6582C2.3439 20.8608 2.50814 21.025 2.71068 21.025Z" fill="black"/>
<path d="M16.6372 5.07871H13.8983C13.6957 5.07871 13.5315 5.24296 13.5315 5.4455C13.5315 5.64803 13.6957 5.81228 13.8983 5.81228H16.6372C16.8398 5.81228 17.004 5.64803 17.004 5.4455C17.004 5.24296 16.8398 5.07871 16.6372 5.07871Z" fill="black"/>
<path d="M10.7733 5.07871C10.5707 5.07871 10.4065 5.24296 10.4065 5.4455C10.4065 5.64803 10.5707 5.81228 10.7733 5.81228H12.086C12.2886 5.81228 12.4528 5.64803 12.4528 5.4455C12.4528 5.24296 12.2886 5.07871 12.086 5.07871H10.7733Z" fill="black"/>
<path d="M16.6372 7.10996H10.7733C10.5706 7.10996 10.4065 7.27421 10.4065 7.47675C10.4065 7.67928 10.5706 7.84353 10.7733 7.84353H16.6372C16.8398 7.84353 17.004 7.67928 17.004 7.47675C17.004 7.27421 16.8398 7.10996 16.6372 7.10996Z" fill="black"/>
<path d="M16.6372 9.14128H10.7733C10.5706 9.14128 10.4065 9.30553 10.4065 9.50807C10.4065 9.71061 10.5706 9.87485 10.7733 9.87485H16.6372C16.8398 9.87485 17.004 9.71061 17.004 9.50807C17.004 9.30553 16.8398 9.14128 16.6372 9.14128Z" fill="black"/>
<path d="M16.6372 11.0538H15.0234C14.8208 11.0538 14.6566 11.2181 14.6566 11.4206C14.6566 11.6232 14.8208 11.7874 15.0234 11.7874H16.6372C16.8398 11.7874 17.004 11.6232 17.004 11.4206C17.004 11.2181 16.8398 11.0538 16.6372 11.0538Z" fill="black"/>
<path d="M10.7733 11.7874H13.5234C13.726 11.7874 13.8902 11.6232 13.8902 11.4206C13.8902 11.2181 13.726 11.0538 13.5234 11.0538H10.7733C10.5707 11.0538 10.4065 11.2181 10.4065 11.4206C10.4065 11.6232 10.5707 11.7874 10.7733 11.7874Z" fill="black"/>
<path d="M16.6372 13.0851H10.7733C10.5706 13.0851 10.4065 13.2493 10.4065 13.4519C10.4065 13.6544 10.5706 13.8187 10.7733 13.8187H16.6372C16.8398 13.8187 17.004 13.6544 17.004 13.4519C17.004 13.2493 16.8398 13.0851 16.6372 13.0851Z" fill="black"/>
<path d="M16.6372 15.1163H10.7733C10.5706 15.1163 10.4065 15.2806 10.4065 15.4831C10.4065 15.6857 10.5706 15.8499 10.7733 15.8499H16.6372C16.8398 15.8499 17.004 15.6857 17.004 15.4831C17.004 15.2806 16.8398 15.1163 16.6372 15.1163Z" fill="black"/>
<path d="M19.8647 16.9588H21.4784C21.681 16.9588 21.8452 16.7945 21.8452 16.592C21.8452 16.3895 21.681 16.2252 21.4784 16.2252H19.8647C19.662 16.2252 19.4979 16.3895 19.4979 16.592C19.4979 16.7945 19.662 16.9588 19.8647 16.9588Z" fill="black"/>
<path d="M0.585681 18.1439C0.788219 18.1439 0.952465 17.9797 0.952465 17.7771V0.733568H18.4692L18.47 5.23386C18.47 5.43603 18.6339 5.59999 18.8362 5.59999C19.0384 5.59999 19.2028 5.43603 19.2028 5.23379V0.366784C19.2028 0.164246 19.0385 0 18.836 0H0.585681C0.383143 0 0.218897 0.164246 0.218897 0.366784V17.7771C0.218897 17.9798 0.383069 18.1439 0.585681 18.1439Z" fill="black"/>
<path d="M23.4141 14.1414H19.2028V7.26562C19.2028 7.07438 19.0629 6.90354 18.8725 6.88542C18.6541 6.86458 18.4704 7.0358 18.4704 7.24993L18.473 21.3461C18.473 22.1007 18.7895 22.7827 19.2969 23.2664L2.87309 23.2663C1.81397 23.2663 0.952318 22.4051 0.952318 21.3465V19.391C0.952318 19.1885 0.788072 19.0242 0.585534 19.0242C0.382996 19.0242 0.21875 19.1885 0.21875 19.391V21.3465C0.21875 22.8096 1.4094 23.9999 2.87309 23.9999L21.0332 24C21.0417 24 21.0502 23.9997 21.0586 23.9991C21.1025 24.0002 21.1466 24.0003 21.191 23.9992C22.6395 23.9655 23.7808 22.7469 23.7808 21.298V14.508C23.7809 14.3055 23.6166 14.1414 23.4141 14.1414ZM23.0473 21.3461C23.0473 22.405 22.1859 23.2664 21.127 23.2664C20.0681 23.2664 19.2066 22.4049 19.2065 21.3394L19.2027 21.021H21.4783C21.6809 21.021 21.8451 20.8567 21.8451 20.6542C21.8451 20.4517 21.6809 20.2874 21.4783 20.2874H19.2027V18.9897H21.4783C21.6809 18.9897 21.8451 18.8255 21.8451 18.6229C21.8451 18.4204 21.6809 18.2562 21.4783 18.2562H19.2027V14.8749H23.0472L23.0473 21.3461Z" fill="black"/>
</g>
<defs>
<clipPath id="clip0_89_5007">
<rect width="24" height="24" fill="white"/>
</clipPath>
</defs>
</svg>
