<svg width="32" height="32" viewBox="0 0 32 32" fill="none" xmlns="http://www.w3.org/2000/svg">
<g clip-path="url(#clip0_2144_3774)">
<path d="M16 29.8667C19.2533 29.8667 21.8667 27.2534 21.8667 24C21.8667 20.7467 19.2534 18.1333 16 18.1333C12.7466 18.1333 10.1333 20.7467 10.1333 24C10.1333 27.2533 12.7467 29.8667 16 29.8667ZM11.2296 24.5333H12.5499C12.6351 25.9266 13.0474 27.2234 13.6448 28.1893C12.3277 27.4522 11.4014 26.1127 11.2296 24.5333ZM16.5333 28.6182V24.5333H18.381C18.242 26.5309 17.3456 28.1024 16.5333 28.6182ZM16.5333 23.4667V19.3818C17.3456 19.8976 18.242 21.4691 18.381 23.4667H16.5333ZM15.4667 19.3818V23.4667H13.619C13.758 21.4691 14.6544 19.8976 15.4667 19.3818ZM15.4667 24.5333V28.6182C14.6544 28.1024 13.758 26.5309 13.619 24.5333H15.4667ZM18.3552 28.1894C18.9526 27.2234 19.3649 25.9267 19.4501 24.5334H20.7704C20.5986 26.1127 19.6723 27.4522 18.3552 28.1894ZM20.7704 23.4667H19.4501C19.3649 22.0734 18.9526 20.7766 18.3552 19.8107C19.6723 20.5478 20.5986 21.8873 20.7704 23.4667ZM13.6448 19.8107C13.0474 20.7766 12.6351 22.0734 12.5499 23.4667H11.2296C11.4014 21.8873 12.3277 20.5478 13.6448 19.8107Z" fill="black"/>
<path d="M31.4667 13.8667H26.1334V9.28L27.3601 10.5067C27.4667 10.6134 27.5734 10.6667 27.7334 10.6667C27.8934 10.6667 28.0001 10.6134 28.1067 10.5067C28.32 10.2934 28.32 9.97338 28.1067 9.76L26.0646 7.71794C26.0216 7.6405 25.9596 7.57844 25.8821 7.53544L24.5867 6.24C24.3734 6.02669 24.0534 6.02669 23.84 6.24C23.6267 6.45331 23.6267 6.77331 23.84 6.98669L25.0667 8.21338V13.8667H20.8534V10.1334C20.8534 8.58669 20.1067 7.14669 18.8267 6.24006C18.6134 6.13338 18.3467 6.13338 18.1867 6.24006C16.9067 7.14675 15.1467 7.14675 13.8667 6.24006C13.6534 6.13338 13.3867 6.13338 13.2267 6.24006C11.9467 7.14675 11.2 8.58675 11.2 10.1334V13.8667H6.93331V8.21338L8.16 6.98669C8.37331 6.77338 8.37331 6.45338 8.16 6.24C7.94669 6.02663 7.62669 6.02669 7.41331 6.24L6.11794 7.53538C6.0405 7.57844 5.97844 7.64044 5.93544 7.71788L3.89331 9.76C3.68 9.97331 3.68 10.2933 3.89331 10.5067C4 10.6134 4.10662 10.6667 4.26662 10.6667C4.42662 10.6667 4.53331 10.6134 4.63994 10.5067L5.86662 9.28V13.8667H0.533312C0.213312 13.8667 0 14.08 0 14.4V16.5333C0 16.8533 0.213312 17.0666 0.533312 17.0666H1.06662V31.4666C1.06662 31.7866 1.27994 31.9999 1.59994 31.9999H30.3999C30.7199 31.9999 30.9332 31.7866 30.9332 31.4666V17.0666H31.4666C31.7866 17.0666 31.9999 16.8533 31.9999 16.5333V14.4C32 14.08 31.7867 13.8667 31.4667 13.8667ZM15.5733 8C15.8933 8.05331 16.16 8.05331 16.48 8L17.0133 9.06669L16 10.72L14.9867 9.06669L15.5733 8ZM12.2667 10.1333C12.2667 9.06663 12.7467 8.05331 13.5467 7.30663C13.8399 7.48469 14.1498 7.62719 14.4695 7.73531L13.92 8.8C13.8133 8.96 13.8133 9.17331 13.92 9.33331L15.52 12C15.6267 12.16 15.7867 12.2667 16 12.2667C16.2133 12.2667 16.3733 12.16 16.5333 12L18.1333 9.33331C18.1866 9.17331 18.24 8.96 18.1333 8.8L17.5761 7.72025C17.8797 7.61413 18.174 7.47625 18.4533 7.30663C19.2533 8.05331 19.7333 9.06663 19.7333 10.1333V13.8666H12.2667V10.1333ZM29.8667 30.9333H2.13331V17.0667H29.8666L29.8667 30.9333ZM30.9333 16H1.06669V14.9333H30.9334L30.9333 16Z" fill="black"/>
<path d="M16 6.4C17.76 6.4 19.2 4.96 19.2 3.2C19.2 1.44 17.76 0 16 0C14.24 0 12.8 1.44 12.8 3.2C12.8 4.96 14.24 6.4 16 6.4ZM16 1.06669C17.1733 1.06669 18.1333 2.02669 18.1333 3.2C18.1333 4.37331 17.1733 5.33331 16 5.33331C14.8267 5.33331 13.8667 4.37331 13.8667 3.2C13.8667 2.02669 14.8267 1.06669 16 1.06669Z" fill="black"/>
<path d="M9.97331 5.06669L9.38662 4.48C8.95994 4.05331 8.15994 4.05331 7.73331 4.48L7.14662 5.06669C6.93331 5.33338 6.82662 5.6 6.82662 5.92C6.82662 6.18669 6.93331 6.50669 7.14662 6.72L7.73331 7.30669C7.94662 7.52 8.21331 7.62669 8.53331 7.62669C8.85331 7.62669 9.12 7.52 9.38662 7.30669L9.97331 6.72C10.1866 6.45331 10.2933 6.18669 10.2933 5.86669C10.2933 5.6 10.1867 5.28 9.97331 5.06669ZM8.53331 6.61331L8.48 6.50663L7.84 5.86663L8.58669 5.11994L8.64 5.22663L9.28 5.86663L8.53331 6.61331Z" fill="black"/>
<path d="M24.9067 5.06669L24.32 4.48C23.8933 4.05331 23.0933 4.05331 22.6667 4.48L22.08 5.06669C21.8667 5.33338 21.76 5.6 21.76 5.92C21.76 6.18669 21.8667 6.50669 22.08 6.72L22.6667 7.30669C22.88 7.52 23.1467 7.62669 23.4667 7.62669C23.7867 7.62669 24.0534 7.52 24.32 7.30669L24.9067 6.72C25.12 6.45331 25.2267 6.18669 25.2267 5.86669C25.2267 5.6 25.12 5.28 24.9067 5.06669ZM23.4667 6.61331L23.4134 6.50663L22.7734 5.86663L23.52 5.12L23.5733 5.22669L24.2133 5.86669L23.4667 6.61331Z" fill="black"/>
</g>
<defs>
<clipPath id="clip0_2144_3774">
<rect width="32" height="32" fill="white"/>
</clipPath>
</defs>
</svg>
