<svg width="32" height="32" viewBox="0 0 32 32" fill="none" xmlns="http://www.w3.org/2000/svg">
<g clip-path="url(#clip0_2144_3575)">
<path d="M17.12 12.5333L11.84 7.25332C11.6267 7.04001 11.3067 7.04001 11.0933 7.25332L4.32 14.0267C4.21331 14.1334 4.16 14.24 4.16 14.4C4.16 14.56 4.21331 14.6667 4.32 14.7733L9.6 20.0533C9.70669 20.16 9.81331 20.2133 9.97331 20.2133C10.08 20.2133 10.24 20.16 10.3466 20.0533L17.12 13.28C17.3333 13.0667 17.3333 12.7467 17.12 12.5333ZM12.2667 15.2C12.64 14.7733 13.2267 14.56 13.76 14.56C13.9036 14.56 14.048 14.5607 14.2688 14.6379L11.7121 17.1946C11.5378 16.4729 11.7536 15.7131 12.2667 15.2ZM9.97331 14.4C9.54662 13.9733 9.54662 13.3333 9.97331 12.9067C10.1866 12.6934 10.4533 12.5867 10.72 12.5867C10.9867 12.5867 11.2533 12.6934 11.4667 12.9067C11.8934 13.3334 11.8934 13.9734 11.4667 14.4C11.04 14.8266 10.4 14.8267 9.97331 14.4ZM15.1542 13.7524C14.4398 13.4381 13.6388 13.3876 12.9059 13.5935C12.8974 13.0579 12.6847 12.5247 12.2667 12.1067C11.4134 11.2534 10.08 11.2534 9.22669 12.1067C8.37337 12.96 8.37337 14.2934 9.22669 15.1467C9.64987 15.5699 10.1779 15.7829 10.7069 15.7864C10.4831 16.5268 10.5242 17.3249 10.8627 18.044L9.97337 18.9334L5.44 14.4L11.4667 8.37332L16 12.9067L15.1542 13.7524Z" fill="black"/>
<path d="M15.6267 17.76C15.4134 17.5467 15.0934 17.5467 14.88 17.76L11.0933 21.5467C10.88 21.76 10.88 22.08 11.0933 22.2934C11.2 22.4001 11.3066 22.4534 11.4666 22.4534C11.6266 22.4534 11.7333 22.4534 11.8399 22.2934L15.6266 18.5067C15.84 18.2933 15.84 17.9733 15.6267 17.76Z" fill="black"/>
<path d="M16.3733 17.0133C16.48 17.12 16.5866 17.1733 16.7466 17.1733C16.9066 17.1733 17.0133 17.1733 17.1199 17.0133L19.3599 14.7733C19.5732 14.56 19.5732 14.24 19.3599 14.0266C19.1466 13.8133 18.8266 13.8133 18.6133 14.0266L16.3732 16.2666C16.16 16.48 16.16 16.8 16.3733 17.0133Z" fill="black"/>
<path d="M21.2267 15.9467C21.0134 15.7334 20.6934 15.7334 20.48 15.9467L12.96 23.4667C12.7467 23.68 12.7467 24 12.96 24.2134C13.0667 24.3201 13.1733 24.3734 13.3333 24.3734C13.4933 24.3734 13.6533 24.3201 13.7066 24.2134L21.2266 16.6934C21.44 16.48 21.44 16.16 21.2267 15.9467Z" fill="black"/>
<path d="M17.12 23.84C17.2267 23.9467 17.3333 24 17.4933 24C17.6533 24 17.76 23.9467 17.8666 23.84L23.1466 18.56C23.3599 18.3467 23.3599 18.0267 23.1466 17.8133C22.9333 17.6 22.6133 17.6 22.3999 17.8133L17.1199 23.0933C16.9067 23.3067 16.9067 23.6267 17.12 23.84Z" fill="black"/>
<path d="M15.6267 24.5867L14.88 25.3334C14.6667 25.5467 14.6667 25.8667 14.88 26.0801C14.9867 26.1868 15.0933 26.2401 15.2533 26.2401C15.36 26.2401 15.52 26.1868 15.6266 26.0801L16.3733 25.3334C16.5866 25.1201 16.5866 24.8001 16.3733 24.5867C16.16 24.3733 15.84 24.3733 15.6267 24.5867Z" fill="black"/>
<path d="M19.7867 24.2133L16.7467 27.2533C16.5334 27.4666 16.5334 27.7866 16.7467 28C16.8534 28.1067 16.96 28.16 17.12 28.16C17.28 28.16 17.3867 28.1067 17.4933 28L20.5333 24.96C20.7466 24.7467 20.7466 24.4267 20.5333 24.2133C20.32 24 20 24 19.7867 24.2133Z" fill="black"/>
<path d="M25.0667 20.4267C25.28 20.2134 25.28 19.8934 25.0667 19.68C24.8534 19.4667 24.5334 19.4667 24.32 19.68L21.28 22.72C21.0667 22.9333 21.0667 23.2533 21.28 23.4667C21.3867 23.5734 21.4933 23.6267 21.6533 23.6267C21.8133 23.6267 21.92 23.5734 22.0266 23.4667L25.0667 20.4267Z" fill="black"/>
<path d="M25.6 4.53332H28.8C29.12 4.53332 29.3333 4.32001 29.3333 4.00001C29.3333 3.68001 29.12 3.46669 28.8 3.46669H25.6C25.28 3.46669 25.0667 3.68001 25.0667 4.00001C25.0667 4.32001 25.28 4.53332 25.6 4.53332Z" fill="black"/>
<path d="M25.6 9.86669H28.8C29.12 9.86669 29.3333 9.65338 29.3333 9.33338C29.3333 9.01338 29.12 8.80007 28.8 8.80007H25.6C25.28 8.80007 25.0667 9.01338 25.0667 9.33338C25.0667 9.65338 25.28 9.86669 25.6 9.86669Z" fill="black"/>
<path d="M25.6 7.20001H27.7333C28.0533 7.20001 28.2666 6.98669 28.2666 6.66669C28.2666 6.34669 28.0533 6.13338 27.7333 6.13338H25.6C25.28 6.13338 25.0667 6.34669 25.0667 6.66669C25.0667 6.98669 25.28 7.20001 25.6 7.20001Z" fill="black"/>
<path d="M31.4667 0.266693H15.4667C15.1467 0.266693 14.9334 0.480006 14.9334 0.800006V5.81332L12.2134 3.09332C12.0001 2.88001 11.6801 2.88001 11.4667 3.09332L0.16 14.4C0.0533125 14.5067 0 14.6133 0 14.7733C0 14.9333 0.0533125 15.04 0.16 15.1466L16.6933 31.5733C16.8 31.68 16.9066 31.7333 17.0666 31.7333C17.2266 31.7333 17.3333 31.68 17.4399 31.5733L19.9946 29.0666H31.4666C31.7866 29.0666 31.9999 28.8533 31.9999 28.5333V0.800006C32 0.480006 31.7867 0.266693 31.4667 0.266693ZM17.0667 30.4533L1.28 14.7733L11.84 4.21332L20.4421 12.8154C20.4851 12.8928 20.5471 12.9548 20.6246 12.9979L23.1087 15.482C23.1517 15.5594 23.2137 15.6215 23.2912 15.6645L25.7753 18.1486C25.8184 18.2261 25.8804 18.2881 25.9578 18.3311L27.6799 20.0532L27.6749 20.0581L24.9404 22.7376C24.8689 22.7783 24.8108 22.8353 24.7689 22.9057L22.2172 25.4063C22.1482 25.4462 22.0919 25.5014 22.0507 25.5694L17.0667 30.4533ZM30.9333 28H21.12L22.7426 26.4H28.8C29.12 26.4 29.3333 26.1867 29.3333 25.8667C29.3333 25.5467 29.12 25.3334 28.8 25.3334H23.8242L25.4468 23.7334H28.8C29.12 23.7334 29.3333 23.5201 29.3333 23.2001C29.3333 22.8801 29.12 22.6668 28.8 22.6668H26.5284L28.8 20.4268C28.9067 20.3201 28.96 20.2134 28.96 20.0534C28.96 19.8934 28.9067 19.7868 28.8 19.6801L27.52 18.4001H28.8C29.12 18.4001 29.3333 18.1868 29.3333 17.8668C29.3333 17.5468 29.12 17.3335 28.8 17.3335H26.4533L24.8533 15.7335H28.8C29.12 15.7335 29.3333 15.5202 29.3333 15.2002C29.3333 14.8802 29.12 14.6669 28.8 14.6669H23.7867L22.1867 13.0669H28.8C29.12 13.0669 29.3333 12.8536 29.3333 12.5336C29.3333 12.2136 29.12 12 28.8 12H21.12L19.52 10.4H23.4667C23.7867 10.4 24 10.1867 24 9.86669V3.46669C24 3.14669 23.7867 2.93338 23.4667 2.93338H18.1334C17.8134 2.93338 17.6001 3.14669 17.6001 3.46669V8.48001L16.0001 6.88001V1.33332H30.9334L30.9333 28ZM18.6667 9.33332V4.00001H22.9334V9.33332H18.6667Z" fill="black"/>
</g>
<defs>
<clipPath id="clip0_2144_3575">
<rect width="32" height="32" fill="white"/>
</clipPath>
</defs>
</svg>
