<svg width="32" height="32" viewBox="0 0 32 32" fill="none" xmlns="http://www.w3.org/2000/svg">
<g clip-path="url(#clip0_2144_625)">
<path d="M9.46626 13.3416H5.9431C5.64391 13.3416 5.40174 13.5837 5.40174 13.8829V17.4061C5.40174 17.7049 5.64391 17.9474 5.9431 17.9474H9.46626C9.76545 17.9474 10.0076 17.7049 10.0076 17.4061V13.8829C10.0076 13.5841 9.76545 13.3416 9.46626 13.3416ZM8.9249 16.8647H6.48446V14.4243H8.9249V16.8647Z" fill="black"/>
<path d="M17.6833 13.3416H14.1602C13.861 13.3416 13.6188 13.5837 13.6188 13.8829V17.4061C13.6188 17.7049 13.861 17.9474 14.1602 17.9474H17.6833C17.9822 17.9474 18.2247 17.7049 18.2247 17.4061V13.8829C18.2247 13.5841 17.9822 13.3416 17.6833 13.3416ZM17.142 16.8647H14.7015V14.4243H17.142V16.8647Z" fill="black"/>
<path d="M25.6471 13.3416H22.1239C21.8251 13.3416 21.5826 13.5837 21.5826 13.8829V17.4061C21.5826 17.7049 21.8251 17.9474 22.1239 17.9474H25.6471C25.9459 17.9474 26.1884 17.7049 26.1884 17.4061V13.8829C26.1884 13.5841 25.9459 13.3416 25.6471 13.3416ZM25.1057 16.8647H22.6653V14.4243H25.1057V16.8647Z" fill="black"/>
<path d="M9.46626 21.3667H5.9431C5.64391 21.3667 5.40174 21.6092 5.40174 21.908V25.4312C5.40174 25.73 5.64391 25.9725 5.9431 25.9725H9.46626C9.76545 25.9725 10.0076 25.73 10.0076 25.4312V21.908C10.0076 21.6092 9.76545 21.3667 9.46626 21.3667ZM8.9249 24.8898H6.48446V22.4494H8.9249V24.8898Z" fill="black"/>
<path d="M17.6833 21.3667H14.1602C13.861 21.3667 13.6188 21.6092 13.6188 21.908V25.4312C13.6188 25.73 13.861 25.9725 14.1602 25.9725H17.6833C17.9822 25.9725 18.2247 25.73 18.2247 25.4312V21.908C18.2247 21.6092 17.9822 21.3667 17.6833 21.3667ZM17.142 24.8898H14.7015V22.4494H17.142V24.8898Z" fill="black"/>
<path d="M25.6471 21.3667H22.1239C21.8251 21.3667 21.5826 21.6092 21.5826 21.908V25.4312C21.5826 25.73 21.8251 25.9725 22.1239 25.9725H25.6471C25.9459 25.9725 26.1884 25.73 26.1884 25.4312V21.908C26.1884 21.6092 25.9459 21.3667 25.6471 21.3667ZM25.1057 24.8898H22.6653V22.4494H25.1057V24.8898Z" fill="black"/>
<path d="M29.9346 2.85837H26.3591C26.3544 2.85837 26.3505 2.85945 26.3458 2.85981V2.13872C26.3458 0.959285 25.3865 0 24.2071 0C23.0276 0 22.0683 0.959646 22.0683 2.13872V2.85837H18.0396V2.13872C18.0396 0.959285 17.0803 0 15.9008 0C14.7214 0 13.7621 0.959646 13.7621 2.13872V2.85837H9.73297V2.13872C9.73297 0.959285 8.77368 0 7.59424 0C6.4148 0 5.45552 0.959646 5.45552 2.13872V2.85873L5.45011 2.85837H1.87534C1.57615 2.85837 1.33398 3.10053 1.33398 3.39972V31.4586C1.33398 31.7575 1.57615 32 1.87534 32H29.9346C30.2335 32 30.476 31.7575 30.476 31.4586V3.39972C30.476 3.10053 30.2335 2.85837 29.9346 2.85837ZM23.1511 2.13872C23.1511 1.55622 23.6246 1.08271 24.2071 1.08271C24.7896 1.08271 25.2631 1.55622 25.2631 2.13872V5.12593C25.2631 5.70807 24.7896 6.18194 24.2071 6.18194C23.6246 6.18194 23.1511 5.70843 23.1511 5.12593V2.13872ZM15.9008 1.08271C16.483 1.08271 16.9568 1.55622 16.9568 2.13872V5.12593C16.9568 5.70807 16.4833 6.18194 15.9008 6.18194C15.3183 6.18194 14.8448 5.70843 14.8448 5.12593V3.45025C14.8463 3.43329 14.8499 3.41705 14.8499 3.39936C14.8499 3.38168 14.8463 3.36544 14.8448 3.34848V2.13872C14.8448 1.55622 15.3183 1.08271 15.9008 1.08271ZM6.53823 2.13872C6.53823 1.55622 7.01174 1.08271 7.59424 1.08271C8.17638 1.08271 8.65025 1.55622 8.65025 2.13872V5.12593C8.65025 5.70807 8.17674 6.18194 7.59424 6.18194C7.01174 6.18194 6.53823 5.70843 6.53823 5.12593V2.13872ZM29.3933 30.9173H2.4167V3.94108H5.45011L5.45552 3.94072V5.12629C5.45552 6.30573 6.41517 7.26502 7.59424 7.26502C8.77332 7.26502 9.73297 6.30573 9.73297 5.12629V3.94144H13.7621V5.12629C13.7621 6.30573 14.7218 7.26502 15.9008 7.26502C17.0799 7.26502 18.0396 6.30573 18.0396 5.12629V3.94144H22.0683V5.12629C22.0683 6.30573 23.0276 7.26502 24.2071 7.26502C25.3865 7.26502 26.3458 6.30573 26.3458 5.12629V3.93964C26.3505 3.93964 26.3544 3.94108 26.3591 3.94108H29.3933V30.9173Z" fill="black"/>
</g>
<defs>
<clipPath id="clip0_2144_625">
<rect width="32" height="32" fill="white"/>
</clipPath>
</defs>
</svg>
