<svg width="24" height="30" viewBox="0 0 24 30" fill="none" xmlns="http://www.w3.org/2000/svg">
<g clip-path="url(#clip0_1021_6433)">
<path d="M21.9452 12.3879C23.0877 11.7414 23.8685 10.4828 23.8849 9.03448C23.8849 9.02586 23.8849 9.00862 23.8849 9V8.99138C23.8849 8.97414 23.8849 8.96552 23.8849 8.94827C23.8849 8.93965 23.8849 8.93103 23.8849 8.92241C23.8849 8.91379 23.8849 8.89655 23.8767 8.88793C23.8767 8.87931 23.8767 8.87069 23.8685 8.85345C23.8685 8.84482 23.8603 8.8362 23.8603 8.82758C23.8603 8.81896 23.852 8.80172 23.852 8.7931C23.852 8.78448 23.8438 8.77586 23.8438 8.76724C23.8356 8.75 23.8356 8.74138 23.8274 8.73276V8.72414L21.5753 3.72414V2.02586C21.5753 0.922415 20.7205 0.0172424 19.6603 0.0172424H4.2C3.14794 0.0172424 2.28493 0.913794 2.28493 2.02586V3.76724L0.0575346 8.72414V8.73276C0.0493154 8.74138 0.049315 8.75862 0.0410959 8.76724C0.0410959 8.77586 0.0328768 8.78448 0.0328768 8.7931C0.0328768 8.80172 0.0246578 8.81896 0.0246578 8.82758C0.0246578 8.8362 0.0164387 8.84482 0.0164387 8.85345C0.0164387 8.86207 0.0164388 8.87069 0.00821968 8.88793C0.00821968 8.89655 0.00821917 8.91379 0 8.92241C0 8.93103 0 8.93965 0 8.94827C0 8.96552 0 8.97414 0 8.99138V9C0 9.00862 0 9.02586 0 9.03448C0.0164383 10.4828 0.79726 11.7414 1.93973 12.3879V26.9741C1.93973 28.6293 3 29.9827 4.29863 29.9827H19.5945C20.8931 29.9827 21.9534 28.6293 21.9534 26.9741V12.3879H21.9452ZM20.2192 11.5517C19.2986 11.5517 18.452 11 18.0411 10.1465L17.9342 9.64655H22.5781C22.2986 10.7414 21.3452 11.5517 20.2192 11.5517ZM7.21643 9.63793H11.326V10.2069C10.9068 11.0259 10.0767 11.5517 9.18082 11.5517C8.30958 11.5517 7.50411 11.0603 7.07671 10.2759L7.21643 9.63793ZM3.31233 4.50862H7.07671L6.23013 8.34483H1.5863L3.31233 4.50862ZM8.34246 4.50862H11.326V8.34483H7.50411L8.34246 4.50862ZM15.5425 4.50862L16.389 8.34483H12.5671V4.50862H15.5425ZM22.2986 8.34483H17.6548L16.8082 4.50862H20.5726L22.2986 8.34483ZM12.5589 9.63793H16.6685L16.8082 10.2759C16.3726 11.0517 15.5671 11.5517 14.7041 11.5517C13.8082 11.5517 12.9863 11.0259 12.5589 10.2069V9.63793V9.63793ZM3.51781 2.02586C3.51781 1.63793 3.82192 1.31035 4.2 1.31035H19.6685C20.0383 1.31035 20.3507 1.62931 20.3507 2.02586V3.22414H3.51781V2.02586ZM1.31507 9.63793H5.9589L5.85205 10.1379C5.44109 10.9914 4.59452 11.5431 3.67397 11.5431C2.53972 11.5517 1.5863 10.7414 1.31507 9.63793ZM3.66575 12.8448C4.73424 12.8448 5.73698 12.3534 6.42739 11.5345C7.1178 12.3534 8.12054 12.8448 9.18904 12.8448C10.2575 12.8448 11.2603 12.3534 11.9507 11.5345C12.6411 12.3534 13.6438 12.8448 14.7123 12.8448C15.7808 12.8448 16.7836 12.3534 17.474 11.5345C18.1644 12.3534 19.1671 12.8448 20.2356 12.8448C20.4082 12.8448 20.5726 12.8276 20.737 12.8103V24.7241H3.1726V12.8103C3.32877 12.8276 3.50137 12.8448 3.66575 12.8448ZM19.5945 28.6896H4.29041C3.68219 28.6896 3.16438 27.9052 3.16438 26.9741V26.0172H20.7123V26.9741C20.7123 27.9052 20.2027 28.6896 19.5945 28.6896Z" fill="#444444"/>
<path d="M11.9426 26.5345C11.7782 26.5345 11.6221 26.6034 11.507 26.7241C11.3919 26.8448 11.3262 27.0086 11.3262 27.181C11.3262 27.3534 11.3919 27.5172 11.507 27.6379C11.6221 27.7586 11.7782 27.8276 11.9426 27.8276C12.107 27.8276 12.2632 27.7586 12.3782 27.6379C12.4933 27.5172 12.559 27.3534 12.559 27.181C12.559 27.0086 12.4933 26.8448 12.3782 26.7241C12.2632 26.6034 12.107 26.5345 11.9426 26.5345Z" fill="#444444"/>
<path fill-rule="evenodd" clip-rule="evenodd" d="M9.75741 14H12.5H15.2426L16.6213 16.3426L18 18.6852L16.6213 21.0278L15.2426 23.3704H12.5H9.75741L8.37871 21.0278L7 18.6852L8.37871 16.3426L9.75741 14ZM12.5 15.3241C14.3827 15.3241 15.9097 16.8228 15.9097 18.6706C15.9097 20.5185 14.3827 22.0172 12.5 22.0172C10.6173 22.0172 9.0903 20.5185 9.0903 18.6706C9.0903 16.8228 10.6173 15.3241 12.5 15.3241Z" fill="#444444"/>
<circle cx="12.5003" cy="18.6852" r="1.83333" fill="#444444"/>
</g>
<defs>
<clipPath id="clip0_1021_6433">
<rect width="24" height="30" fill="white"/>
</clipPath>
</defs>
</svg>
