<svg xmlns="http://www.w3.org/2000/svg" xmlns:xlink="http://www.w3.org/1999/xlink" width="68" height="68" viewBox="0 0 68 68">
  <defs>
    <filter id="Union_1" x="0" y="0" width="68" height="68" filterUnits="userSpaceOnUse">
      <feOffset dy="3" input="SourceAlpha"/>
      <feGaussianBlur stdDeviation="3" result="blur"/>
      <feFlood flood-opacity="0.161"/>
      <feComposite operator="in" in2="blur"/>
      <feComposite in="SourceGraphic"/>
    </filter>
  </defs>
  <g id="Group_196" data-name="Group 196" transform="translate(-20 -2984)">
    <g transform="matrix(1, 0, 0, 1, 20, 2984)" filter="url(#Union_1)">
      <path id="Union_1-2" data-name="Union 1" d="M6.508,40.653A23.837,23.837,0,0,1,0,24.3C0,10.879,11.193,0,25,0S50,10.879,50,24.3,38.807,48.6,25,48.6a25.5,25.5,0,0,1-10.723-2.343L5.047,50Z" transform="translate(9 6)" fill="#008fe5"/>
    </g>
    <g id="zalo-seeklogo.com" transform="translate(-889.088 2829.033)">
      <path id="Path_160" data-name="Path 160" d="M125.045,135.987c1.757,0,3.409-.012,5.05,0,.919.012,1.42.4,1.513,1.129a1.3,1.3,0,0,1-1.431,1.548c-1.885.023-3.758.012-5.643.012-.547,0-1.082.023-1.629-.012a1.711,1.711,0,0,1-1.664-.873,1.738,1.738,0,0,1,.349-1.9c1.792-2.281,3.6-4.573,5.4-6.853.1-.14.209-.279.314-.407-.116-.2-.279-.1-.419-.116-1.257-.012-2.525,0-3.782-.012a4.241,4.241,0,0,1-.861-.093,1.219,1.219,0,0,1-.023-2.374,3.559,3.559,0,0,1,.861-.1c2.071-.012,4.154-.012,6.225,0a3.856,3.856,0,0,1,1.094.128,1.269,1.269,0,0,1,.814,1.769,8.232,8.232,0,0,1-1.164,1.8q-2.286,2.915-4.573,5.794C125.348,135.579,125.232,135.731,125.045,135.987Z" transform="translate(804 53.289)" fill="#fff"/>
      <path id="Path_161" data-name="Path 161" d="M217.464,122.155a1.788,1.788,0,0,1,1.047-.791A1.429,1.429,0,0,1,220.3,122.7c.035,2.327.023,4.654,0,6.981a1.376,1.376,0,0,1-.966,1.315,1.414,1.414,0,0,1-1.629-.454c-.2-.244-.279-.291-.559-.07a3.562,3.562,0,0,1-3.549.593,4.588,4.588,0,0,1-3.153-4.259,4.825,4.825,0,0,1,2.374-5.061A3.686,3.686,0,0,1,217.464,122.155Zm-4.119,4.247a2.539,2.539,0,0,0,.489,1.408,1.921,1.921,0,0,0,2.676.384,2,2,0,0,0,.384-.384,2.9,2.9,0,0,0,0-3.223,1.748,1.748,0,0,0-1.385-.733C214.229,123.773,213.333,124.762,213.345,126.4Zm12.182.07a4.953,4.953,0,1,1,5.4,4.805A4.748,4.748,0,0,1,225.527,126.472Zm2.921-.279a2.576,2.576,0,0,0,.5,1.629,1.9,1.9,0,0,0,2.676.349,2.233,2.233,0,0,0,.337-.326,2.9,2.9,0,0,0,.012-3.258,1.782,1.782,0,0,0-1.385-.733A2.075,2.075,0,0,0,228.448,126.193Zm-3.944-2.036c0,1.8.012,3.607,0,5.41a1.513,1.513,0,0,1-1.466,1.536,1.807,1.807,0,0,1-.431-.047,1.508,1.508,0,0,1-1.024-1.5v-9.25c0-.547-.012-1.082,0-1.629a1.461,1.461,0,1,1,2.921.023C224.515,120.515,224.5,122.342,224.5,124.157Z" transform="translate(725.079 61)" fill="#fff"/>
    </g>
    <g id="Ellipse_21" data-name="Ellipse 21" transform="translate(67 2992)" fill="#c3002f" stroke="#fff" stroke-width="1">
      <circle cx="6" cy="6" r="6" stroke="none"/>
      <circle cx="6" cy="6" r="5.5" fill="none"/>
    </g>
  </g>
</svg>
