<svg width="101" height="49" viewBox="0 0 101 49" fill="none" xmlns="http://www.w3.org/2000/svg">
<path d="M56.9792 23.1021H55.0836L54.74 16.473L52.3233 23.1021H50.4388L48.0665 16.5395L47.7118 23.1021H45.8605L46.4259 12.9921H47.9335C48.4878 12.9921 48.9866 13.3469 49.1751 13.8679L51.4919 20.2864L54.0194 12.9921H55.139C55.8374 12.9921 56.4249 13.5353 56.4582 14.2337L56.9792 23.1021Z" fill="#EE3324"/>
<path d="M65.3376 22.2818C64.606 22.9801 63.5861 23.3349 62.267 23.3349C60.9589 23.3349 59.939 22.9801 59.1963 22.2818C58.4647 21.5834 58.0988 20.63 58.0988 19.4439V12.9921H60.2938V19.5215C60.2938 20.1534 60.46 20.6411 60.7926 20.9737C61.1252 21.3062 61.6129 21.4725 62.267 21.4725C62.9099 21.4725 63.3977 21.3062 63.7413 20.9626C64.085 20.6189 64.2513 20.1423 64.2513 19.5215V12.9921H66.4351V19.4439C66.4462 20.63 66.0804 21.5723 65.3376 22.2818Z" fill="#EE3324"/>
<path d="M73.0531 13.8679C72.8647 13.3469 72.3658 12.9921 71.8116 12.9921H70.3261L66.7233 23.1021H68.8296L69.2619 21.8051L69.3617 21.5169L70.1487 19.2L71.5455 15.054L72.6762 18.6125L72.8314 19.1002L73.6074 21.5169L73.8069 22.1598L74.1062 23.1132H76.3344L73.0531 13.8679Z" fill="#EE3324"/>
<path d="M56.9792 37.757H55.0836L54.74 31.1279L52.3233 37.757H50.4388L48.0665 31.1945L47.7118 37.757H45.8605L46.4259 27.6471H47.9335C48.4878 27.6471 48.9866 28.0018 49.1751 28.5229L51.4919 34.9413L54.0194 27.6471H55.139C55.8374 27.6471 56.4249 28.1903 56.4582 28.8887L56.9792 37.757Z" fill="#EE3324"/>
<path d="M65.3376 36.9367C64.606 37.6351 63.5861 37.9898 62.267 37.9898C60.9589 37.9898 59.939 37.6351 59.1963 36.9367C58.4647 36.2383 58.0988 35.285 58.0988 34.0988V27.6471H60.2938V34.1764C60.2938 34.8083 60.46 35.2961 60.7926 35.6286C61.1252 35.9612 61.6129 36.1275 62.267 36.1275C62.9099 36.1275 63.3977 35.9612 63.7413 35.6175C64.085 35.2739 64.2513 34.7972 64.2513 34.1764V27.6471H66.4351V34.0988C66.4462 35.285 66.0804 36.2272 65.3376 36.9367Z" fill="#EE3324"/>
<path d="M25.5852 11.9834H20.752L18.4905 4.88868L17.2933 8.43603L16.0961 11.9723H11.3182L15.5861 0H19.1113C20.4305 0 21.6166 0.831409 22.06 2.07298L22.1709 2.39446L25.5852 11.9834Z" fill="#EE3324"/>
<path d="M88.9275 17.3598V22.5035C88.473 22.7584 87.9076 22.9691 87.2647 23.1132C86.6106 23.2573 85.9898 23.3349 85.3801 23.3349C83.6397 23.3349 82.2429 22.8693 81.1898 21.927C80.1367 20.9848 79.6157 19.6988 79.6157 18.0693C79.6157 16.4619 80.1035 15.176 81.0901 14.2115C82.0767 13.2471 83.4734 12.7704 85.2693 12.7704C86.6328 12.7704 87.7968 13.0365 88.7612 13.5575L88.6171 15.3977C87.6637 14.8878 86.6217 14.6328 85.491 14.6328C84.2827 14.6328 83.3958 14.9321 82.8083 15.5307C82.2319 16.1293 81.9436 16.9718 81.9436 18.0693C81.9436 19.1778 82.254 20.0425 82.8859 20.6411C83.5178 21.2508 84.3824 21.5501 85.5021 21.5501C85.9677 21.5501 86.4554 21.4947 86.9654 21.3727V19.0448H84.4711L84.582 17.3487H88.9275V17.3598Z" fill="#EE3324"/>
<path d="M92.1755 12.2162H90.6014L88.7501 10.2319H91.1002L92.1755 12.2162ZM90.291 12.9921H92.4748V23.1021H90.291V12.9921Z" fill="#EE3324"/>
<path d="M97.5076 12.7704C98.6051 12.7704 99.4365 13.0365 100.002 13.5686C100.567 14.1007 100.844 14.7547 100.844 15.5418C100.844 16.1737 100.7 16.6947 100.423 17.1049C100.146 17.515 99.6693 17.9473 99.0263 18.4018C98.5718 18.7233 98.2836 18.9783 98.1838 19.1778C98.073 19.3774 98.0286 19.6988 98.0286 20.1201H97.5963C96.7649 20.1201 96.1663 19.2776 96.4878 18.5127V18.5016C96.6319 18.1691 96.9533 17.8254 97.4522 17.4818C97.9399 17.1603 98.2725 16.8721 98.4499 16.6393C98.6272 16.4065 98.7159 16.1072 98.7159 15.7413C98.7159 15.3312 98.594 15.0319 98.3501 14.8434C98.1062 14.655 97.7182 14.5663 97.1751 14.5663C96.3658 14.5663 95.5898 14.788 94.8471 15.2425L94.9912 13.3469C95.7672 12.9589 96.6097 12.7704 97.5076 12.7704ZM96.0887 21.1289H98.1838V23.1132H96.0887V21.1289Z" fill="#EE3324"/>
<path d="M84.6928 27.6582C86.2448 27.6582 87.4309 28.1127 88.2734 29.0106C89.1048 29.9196 89.5261 31.139 89.5261 32.691C89.5261 34.2319 89.1159 35.4624 88.2956 36.3824C87.4753 37.3025 86.3002 37.757 84.7815 37.757H80.691V33.1677H79.66V32.1811H80.691V27.6582H84.6928ZM84.4489 35.9834C85.4134 35.9834 86.1229 35.6951 86.5774 35.1187C87.0319 34.5423 87.2647 33.733 87.2647 32.7021C87.2647 30.5404 86.3113 29.454 84.3935 29.454H82.8526V32.1811H85.0032V33.1677H82.8526V35.9834H84.4489Z" fill="#EE3324"/>
<path d="M92.8628 27.6582H90.679V37.7681H92.8628V27.6582Z" fill="#EE3324"/>
<path d="M96.4989 33.5113L96.1441 28.2236V27.6471H98.2171V28.2236L97.7293 34.6531C97.0753 34.6642 96.5432 34.1543 96.4989 33.5113ZM96.1441 35.8282H98.2171V37.757H96.1441V35.8282Z" fill="#EE3324"/>
<path d="M25.5852 11.9834L29.8753 24.0111H24.5875L20.752 11.9834H16.0961L12.0388 24.0111H7.02818L11.3182 11.9834H0V45.3062C0 46.7917 1.20831 48 2.69376 48H34.2208C35.7062 48 36.9146 46.7917 36.9146 45.3062V11.9834H25.5852ZM18.4573 17.6259C17.3487 17.6259 16.4508 16.7279 16.4508 15.6194C16.4508 14.5109 17.3487 13.6129 18.4573 13.6129C19.5658 13.6129 20.4637 14.5109 20.4637 15.6194C20.4637 16.7279 19.5658 17.6259 18.4573 17.6259Z" fill="#EE3324"/>
<path d="M29.8753 24H24.5875L20.752 11.9834H25.5852L29.8753 24Z" fill="white"/>
<path d="M16.0961 11.9834L12.0499 24H7.03926L11.3293 11.9834H16.0961Z" fill="white"/>
<path d="M20.4637 15.6194C20.4637 16.7279 19.5658 17.6259 18.4573 17.6259C17.3487 17.6259 16.4508 16.7279 16.4508 15.6194C16.4508 14.5109 17.3487 13.6129 18.4573 13.6129C19.5658 13.6129 20.4637 14.5109 20.4637 15.6194Z" fill="white"/>
<path d="M72.3658 19.5769C72.3658 20.0425 71.9889 20.4194 71.5233 20.4194C71.0577 20.4194 70.6808 20.0425 70.6808 19.5769C70.6808 19.1113 71.0577 18.7344 71.5233 18.7344C71.9889 18.7344 72.3658 19.1113 72.3658 19.5769Z" fill="#EE3324"/>
<path d="M73.0531 28.6448C72.8647 28.1238 72.3658 27.7691 71.8116 27.7691H70.3261L66.7233 37.879H68.8296L69.2619 36.582L69.3617 36.2938L70.1487 33.9769L71.5455 29.8309L72.6762 33.3894L72.8314 33.8771L73.6074 36.2938L73.8069 36.9367L74.1062 37.8901H76.3344L73.0531 28.6448Z" fill="#EE3324"/>
<path d="M72.3658 34.3427C72.3658 34.8083 71.9889 35.1852 71.5233 35.1852C71.0577 35.1852 70.6808 34.8083 70.6808 34.3427C70.6808 33.8771 71.0577 33.5002 71.5233 33.5002C71.9889 33.5002 72.3658 33.8771 72.3658 34.3427Z" fill="#EE3324"/>
<path d="M46.4353 41.7093H47.104V43.852H49.581V41.7093H50.2497V46.8305H49.581V44.4295H47.104V46.8305H46.4353V41.7093Z" fill="#061E39"/>
<path d="M53.9603 44.5738V45.9491C53.9603 46.2683 53.9755 46.5798 54.0135 46.8305H53.4132L53.36 46.3671H53.3372C53.1321 46.6558 52.7369 46.9141 52.2127 46.9141C51.468 46.9141 51.0881 46.3898 51.0881 45.858C51.0881 44.969 51.8783 44.4827 53.2992 44.4903V44.4143C53.2992 44.1179 53.2156 43.5633 52.4634 43.5709C52.1139 43.5709 51.7568 43.6696 51.4984 43.8444L51.3464 43.3961C51.6504 43.2061 52.0987 43.077 52.5622 43.077C53.6867 43.077 53.9603 43.8444 53.9603 44.5738ZM53.3144 45.592V44.9538C52.585 44.9386 51.7568 45.0677 51.7568 45.782C51.7568 46.2227 52.0455 46.4202 52.3798 46.4202C52.8661 46.4202 53.1776 46.1163 53.284 45.8048C53.3068 45.7288 53.3144 45.6528 53.3144 45.592ZM51.544 41.5649H52.2734L52.9421 42.6515H52.471L51.544 41.5649Z" fill="#061E39"/>
<path d="M55.0424 46.8305V44.1483C55.0424 43.7608 55.0348 43.4569 55.012 43.153H55.6047L55.6427 43.7608H55.6579C55.8403 43.4189 56.2658 43.077 56.8736 43.077C57.3827 43.077 58.1729 43.3809 58.1729 44.6422V46.8305H57.5043V44.7106C57.5043 44.1179 57.2839 43.6241 56.6533 43.6241C56.2202 43.6241 55.8783 43.9356 55.7567 44.3079C55.7263 44.3915 55.7111 44.5055 55.7111 44.6194V46.8305H55.0424Z" fill="#061E39"/>
<path d="M62.4028 44.1559V46.2911C62.4028 47.1421 62.2281 47.6512 61.8786 47.9779C61.5138 48.3046 60.9971 48.4186 60.5336 48.4186C60.0929 48.4186 59.6067 48.3122 59.3103 48.1147L59.4775 47.598C59.7206 47.7575 60.1005 47.8943 60.5564 47.8943C61.2403 47.8943 61.7418 47.5372 61.7418 46.6026V46.1999H61.7266C61.529 46.5418 61.1263 46.8154 60.5564 46.8154C59.6446 46.8154 58.9912 46.0403 58.9912 45.0221C58.9912 43.776 59.8042 43.077 60.6552 43.077C61.2935 43.077 61.6354 43.4037 61.8026 43.7076H61.8178L61.8406 43.153H62.4332C62.4104 43.4113 62.4028 43.7152 62.4028 44.1559ZM61.7342 45.2653V44.6042C61.7342 44.4903 61.7266 44.3915 61.6962 44.3079C61.5746 43.9128 61.2555 43.5937 60.7616 43.5937C60.1233 43.5937 59.6674 44.1331 59.6674 44.9842C59.6674 45.706 60.0398 46.3063 60.754 46.3063C61.1719 46.3063 61.5442 46.0479 61.681 45.6224C61.719 45.5084 61.7342 45.3793 61.7342 45.2653Z" fill="#061E39"/>
<path d="M65.2637 42.4691L65.9171 42.2716V43.153H66.8745V43.662H65.9171V45.6452C65.9171 46.1011 66.0463 46.3595 66.4186 46.3595C66.601 46.3595 66.7073 46.3443 66.8061 46.3139L66.8365 46.823C66.7073 46.8685 66.5022 46.9141 66.2438 46.9141C65.9323 46.9141 65.6816 46.8078 65.522 46.633C65.3396 46.4278 65.2637 46.1011 65.2637 45.668V43.662H64.6938V43.153H65.2637V42.4691Z" fill="#061E39"/>
<path d="M69.1403 43.077C70.1965 43.077 70.9107 43.8444 70.9107 44.9614C70.9107 46.3215 69.9609 46.9141 69.0795 46.9141C68.0917 46.9141 67.3167 46.1847 67.3167 45.0221C67.3167 43.7988 68.1297 43.077 69.1403 43.077ZM69.1251 43.5785C68.3425 43.5785 68.0005 44.3079 68.0005 44.9994C68.0005 45.8048 68.4564 46.4126 69.1099 46.4126C69.7482 46.4126 70.2269 45.8124 70.2269 44.9842C70.2269 44.3611 69.9153 43.5785 69.1251 43.5785ZM68.8971 41.5649H69.391L70.0445 42.6515H69.5354L69.1479 41.9372H69.1327L68.7452 42.6515H68.2589L68.8971 41.5649ZM70.356 40.9494H70.9715L70.2193 41.9448H69.8317L70.356 40.9494Z" fill="#061E39"/>
<path d="M71.9048 42.4691L72.5582 42.2716V43.153H73.5156V43.662H72.5582V45.6452C72.5582 46.1011 72.6874 46.3595 73.0597 46.3595C73.2421 46.3595 73.3485 46.3443 73.4472 46.3139L73.4776 46.823C73.3485 46.8685 73.1433 46.9141 72.885 46.9141C72.5734 46.9141 72.3227 46.8078 72.1631 46.633C71.9808 46.4278 71.9048 46.1011 71.9048 45.668V43.662H71.3349V43.153H71.9048V42.4691Z" fill="#061E39"/>
<path d="M74.284 47.7196L73.8129 47.7727C73.9801 47.3168 74.1852 46.5038 74.2688 45.9491L75.0134 45.8732C74.8311 46.519 74.4968 47.3624 74.284 47.7196Z" fill="#061E39"/>
<path d="M77.5813 42.4691L78.2347 42.2716V43.153H79.1921V43.662H78.2347V45.6452C78.2347 46.1011 78.3639 46.3595 78.7362 46.3595C78.9186 46.3595 79.0249 46.3443 79.1237 46.3139L79.1541 46.823C79.0249 46.8685 78.8198 46.9141 78.5614 46.9141C78.2499 46.9141 77.9992 46.8078 77.8396 46.633C77.6572 46.4278 77.5813 46.1011 77.5813 45.668V43.662H77.0114V43.153H77.5813V42.4691Z" fill="#061E39"/>
<path d="M80.6134 46.8305H79.9447V43.153H80.6134V46.8305ZM80.2791 41.7017C80.5222 41.7017 80.6894 41.884 80.6894 42.1196C80.6894 42.3475 80.5298 42.5299 80.2639 42.5299C80.0207 42.5299 79.8612 42.3475 79.8612 42.1196C79.8612 41.8916 80.0283 41.7017 80.2791 41.7017Z" fill="#061E39"/>
<path d="M84.6738 45.1133H82.0979C82.1131 46.0175 82.683 46.3898 83.3592 46.3898C83.8379 46.3898 84.1343 46.3063 84.3774 46.1999L84.499 46.6786C84.2634 46.785 83.8531 46.9141 83.2681 46.9141C82.1359 46.9141 81.4597 46.1619 81.4597 45.0525C81.4597 43.9432 82.1131 43.077 83.1845 43.077C84.3926 43.077 84.7041 44.1255 84.7041 44.8018C84.7041 44.9386 84.6966 45.0373 84.6738 45.1133ZM82.1055 44.6346H84.0583C84.0659 44.2167 83.8835 43.5557 83.1313 43.5557C82.4474 43.5557 82.1587 44.1711 82.1055 44.6346ZM83.4732 40.9494H84.0811L84.5598 41.9448H84.1799L83.4732 40.9494ZM82.9261 41.5649H83.4124L84.0735 42.6515H83.5644L83.1769 41.9372H83.1617L82.7742 42.6515H82.2803L82.9261 41.5649Z" fill="#061E39"/>
<path d="M85.5322 46.8305V44.1483C85.5322 43.7608 85.5246 43.4569 85.5018 43.153H86.0945L86.1325 43.7608H86.1477C86.33 43.4189 86.7555 43.077 87.3634 43.077C87.8725 43.077 88.6627 43.3809 88.6627 44.6422V46.8305H87.994V44.7106C87.994 44.1179 87.7737 43.6241 87.143 43.6241C86.7099 43.6241 86.368 43.9356 86.2464 44.3079C86.216 44.3915 86.2008 44.5055 86.2008 44.6194V46.8305H85.5322Z" fill="#061E39"/>
<path d="M92.0257 46.8305H91.3571V43.153H92.0257V46.8305ZM91.9877 41.5649H92.7172L91.7902 42.6515H91.3191L91.9877 41.5649Z" fill="#061E39"/>
<path d="M93.2899 42.4691L93.9434 42.2716V43.153H94.9007V43.662H93.9434V45.6452C93.9434 46.1011 94.0725 46.3595 94.4448 46.3595C94.6272 46.3595 94.7336 46.3443 94.8324 46.3139L94.8628 46.823C94.7336 46.8685 94.5284 46.9141 94.2701 46.9141C93.9585 46.9141 93.7078 46.8078 93.5482 46.633C93.3659 46.4278 93.2899 46.1011 93.2899 45.668V43.662H92.72V43.153H93.2899V42.4691Z" fill="#061E39"/>
<path d="M96.2309 45.3641H95.7142L95.6078 41.7093H96.3372L96.2309 45.3641ZM95.9649 46.9141C95.7066 46.9141 95.5242 46.709 95.5242 46.443C95.5242 46.1695 95.7142 45.9719 95.9801 45.9719C96.2461 45.9719 96.4208 46.1695 96.4208 46.443C96.4208 46.709 96.2461 46.9141 95.9649 46.9141Z" fill="#061E39"/>
</svg>
