<svg xmlns="http://www.w3.org/2000/svg" width="35" height="35" viewBox="0 0 35 35">
  <g id="Group_4" data-name="Group 4" transform="translate(-805 -7840)">
    <circle id="Ellipse_1" data-name="Ellipse 1" cx="17.5" cy="17.5" r="17.5" transform="translate(805 7840)" fill="#eee"/>
    <path id="Path_244" data-name="Path 244" d="M14-1a2.1,2.1,0,0,1-1.492-.617A1.112,1.112,0,0,0,11.672-2a1.116,1.116,0,0,0-.844.383A2.1,2.1,0,0,1,9.336-1a2.1,2.1,0,0,1-1.492-.617A1.116,1.116,0,0,0,7-2a1.1,1.1,0,0,0-.836.383A2.112,2.112,0,0,1,4.672-1,2.081,2.081,0,0,1,3.18-1.617,1.129,1.129,0,0,0,2.336-2a1.116,1.116,0,0,0-.844.383A2.1,2.1,0,0,1,0-1V2H14Zm0-2.5A1.5,1.5,0,0,0,12.5-5H12V-8.5H10V-5H8V-8.5H6V-5H4V-8.5H2V-5H1.5A1.5,1.5,0,0,0,0-3.5V-2a1.116,1.116,0,0,0,.844-.383A2.081,2.081,0,0,1,2.336-3a2.1,2.1,0,0,1,1.492.617A1.116,1.116,0,0,0,4.672-2a1.1,1.1,0,0,0,.836-.383A2.112,2.112,0,0,1,7-3a2.081,2.081,0,0,1,1.492.617A1.116,1.116,0,0,0,9.336-2a1.129,1.129,0,0,0,.844-.383A2.081,2.081,0,0,1,11.672-3a2.075,2.075,0,0,1,1.484.617A1.129,1.129,0,0,0,14-2ZM4-10.25C4-11.078,3.375-12,3-12c0,1.281-1,1.031-1,2A1,1,0,0,0,3-9C3.555-9,4-9.422,4-10.25Zm4,0C8-11.078,7.375-12,7-12c0,1.281-1,1.031-1,2A1,1,0,0,0,7-9C7.555-9,8-9.422,8-10.25Zm4,0c0-.828-.625-1.75-1-1.75,0,1.281-1,1.031-1,2a1,1,0,0,0,1,1C11.555-9,12-9.422,12-10.25Z" transform="translate(816 7863)" fill="#c3002f"/>
  </g>
</svg>
