<svg xmlns="http://www.w3.org/2000/svg" width="35" height="35" viewBox="0 0 35 35">
  <g id="Group_9" data-name="Group 9" transform="translate(-1135 -8053)">
    <circle id="Ellipse_6" data-name="Ellipse 6" cx="17.5" cy="17.5" r="17.5" transform="translate(1135 8053)" fill="#eee"/>
    <path id="Path_240" data-name="Path 240" d="M5.509,1.366c0,.3-.8.75-1.062.848a1.062,1.062,0,0,1-.4.071,3.286,3.286,0,0,1-.875-.161C1.705,1.688,1.357.795.777-.464A9.257,9.257,0,0,1,0-4.571,9.257,9.257,0,0,1,.777-8.679c.58-1.259.929-2.152,2.393-2.589a3.286,3.286,0,0,1,.875-.161,1.062,1.062,0,0,1,.4.071c.259.1,1.063.545,1.063.848,0,.214-.473,1.732-.571,2.089-.054.223-.071.589-.241.75a.68.68,0,0,1-.455.125c-.42,0-.839-.1-1.259-.1a.7.7,0,0,0-.42.1c-.143.116-.214.518-.268.7a8.164,8.164,0,0,0-.33,2.277,8.164,8.164,0,0,0,.33,2.277c.054.179.125.58.268.7a.7.7,0,0,0,.42.1c.42,0,.839-.1,1.259-.1a.68.68,0,0,1,.455.125c.17.161.188.527.241.75C5.036-.366,5.509,1.152,5.509,1.366Zm1.42-8.152a.6.6,0,0,0,.4-.17A2.284,2.284,0,0,0,8-8.571a2.284,2.284,0,0,0-.67-1.616.566.566,0,0,0-.8,0,.558.558,0,0,0,0,.8,1.164,1.164,0,0,1,.33.813,1.127,1.127,0,0,1-.33.8.569.569,0,0,0,0,.813A.568.568,0,0,0,6.929-6.786ZM8.545-5.17a.547.547,0,0,0,.4-.17,4.531,4.531,0,0,0,1.339-3.232A4.531,4.531,0,0,0,8.946-11.8a.566.566,0,0,0-.8,0,.566.566,0,0,0,0,.8,3.432,3.432,0,0,1,1,2.429,3.432,3.432,0,0,1-1,2.429.566.566,0,0,0,0,.8A.533.533,0,0,0,8.545-5.17Zm1.616,1.616a.547.547,0,0,0,.4-.17,6.815,6.815,0,0,0,2.009-4.848,6.815,6.815,0,0,0-2.009-4.848.566.566,0,0,0-.8,0,.566.566,0,0,0,0,.8,5.716,5.716,0,0,1,1.67,4.045,5.716,5.716,0,0,1-1.67,4.045.566.566,0,0,0,0,.8A.533.533,0,0,0,10.161-3.554Z" transform="translate(1146 8076)" fill="#c3002f"/>
  </g>
</svg>
