<svg xmlns="http://www.w3.org/2000/svg" width="35" height="35" viewBox="0 0 35 35">
  <g id="Group_5" data-name="Group 5" transform="translate(-1135 -7840)">
    <circle id="Ellipse_2" data-name="Ellipse 2" cx="17.5" cy="17.5" r="17.5" transform="translate(1135 7840)" fill="#eee"/>
    <path id="Path_242" data-name="Path 242" d="M14-6.453a4.6,4.6,0,0,1-.781.68c-1.3.883-2.617,1.773-3.891,2.7A4.281,4.281,0,0,1,7.008-2H6.992a4.281,4.281,0,0,1-2.32-1.078C3.4-4.008,2.086-4.891.789-5.773A4.369,4.369,0,0,1,0-6.453v6.2A1.254,1.254,0,0,0,1.25,1h11.5A1.254,1.254,0,0,0,14-.25Zm0-2.3A1.259,1.259,0,0,0,12.75-10H1.25A1.267,1.267,0,0,0,0-8.578,3.046,3.046,0,0,0,1.344-6.609c1.211.844,2.438,1.687,3.648,2.539C5.5-3.719,6.359-3,6.992-3h.016c.633,0,1.492-.719,2-1.07,1.211-.852,2.438-1.7,3.656-2.539A2.821,2.821,0,0,0,14-8.75Z" transform="translate(1146 7863)" fill="#c3002f"/>
  </g>
</svg>
