<svg xmlns="http://www.w3.org/2000/svg" width="35" height="35" viewBox="0 0 35 35">
  <g id="Group_6" data-name="Group 6" transform="translate(-1135 -7890)">
    <circle id="Ellipse_4" data-name="Ellipse 4" cx="17.5" cy="17.5" r="17.5" transform="translate(1135 7890)" fill="#eee"/>
    <path id="Path_241" data-name="Path 241" d="M12.571-2.643a.456.456,0,0,0-.027-.187c-.062-.187-.5-.384-.679-.473-.509-.286-1.027-.563-1.527-.857-.232-.143-.518-.411-.795-.411C9-4.571,8.205-2.955,7.723-2.955A1.919,1.919,0,0,1,6.955-3.3,8.884,8.884,0,0,1,3.3-6.955a1.919,1.919,0,0,1-.348-.768c0-.482,1.616-1.277,1.616-1.821,0-.277-.268-.562-.411-.795-.295-.5-.571-1.018-.857-1.527-.089-.179-.286-.616-.473-.679a.456.456,0,0,0-.187-.027,3.973,3.973,0,0,0-1.241.277,2.352,2.352,0,0,0-.946,1.089A3.412,3.412,0,0,0,0-9.545,6.877,6.877,0,0,0,.616-7.205a8.346,8.346,0,0,0,.741,1.563A15.073,15.073,0,0,0,5.643-1.357a8.346,8.346,0,0,0,1.563.741A6.877,6.877,0,0,0,9.545,0a3.412,3.412,0,0,0,1.661-.455A2.352,2.352,0,0,0,12.295-1.4,3.973,3.973,0,0,0,12.571-2.643Z" transform="translate(1146 7913)" fill="#c3002f"/>
  </g>
</svg>
