<svg xmlns="http://www.w3.org/2000/svg" width="35" height="35" viewBox="0 0 35 35">
  <g id="Group_7" data-name="Group 7" transform="translate(-805 -8003)">
    <circle id="Ellipse_7" data-name="Ellipse 7" cx="17.5" cy="17.5" r="17.5" transform="translate(805 8003)" fill="#eee"/>
    <path id="Path_248" data-name="Path 248" d="M6.857-8A2.29,2.29,0,0,1,4.571-5.714,2.29,2.29,0,0,1,2.286-8a2.29,2.29,0,0,1,2.286-2.286A2.29,2.29,0,0,1,6.857-8ZM9.143-8a4.569,4.569,0,0,0-4.571-4.571A4.569,4.569,0,0,0,0-8,3.743,3.743,0,0,0,.295-6.4L3.554.509a1.117,1.117,0,0,0,1.018.634A1.139,1.139,0,0,0,5.6.509L8.848-6.4A3.743,3.743,0,0,0,9.143-8Z" transform="translate(819 8026)" fill="#c3002f"/>
  </g>
</svg>
