<svg xmlns="http://www.w3.org/2000/svg" width="35" height="35" viewBox="0 0 35 35">
  <g id="Group_8" data-name="Group 8" transform="translate(-805 -8053)">
    <circle id="Ellipse_5" data-name="Ellipse 5" cx="17.5" cy="17.5" r="17.5" transform="translate(805 8053)" fill="#eee"/>
    <path id="Path_245" data-name="Path 245" d="M1.134-5.714A6.87,6.87,0,0,0,5.009.464L1.732-8.509A6.823,6.823,0,0,0,1.134-5.714Zm11.5-.348a3.551,3.551,0,0,0-.562-1.893,3.245,3.245,0,0,1-.679-1.607,1.185,1.185,0,0,1,1.152-1.214h.089A6.856,6.856,0,0,0,8-12.58a6.838,6.838,0,0,0-5.732,3.1c.161,0,.313.009.438.009,0,0,.723-.009,1.83-.089A.282.282,0,0,1,4.58-9c-.375.045-.786.071-.786.071L6.295-1.5,7.795-6,6.723-8.929,6.009-9a.282.282,0,0,1,.045-.562c1.134.08,1.8.089,1.8.089s.714-.009,1.83-.089A.282.282,0,0,1,9.732-9c-.375.045-.786.071-.786.071l2.482,7.375.679-2.286A8.852,8.852,0,0,0,12.634-6.063Zm-4.518.946L6.063.866A6.649,6.649,0,0,0,8,1.152,6.851,6.851,0,0,0,10.277.759a.33.33,0,0,1-.045-.1Zm5.9-3.893a4.436,4.436,0,0,1,.054.705,7.6,7.6,0,0,1-.527,2.464L11.446.214a6.844,6.844,0,0,0,3.42-5.929A6.848,6.848,0,0,0,14.018-9.009ZM8-13.714a8.01,8.01,0,0,0-8,8,8.01,8.01,0,0,0,8,8,8.01,8.01,0,0,0,8-8A8.01,8.01,0,0,0,8-13.714ZM8,1.92A7.648,7.648,0,0,1,.366-5.714,7.648,7.648,0,0,1,8-13.348a7.648,7.648,0,0,1,7.634,7.634A7.648,7.648,0,0,1,8,1.92Z" transform="translate(815 8077)" fill="#c3002f"/>
  </g>
</svg>
