<svg width="220" height="118" viewBox="0 0 220 118" fill="none" xmlns="http://www.w3.org/2000/svg">
<g clip-path="url(#clip0_129_4806)">
<rect width="220" height="118" rx="12" fill="#F5F5F5"/>
<path d="M68.3004 156.15C67.3058 155.867 66.7256 156.576 65.9382 156.824C61.4624 158.17 57.0281 156.859 54.4173 153.138C50.9361 148.248 50.0244 142.72 48.9883 137.227C48.7811 135.987 49.5271 135.987 50.4803 136.235C56.365 137.724 62.2498 139.212 67.2643 142.366C72.0302 145.378 73.0662 148.886 70.5797 153.493C70.4139 153.776 70.4554 154.095 70.4139 154.414C69.668 154.981 68.9635 155.583 68.3004 156.15Z" fill="#EBEBEB"/>
<path d="M-42.3085 57.3192C-41.5626 57.6735 -41.0238 57.2129 -40.4022 57.0357C-35.8436 55.6891 -31.9066 56.7168 -29.0471 59.9414C-25.1515 64.3355 -23.3695 69.5446 -21.5046 74.6828C-21.1316 75.7813 -21.4217 76.1711 -22.8722 75.994C-28.8399 75.2144 -34.8075 74.3639 -40.195 71.8834C-46.2041 69.0839 -47.6546 64.9379 -44.4221 59.7643C-44.2978 59.5871 -44.3807 59.3036 -44.3392 59.0555C-43.7176 58.524 -43.0131 57.9216 -42.3085 57.3192Z" fill="#EBEBEB"/>
<path d="M48.4079 173.16C47.7448 172.876 47.3304 173.372 46.8745 173.55C41.7357 175.463 37.177 174.046 33.6545 169.545C31.1679 166.356 27.894 158.95 27.148 154.627C34.0689 155.442 40.8654 156.292 46.8745 159.304C51.9719 161.891 53.1323 165.789 50.6457 170.467C50.48 170.75 50.5214 171.069 50.48 171.388C49.7754 171.99 49.0709 172.593 48.4079 173.16Z" fill="#EBEBEB"/>
<path d="M70.7451 76.8093C70.6208 76.9156 70.4965 77.0219 70.3722 77.1282C68.6316 76.9864 67.637 76.136 67.4712 74.6477L67.8856 74.2933C68.8388 75.1792 69.792 75.9942 70.7451 76.8093Z" fill="#EBEBEB"/>
<path d="M50.8937 59.836C50.7694 59.9423 50.6451 60.0486 50.4793 60.1903C48.7802 60.0132 47.7856 59.1627 47.5784 57.7098L47.9928 57.3555C48.946 58.1705 49.8991 58.9855 50.8937 59.836Z" fill="#EBEBEB"/>
<path d="M-64.3555 76.8088C-64.4799 76.7025 -64.6042 76.5961 -64.6871 76.4544C-63.9826 75.852 -63.3195 75.285 -62.615 74.6826C-62.4906 74.7889 -62.3663 74.8952 -62.242 74.9307C-62.2834 76.1709 -62.9879 76.7733 -64.3555 76.8088Z" fill="#EBEBEB"/>
<path d="M79.7389 132.975C77.6668 134.888 75.056 135.633 72.0721 135.349C65.2756 134.782 59.4737 132.089 53.6718 129.325C52.5529 128.793 52.6772 128.262 53.6304 127.659C58.9764 124.293 64.3639 120.962 70.9946 119.686C75.3875 118.836 79.4903 120.572 81.3966 123.691C83.2615 126.915 82.6399 130.494 79.7389 132.975Z" fill="#EBEBEB"/>
<path d="M79.7792 97.7877C82.5558 100.233 83.2604 103.741 81.5198 106.788C79.7792 109.907 75.9251 111.714 71.9052 111.183C66.1033 110.474 61.4204 107.745 56.7374 105.017C51.9715 102.217 52.0544 102.075 57.2347 99.7721C61.4618 97.8585 65.8547 96.2285 70.5791 95.5198C74.0188 95.0591 77.2098 95.5907 79.7792 97.7877Z" fill="#EBEBEB"/>
<path d="M-17.8998 49.8427C-14.8331 47.2913 -10.979 46.7597 -7.20775 48.2126C-3.80949 49.5592 -1.48873 52.8193 -2.06891 56.2211C-3.14642 62.4579 -7.45638 67.3481 -11.7664 72.2382C-12.5123 73.0887 -13.0511 72.6989 -13.5069 72.0256C-16.6151 67.2418 -19.6818 62.3516 -20.4692 56.7881C-20.8837 54.0241 -20.1791 51.579 -17.8998 49.8427Z" fill="#EBEBEB"/>
<path d="M-64.3555 76.8088C-63.651 76.2064 -62.9473 75.6046 -62.2428 75.0022C-56.5652 72.2028 -51.0949 73.4785 -47.9868 78.5458C-44.92 83.5777 -43.8425 89.0349 -42.9722 94.9527C-50.1003 93.3227 -56.8554 91.728 -62.4086 87.7592C-66.7186 84.5699 -67.215 81.0257 -64.3555 76.8088Z" fill="#EBEBEB"/>
<path d="M10.1982 49.9134C13.3064 47.3266 17.5335 46.7596 21.0975 48.177C24.6201 49.6299 26.6508 52.7837 26.2363 56.4691C25.8219 60.367 24.0399 63.8752 22.0921 67.3125C21.0561 69.1906 20.2272 72.309 18.4038 72.3798C16.2073 72.4861 15.1713 69.4741 13.7623 67.7023C11.1928 64.4422 8.91352 61.0757 7.96035 57.1423C7.21439 54.2366 8.12612 51.7561 10.1982 49.9134Z" fill="#EBEBEB"/>
<path d="M47.579 57.6384C48.5322 58.4534 49.5268 59.3039 50.48 60.1189C53.1737 65.1863 51.5989 69.2968 45.9213 71.8837C40.4924 74.3288 34.5662 75.2855 28.5156 75.9943C27.4796 76.1006 26.6922 76.136 27.148 74.8957C28.93 69.6866 30.6292 64.4067 34.6905 60.0835C38.4203 56.1146 42.1501 55.4768 47.579 57.6384Z" fill="#EBEBEB"/>
<path d="M67.4291 74.6837C68.3823 75.4987 69.3769 76.3492 70.3301 77.1642C73.1067 82.3024 71.7391 86.0941 65.8129 89.2479C61.0885 91.7993 55.7425 93.2522 50.3964 94.5633C49.1946 94.8822 48.573 94.7759 48.7802 93.4648C49.6505 88.3265 50.6865 83.2592 53.5875 78.5816C56.6956 73.7269 61.5444 72.4158 67.4291 74.6837Z" fill="#EBEBEB"/>
<path d="M58.8922 117.349C55.494 119.758 52.0543 122.062 47.7028 123.018C43.6415 123.94 39.4973 122.806 37.218 120.219C34.9801 117.668 34.8972 113.911 37.0108 111.041C39.0829 108.206 42.937 106.895 47.2055 107.71C52.3444 108.702 56.2399 111.466 59.9283 114.407C61.8346 115.967 59.3895 116.427 58.8922 117.349Z" fill="#EBEBEB"/>
<path d="M1.08041 66.994C2.11646 65.5411 3.48406 65.7892 5.10031 67.5255C8.29136 70.892 11.5653 74.2584 12.0626 78.7942C12.5185 82.4441 10.2806 85.5625 6.38502 86.9799C2.73811 88.2556 -1.69621 87.4406 -4.22418 84.8538C-6.29629 82.7276 -6.79359 80.2471 -6.17195 77.5894C-5.17734 73.5497 -2.2764 70.573 1.08041 66.994Z" fill="#EBEBEB"/>
<path d="M26.3191 146.618C22.1334 143.11 22.382 137.653 26.4019 134.641C30.3389 131.7 36.4724 132.196 39.622 135.669C43.2689 139.708 44.0563 144.421 44.0563 149.312C44.0563 150.091 43.8491 150.552 42.7716 150.552C36.5967 150.587 30.7119 149.879 26.3191 146.618Z" fill="#EBEBEB"/>
<path d="M-33.7309 95.2718C-37.4607 91.5155 -38.2895 86.5545 -38.2895 81.3808C-38.2895 80.5304 -37.7508 80.2114 -36.7976 80.2469C-31.1615 80.2469 -25.6911 80.8847 -21.0496 83.9322C-16.781 86.7317 -16.2008 91.9762 -19.8063 95.4135C-23.3289 98.7799 -29.6695 98.8862 -33.7309 95.2718Z" fill="#EBEBEB"/>
<path d="M26.1541 84.3211C31.0029 80.7421 36.9291 80.3523 42.8968 80.2105C43.8499 80.1751 44.0157 80.6712 43.9742 81.3445C43.9328 85.6323 43.4355 89.8846 40.8246 93.6762C37.8823 97.8931 32.7434 99.1688 27.9776 97.0781C23.9163 95.3063 22.1342 91.0185 23.7919 87.1915C24.2892 86.0575 25.201 85.207 26.1541 84.3211Z" fill="#EBEBEB"/>
<path d="M180.85 -14.3725C181.347 -14.2308 181.637 -14.5851 182.031 -14.7092C184.269 -15.3825 186.486 -14.7269 187.791 -12.8665C189.532 -10.4214 189.988 -7.6574 190.506 -4.9111C190.609 -4.29097 190.236 -4.29098 189.76 -4.415C186.817 -5.15916 183.875 -5.90332 181.368 -7.48022C178.985 -8.98625 178.467 -10.7403 179.71 -13.0437C179.793 -13.1854 179.772 -13.3449 179.793 -13.5043C180.166 -13.7878 180.518 -14.089 180.85 -14.3725Z" fill="#EBEBEB"/>
<path d="M236.154 35.0431C235.781 34.8659 235.512 35.0962 235.201 35.1848C232.922 35.8581 230.953 35.3443 229.524 33.7319C227.576 31.5349 226.685 28.9303 225.752 26.3612C225.566 25.812 225.711 25.6171 226.436 25.7057C229.42 26.0955 232.404 26.5207 235.098 27.761C238.102 29.1607 238.827 31.2337 237.211 33.8205C237.149 33.9091 237.19 34.0508 237.17 34.1749C236.859 34.4406 236.507 34.7419 236.154 35.0431Z" fill="#EBEBEB"/>
<path d="M190.796 -22.8773C191.128 -22.7355 191.335 -22.9836 191.563 -23.0722C194.132 -24.0289 196.411 -23.3202 198.173 -21.07C199.416 -19.4754 201.053 -15.7723 201.426 -13.6107C197.966 -14.0183 194.567 -14.4435 191.563 -15.9495C189.014 -17.2429 188.434 -19.1919 189.677 -21.5307C189.76 -21.6724 189.739 -21.8319 189.76 -21.9914C190.112 -22.2926 190.465 -22.5938 190.796 -22.8773Z" fill="#EBEBEB"/>
<path d="M179.627 25.298C179.69 25.2449 179.752 25.1917 179.814 25.1385C180.684 25.2094 181.182 25.6347 181.264 26.3788L181.057 26.556C180.581 26.113 180.104 25.7055 179.627 25.298Z" fill="#EBEBEB"/>
<path d="M189.553 33.7846C189.615 33.7315 189.677 33.6783 189.76 33.6075C190.61 33.6961 191.107 34.1213 191.211 34.8477L191.004 35.0249C190.527 34.6174 190.05 34.2099 189.553 33.7846Z" fill="#EBEBEB"/>
<path d="M247.178 25.2983C247.24 25.3514 247.302 25.4046 247.344 25.4754C246.991 25.7766 246.66 26.0601 246.307 26.3613C246.245 26.3082 246.183 26.255 246.121 26.2373C246.142 25.6172 246.494 25.316 247.178 25.2983Z" fill="#EBEBEB"/>
<path d="M175.131 -2.78476C176.167 -3.74154 177.472 -4.11361 178.964 -3.97187C182.362 -3.68838 185.263 -2.34182 188.164 -0.95981C188.724 -0.694039 188.661 -0.428266 188.185 -0.12706C185.512 1.55615 182.818 3.22164 179.503 3.85949C177.306 4.28472 175.255 3.41654 174.302 1.85735C173.369 0.245014 173.68 -1.5445 175.131 -2.78476Z" fill="#EBEBEB"/>
<path d="M175.11 14.8088C173.722 13.5862 173.37 11.8322 174.24 10.3084C175.11 8.74923 177.037 7.84561 179.047 8.11138C181.948 8.46574 184.29 9.83003 186.631 11.1943C189.014 12.594 188.973 12.6649 186.383 13.8166C184.269 14.7734 182.073 15.5884 179.71 15.9427C177.991 16.1731 176.395 15.9073 175.11 14.8088Z" fill="#EBEBEB"/>
<path d="M223.95 38.7813C222.417 40.057 220.489 40.3228 218.604 39.5963C216.905 38.9231 215.744 37.293 216.034 35.5921C216.573 32.4737 218.728 30.0286 220.883 27.5835C221.256 27.1583 221.526 27.3532 221.753 27.6898C223.308 30.0818 224.841 32.5268 225.235 35.3086C225.442 36.6906 225.09 37.9131 223.95 38.7813Z" fill="#EBEBEB"/>
<path d="M247.178 25.2983C246.826 25.5995 246.474 25.9003 246.121 26.2015C243.283 27.6012 240.547 26.9634 238.993 24.4297C237.46 21.9138 236.921 19.1852 236.486 16.2263C240.05 17.0413 243.428 17.8386 246.204 19.823C248.359 21.4177 248.608 23.1898 247.178 25.2983Z" fill="#EBEBEB"/>
<path d="M209.901 38.7459C208.347 40.0394 206.233 40.3228 204.451 39.6141C202.69 38.8877 201.675 37.3108 201.882 35.4681C202.089 33.5191 202.98 31.765 203.954 30.0464C204.472 29.1073 204.886 27.5482 205.798 27.5127C206.896 27.4596 207.414 28.9656 208.119 29.8515C209.404 31.4816 210.543 33.1648 211.02 35.1315C211.393 36.5843 210.937 37.8246 209.901 38.7459Z" fill="#EBEBEB"/>
<path d="M191.21 34.8834C190.734 34.4759 190.237 34.0507 189.76 33.6432C188.413 31.1095 189.201 29.0542 192.039 27.7608C194.754 26.5383 197.717 26.0599 200.742 25.7055C201.26 25.6524 201.654 25.6346 201.426 26.2548C200.535 28.8593 199.685 31.4993 197.655 33.6609C195.79 35.6453 193.925 35.9642 191.21 34.8834Z" fill="#EBEBEB"/>
<path d="M181.285 26.3608C180.809 25.9533 180.312 25.5281 179.835 25.1205C178.447 22.5514 179.13 20.6556 182.094 19.0787C184.456 17.803 187.129 17.0766 189.802 16.421C190.403 16.2615 190.714 16.3147 190.61 16.9703C190.175 19.5394 189.657 22.073 188.206 24.4118C186.652 26.8392 184.228 27.4948 181.285 26.3608Z" fill="#EBEBEB"/>
<path d="M185.554 5.02835C187.253 3.82352 188.973 2.67185 191.149 2.19346C193.179 1.73279 195.251 2.29977 196.391 3.59319C197.51 4.86888 197.551 6.747 196.495 8.18216C195.459 9.5996 193.532 10.2552 191.397 9.84765C188.828 9.35155 186.88 7.96954 185.036 6.49894C184.083 5.71935 185.305 5.48902 185.554 5.02835Z" fill="#EBEBEB"/>
<path d="M214.46 30.2056C213.942 30.9321 213.258 30.8081 212.45 29.9399C210.854 28.2567 209.217 26.5734 208.969 24.3055C208.741 22.4806 209.86 20.9214 211.807 20.2127C213.631 19.5748 215.848 19.9823 217.112 21.2758C218.148 22.3388 218.397 23.5791 218.086 24.908C217.589 26.9278 216.138 28.4161 214.46 30.2056Z" fill="#EBEBEB"/>
<path d="M201.84 -9.60659C203.933 -7.85251 203.809 -5.12393 201.799 -3.6179C199.831 -2.14731 196.764 -2.39536 195.189 -4.13173C193.366 -6.15158 192.972 -8.50808 192.972 -10.9532C192.972 -11.343 193.075 -11.5733 193.614 -11.5733C196.702 -11.591 199.644 -11.2367 201.84 -9.60659Z" fill="#EBEBEB"/>
<path d="M231.865 16.0668C233.73 17.9449 234.145 20.4254 234.145 23.0122C234.145 23.4375 233.875 23.5969 233.399 23.5792C230.581 23.5792 227.846 23.2603 225.525 21.7365C223.391 20.3368 223.1 17.7145 224.903 15.9959C226.664 14.3127 229.835 14.2595 231.865 16.0668Z" fill="#EBEBEB"/>
<path d="M201.923 21.5421C199.499 23.3316 196.535 23.5265 193.552 23.5974C193.075 23.6151 192.992 23.367 193.013 23.0304C193.034 20.8865 193.282 18.7603 194.588 16.8645C196.059 14.7561 198.628 14.1182 201.011 15.1636C203.042 16.0495 203.933 18.1934 203.104 20.1069C202.855 20.6739 202.4 21.0991 201.923 21.5421Z" fill="#EBEBEB"/>
</g>
<defs>
<clipPath id="clip0_129_4806">
<rect width="220" height="118" rx="12" fill="white"/>
</clipPath>
</defs>
</svg>
