<svg width="96" height="96" viewBox="0 0 96 96" fill="none" xmlns="http://www.w3.org/2000/svg">
<g clip-path="url(#clip0_535_3454)">
<path d="M87.7414 87.0946C76.9491 95.3261 63.2002 96.5604 48.9686 95.8145C46.6291 95.6919 45.8183 94.3788 46.0332 92.1419C46.728 78.8851 49.1569 66.1101 58.1121 55.632C66.3389 45.9955 80.837 45.3869 89.8478 54.3629C98.6739 63.1337 98.1847 78.063 87.7414 87.0946Z" fill="#FDE9EA"/>
<path d="M16.7033 0.0146529C16.8205 0.249085 17.0696 0.205128 17.2601 0.29304C18.3297 0.805861 18.8425 1.86081 18.5348 3.09158C18.1392 4.71795 17.1575 6.02198 16.2051 7.34066C15.9854 7.6337 15.8535 7.50183 15.7363 7.28205C15.0037 5.93407 14.2711 4.58608 14.0366 3.04762C13.8169 1.58242 14.359 0.673994 15.7509 0.161173C15.8388 0.131869 15.8974 0.0586081 15.9707 0C16.2198 0.014652 16.4689 0.0146529 16.7033 0.0146529Z" fill="#F9B631"/>
<path d="M15.8242 40.0004C15.7656 39.7953 15.5751 39.7953 15.4286 39.722C14.3444 39.1946 13.8608 38.2861 14.022 37.114C14.2418 35.5169 15.0037 34.125 15.7363 32.733C15.8975 32.44 16.0293 32.4107 16.2491 32.7037C17.1429 33.9198 18.022 35.1506 18.4616 36.6158C18.9451 38.2568 18.3443 39.3704 16.7033 39.8686C16.6447 39.8832 16.6008 39.9565 16.5422 40.0004C16.3224 40.0004 16.0733 40.0004 15.8242 40.0004Z" fill="#F9B631"/>
<path d="M23.7363 0.0146484C23.7949 0.190473 23.9707 0.161169 24.088 0.205125C25.392 0.717945 25.9048 1.81684 25.5971 3.36996C25.3773 4.46886 24.425 6.57875 23.663 7.60439C22.6081 6.21245 21.5825 4.83516 21.1429 3.15018C20.7766 1.71428 21.3773 0.703292 22.7839 0.175819C22.8718 0.146515 22.9304 0.0732565 23.0037 0.0146484C23.2528 0.0146484 23.5019 0.0146484 23.7363 0.0146484Z" fill="#F9B631"/>
<path d="M9.89007 2.78414C10.652 2.75484 11.2674 3.06253 11.7362 3.64861C12.8205 4.96729 13.2893 6.54971 13.7436 8.14678C13.8315 8.45447 13.6996 8.54238 13.4066 8.49843C11.7655 8.24934 10.1245 7.98561 8.68861 7.07718C7.73623 6.47645 7.36993 5.3922 7.67762 4.41052C8.01461 3.41418 8.86443 2.78414 9.89007 2.78414Z" fill="#F9B631"/>
<path d="M2.60803 10.0511C2.62268 9.05478 3.22342 8.20496 4.16115 7.88262C5.11353 7.54562 6.16847 7.85331 6.7692 8.67383C7.64832 9.84599 7.91206 11.2379 8.1758 12.6299C8.43953 14.0511 8.39558 14.0658 7.00364 13.6262C5.86078 13.2746 4.74723 12.835 3.76554 12.1464C3.06224 11.6335 2.60803 10.9595 2.60803 10.0511Z" fill="#F9B631"/>
<path d="M9.96332 37.2308C8.89373 37.2162 8.10252 36.6448 7.73622 35.6777C7.41388 34.7986 7.67761 33.7144 8.48347 33.1136C9.96333 32.0147 11.7362 31.7656 13.5091 31.5165C13.8168 31.4726 13.8315 31.6484 13.7728 31.8682C13.3333 33.4067 12.8644 34.9598 11.8534 36.2491C11.3553 36.8938 10.7252 37.2748 9.96332 37.2308Z" fill="#F9B631"/>
<path d="M23.7509 39.868C23.5018 39.868 23.2527 39.868 23.0036 39.868C21.4212 39.4431 20.7179 38.2124 21.2161 36.6153C21.7143 35.0329 22.652 33.7142 23.7216 32.3369C24.6447 33.934 25.5091 35.4578 25.6703 37.26C25.7729 38.6812 25.1282 39.5017 23.7509 39.868Z" fill="#F9B631"/>
<path d="M5.01096 32.2487C3.92671 32.2341 3.06224 31.604 2.72524 30.681C2.4029 29.7579 2.69594 28.7469 3.5311 28.0582C4.41022 27.3256 5.45052 26.9154 6.50547 26.5491C7.07689 26.344 7.8681 25.8458 8.20509 26.1535C8.61535 26.5198 8.17579 27.3256 8.05857 27.941C7.83879 29.0692 7.54576 30.1681 6.90107 31.1498C6.4322 31.8824 5.75821 32.2341 5.01096 32.2487Z" fill="#F9B631"/>
<path d="M0 24.0439C0 23.7069 0 23.3553 0 23.0183C0.571429 21.4945 1.69963 20.9231 3.2381 21.3919C4.7033 21.8461 5.94872 22.696 7.16484 23.619C7.36997 23.7802 7.51648 23.9121 7.17949 24.0879C5.78755 24.8498 4.3956 25.641 2.78388 25.8168C1.30403 25.978 0.51282 25.4505 0 24.0439Z" fill="#F9B631"/>
<path d="M0.0146484 17.0109C0.0146484 16.6739 0.0146484 16.3223 0.0146484 15.9853C0.586077 14.4321 1.61172 13.89 3.31135 14.2856C4.67399 14.5933 5.91941 15.238 7.13553 15.912C7.41392 16.0585 7.50183 16.1904 7.19414 16.4248C5.97802 17.3332 4.74725 18.1977 3.2674 18.6519C1.71428 19.1061 0.586077 18.5201 0.0146484 17.0109Z" fill="#F9B631"/>
<path d="M10.3443 9.69922C11.4432 9.80178 12.5275 9.93365 13.4945 10.5051C14.4029 11.0326 14.9011 11.9996 14.7692 12.9373C14.6374 13.8604 13.8755 14.6516 12.9084 14.8714C11.9561 15.0912 11.0037 14.6809 10.4176 13.7578C9.7143 12.6443 9.59708 11.3842 9.55312 10.1241C9.53847 9.46479 10.0659 9.80178 10.3443 9.69922Z" fill="#F9B631"/>
<path d="M10.1539 30.3296C9.67037 30.4468 9.47989 30.1537 9.55315 29.5091C9.68502 28.249 9.80223 26.9743 10.652 25.9486C11.326 25.1134 12.3663 24.8644 13.348 25.26C14.2564 25.6409 14.8718 26.5933 14.7839 27.575C14.7107 28.3808 14.2857 28.9816 13.6264 29.4211C12.6154 30.0805 11.4872 30.183 10.1539 30.3296Z" fill="#F9B631"/>
<path d="M22.1539 9.40628C22.1686 10.8715 20.9964 11.9557 19.6631 11.8678C18.359 11.7799 17.3774 10.5931 17.5385 9.31837C17.729 7.83852 18.5642 6.72496 19.5752 5.71398C19.7363 5.5528 19.8682 5.4942 20.0587 5.68467C21.1576 6.76892 22.0513 7.95573 22.1539 9.40628Z" fill="#F9B631"/>
<path d="M22.1539 30.6369C22.0367 32.0728 21.1576 33.2449 20.088 34.3145C19.9121 34.4904 19.751 34.4611 19.5898 34.2852C18.5935 33.2889 17.7583 32.19 17.5678 30.7394C17.392 29.4061 18.3737 28.2193 19.7217 28.146C21.0403 28.0728 22.1832 29.1717 22.1539 30.6369Z" fill="#F9B631"/>
<path d="M9.30405 22.3151C7.70698 22.1978 6.57878 21.2308 5.49453 20.2052C5.3187 20.044 5.39197 19.9121 5.53849 19.7803C6.43226 18.9011 7.39929 18.1099 8.64471 17.7876C10.0367 17.4359 11.2088 18.0806 11.6191 19.3553C11.9707 20.4396 11.3993 21.6411 10.315 22.1392C9.9927 22.2857 9.6557 22.3004 9.30405 22.3151Z" fill="#F9B631"/>
<path d="M61.0144 67.7791V80.1225L66.9283 82.5839V64.5444C65.0706 65.8185 63.0893 66.9022 61.0144 67.7791ZM29.0717 64.5444V82.4608L34.9856 79.9994V67.7791C32.9107 66.9022 30.9294 65.8185 29.0717 64.5444ZM47.9999 70.405C45.2074 70.4066 42.4255 70.059 39.7192 69.3705V88L47.9999 84.5536L56.2807 87.9998V69.3705C53.5743 70.059 50.7925 70.4065 47.9999 70.405ZM47.9999 8C32.1 8 19.1644 20.9356 19.1644 36.8357C19.1644 52.7359 32.1 65.6713 47.9999 65.6713C63.8999 65.6713 76.8357 52.7357 76.8357 36.8356C76.8357 20.9354 63.9001 8 47.9999 8ZM47.9999 59.578C35.3948 59.578 25.1397 49.3229 25.1397 36.7178C25.1397 24.1125 35.3948 13.8573 47.9999 13.8573C60.6051 13.8573 70.8602 24.1125 70.8602 36.7178C70.8602 49.323 60.6052 59.578 47.9999 59.578ZM47.9999 18.5909C38.005 18.5909 29.8733 26.7225 29.8733 36.7178C29.8733 46.7131 38.005 54.8443 47.9999 54.8443C57.9949 54.8443 66.1266 46.7127 66.1266 36.7176C66.1266 26.7225 57.9951 18.5909 47.9999 18.5909ZM55.4501 47.2968L47.9999 43.3801L40.55 47.2968L41.9728 39.0012L35.9456 33.1262L44.2751 31.9157L47.9999 24.3679L51.7249 31.9157L60.0544 33.1262L54.0273 39.0012L55.4501 47.2968Z" fill="#EA212D"/>
</g>
<defs>
<clipPath id="clip0_535_3454">
<rect width="96" height="96" fill="white"/>
</clipPath>
</defs>
</svg>
