<svg width="96" height="96" viewBox="0 0 96 96" fill="none" xmlns="http://www.w3.org/2000/svg">
<g clip-path="url(#clip0_535_8180)">
<path d="M87.7414 87.0946C76.9491 95.3261 63.2002 96.5604 48.9686 95.8145C46.6291 95.6919 45.8183 94.3788 46.0332 92.1419C46.728 78.8851 49.1569 66.1101 58.1121 55.632C66.3389 45.9955 80.837 45.3869 89.8478 54.3629C98.6739 63.1337 98.1847 78.063 87.7414 87.0946Z" fill="#FDE9EA"/>
<path d="M16.7033 0.0146529C16.8205 0.249085 17.0696 0.205128 17.2601 0.29304C18.3297 0.805861 18.8425 1.86081 18.5348 3.09158C18.1392 4.71795 17.1575 6.02198 16.2052 7.34066C15.9854 7.6337 15.8535 7.50183 15.7363 7.28205C15.0037 5.93407 14.2711 4.58608 14.0367 3.04762C13.8169 1.58242 14.359 0.673994 15.751 0.161173C15.8389 0.131869 15.8975 0.0586081 15.9707 0C16.2198 0.014652 16.4689 0.0146529 16.7033 0.0146529Z" fill="#F9B631"/>
<path d="M15.8242 40.0004C15.7656 39.7953 15.5751 39.7953 15.4286 39.722C14.3444 39.1946 13.8608 38.2861 14.022 37.114C14.2418 35.5169 15.0037 34.125 15.7363 32.733C15.8975 32.44 16.0293 32.4107 16.2491 32.7037C17.1429 33.9198 18.022 35.1506 18.4616 36.6158C18.9451 38.2568 18.3443 39.3704 16.7033 39.8686C16.6447 39.8832 16.6008 39.9565 16.5422 40.0004C16.3224 40.0004 16.0733 40.0004 15.8242 40.0004Z" fill="#F9B631"/>
<path d="M23.7363 0.0146484C23.7949 0.190473 23.9707 0.161169 24.088 0.205125C25.392 0.717945 25.9048 1.81684 25.5971 3.36996C25.3773 4.46886 24.425 6.57875 23.663 7.60439C22.6081 6.21245 21.5825 4.83516 21.1429 3.15018C20.7766 1.71428 21.3773 0.703292 22.7839 0.175819C22.8718 0.146515 22.9304 0.0732565 23.0037 0.0146484C23.2528 0.0146484 23.5019 0.0146484 23.7363 0.0146484Z" fill="#F9B631"/>
<path d="M9.89004 2.78414C10.6519 2.75484 11.2673 3.06253 11.7362 3.64861C12.8204 4.96729 13.2893 6.54971 13.7435 8.14678C13.8314 8.45447 13.6996 8.54238 13.4065 8.49843C11.7655 8.24934 10.1245 7.98561 8.68858 7.07718C7.7362 6.47645 7.3699 5.3922 7.67759 4.41052C8.01458 3.41418 8.8644 2.78414 9.89004 2.78414Z" fill="#F9B631"/>
<path d="M2.60803 10.0511C2.62268 9.05478 3.22342 8.20496 4.16115 7.88262C5.11353 7.54562 6.16847 7.85331 6.7692 8.67383C7.64832 9.84599 7.91206 11.2379 8.1758 12.6299C8.43953 14.0511 8.39558 14.0658 7.00364 13.6262C5.86078 13.2746 4.74723 12.835 3.76554 12.1464C3.06224 11.6335 2.60803 10.9595 2.60803 10.0511Z" fill="#F9B631"/>
<path d="M9.96329 37.2308C8.8937 37.2162 8.10249 36.6448 7.73619 35.6777C7.41385 34.7986 7.67758 33.7144 8.48344 33.1136C9.9633 32.0147 11.7362 31.7656 13.5091 31.5165C13.8168 31.4726 13.8314 31.6484 13.7728 31.8682C13.3333 33.4067 12.8644 34.9598 11.8534 36.2491C11.3552 36.8938 10.7252 37.2748 9.96329 37.2308Z" fill="#F9B631"/>
<path d="M23.7508 39.868C23.5017 39.868 23.2527 39.868 23.0036 39.868C21.4211 39.4431 20.7179 38.2124 21.216 36.6153C21.7142 35.0329 22.6519 33.7142 23.7215 32.3369C24.6446 33.934 25.5091 35.4578 25.6702 37.26C25.7728 38.6812 25.1281 39.5017 23.7508 39.868Z" fill="#F9B631"/>
<path d="M5.01099 32.2487C3.92674 32.2341 3.06227 31.604 2.72527 30.681C2.40293 29.7579 2.69597 28.7469 3.53113 28.0582C4.41025 27.3256 5.45055 26.9154 6.5055 26.5491C7.07692 26.344 7.86813 25.8458 8.20513 26.1535C8.61538 26.5198 8.17582 27.3256 8.05861 27.941C7.83883 29.0692 7.54579 30.1681 6.9011 31.1498C6.43223 31.8824 5.75824 32.2341 5.01099 32.2487Z" fill="#F9B631"/>
<path d="M0 24.0439C0 23.7069 0 23.3553 0 23.0183C0.571429 21.4945 1.69963 20.9231 3.2381 21.3919C4.7033 21.8461 5.94872 22.696 7.16484 23.619C7.36997 23.7802 7.51648 23.9121 7.17949 24.0879C5.78755 24.8498 4.3956 25.641 2.78388 25.8168C1.30403 25.978 0.51282 25.4505 0 24.0439Z" fill="#F9B631"/>
<path d="M0.0146484 17.0109C0.0146484 16.6739 0.0146484 16.3223 0.0146484 15.9853C0.586077 14.4321 1.61172 13.89 3.31135 14.2856C4.67399 14.5933 5.91941 15.238 7.13553 15.912C7.41392 16.0585 7.50183 16.1904 7.19414 16.4248C5.97802 17.3332 4.74725 18.1977 3.2674 18.6519C1.71428 19.1061 0.586077 18.5201 0.0146484 17.0109Z" fill="#F9B631"/>
<path d="M10.3444 9.69922C11.4433 9.80178 12.5275 9.93365 13.4945 10.5051C14.403 11.0326 14.9011 11.9996 14.7693 12.9373C14.6374 13.8604 13.8755 14.6516 12.9085 14.8714C11.9561 15.0912 11.0037 14.6809 10.4176 13.7578C9.71433 12.6443 9.59711 11.3842 9.55316 10.1241C9.5385 9.46479 10.066 9.80178 10.3444 9.69922Z" fill="#F9B631"/>
<path d="M10.1539 30.3296C9.67037 30.4468 9.47989 30.1537 9.55315 29.5091C9.68502 28.249 9.80223 26.9743 10.652 25.9486C11.326 25.1134 12.3663 24.8644 13.348 25.26C14.2564 25.6409 14.8718 26.5933 14.7839 27.575C14.7107 28.3808 14.2857 28.9816 13.6264 29.4211C12.6154 30.0805 11.4872 30.183 10.1539 30.3296Z" fill="#F9B631"/>
<path d="M22.1538 9.40628C22.1685 10.8715 20.9963 11.9557 19.663 11.8678C18.359 11.7799 17.3773 10.5931 17.5385 9.31837C17.7289 7.83852 18.5641 6.72496 19.5751 5.71398C19.7363 5.5528 19.8681 5.4942 20.0586 5.68467C21.1575 6.76892 22.0513 7.95573 22.1538 9.40628Z" fill="#F9B631"/>
<path d="M22.1538 30.6369C22.0366 32.0728 21.1575 33.2449 20.0879 34.3145C19.9121 34.4904 19.7509 34.4611 19.5897 34.2852C18.5934 33.2889 17.7582 32.19 17.5678 30.7394C17.3919 29.4061 18.3736 28.2193 19.7216 28.146C21.0403 28.0728 22.1831 29.1717 22.1538 30.6369Z" fill="#F9B631"/>
<path d="M9.30402 22.3151C7.70695 22.1978 6.57875 21.2308 5.4945 20.2052C5.31867 20.044 5.39194 19.9121 5.53846 19.7803C6.43223 18.9011 7.39926 18.1099 8.64468 17.7876C10.0366 17.4359 11.2088 18.0806 11.619 19.3553C11.9707 20.4396 11.3993 21.6411 10.315 22.1392C9.99267 22.2857 9.65567 22.3004 9.30402 22.3151Z" fill="#F9B631"/>
<g clip-path="url(#clip1_535_8180)">
<path fill-rule="evenodd" clip-rule="evenodd" d="M41.0425 9.91776L37.1482 20.601C36.7269 21.8026 35.6096 22.6196 34.3346 22.6562L22.9593 23.0592C22.5892 23.0702 22.2705 23.3157 22.1569 23.6674C22.047 24.0191 22.1679 24.4037 22.461 24.6235L31.4184 31.6283V31.6319C32.4331 32.4013 32.8655 33.7202 32.5065 34.94L29.3558 45.8756C29.2789 46.2236 29.4181 46.5863 29.7075 46.7914C30.0006 46.9966 30.3853 47.0039 30.6857 46.8134L40.1225 40.4938C41.1703 39.7721 42.5588 39.7721 43.6103 40.4938L53.0442 46.8537C53.3483 47.0442 53.733 47.0332 54.0261 46.828C54.3155 46.6228 54.4547 46.2638 54.3778 45.9158L51.2344 34.9399C50.8754 33.72 51.3077 32.4011 52.3226 31.6318L61.2799 24.6271V24.6234C61.573 24.4036 61.6939 24.0189 61.584 23.6673C61.4741 23.3156 61.1517 23.0701 60.7817 23.0591L49.4063 22.6744C48.135 22.6378 47.014 21.8208 46.5927 20.6192L42.691 9.91816C42.5628 9.57745 42.2331 9.34664 41.8667 9.34664C41.5003 9.34664 41.1707 9.57705 41.0425 9.91776ZM64.0643 77.9533L77.608 64.4096L59.7886 54.0931C57.6637 52.8182 55.0626 52.6131 52.7656 53.5399L47.6073 55.5475C47.4791 55.5915 47.3472 55.6134 47.2116 55.6134H34.9172C33.155 55.705 31.7738 57.1631 31.7738 58.929C31.7738 60.6911 33.155 62.1492 34.9172 62.2445H51.8541C52.4769 62.2445 52.9788 62.7464 52.9788 63.3692C52.9788 63.992 52.4768 64.4939 51.8541 64.4939H34.9172C33.0854 64.4902 31.3709 63.589 30.3341 62.0797C29.2973 60.5703 29.0665 58.6469 29.7223 56.936L14.7164 49.565C12.5696 48.3926 9.88428 49.096 8.59105 51.1659C7.37108 53.298 8.10014 56.0128 10.2213 57.2437L36.9505 72.6819C38.5954 73.6528 40.4272 74.2536 42.3249 74.4441L58.4009 76.2063C60.4012 76.4041 62.3428 76.9976 64.1123 77.9538L64.0643 77.9533ZM80.9459 64.2521V64.2484C81.5174 63.6879 82.4332 63.6879 83.0011 64.2484L87.5769 68.8241V68.8278C88.1411 69.3957 88.1411 70.3115 87.5769 70.8794L70.9776 87.5012C70.4097 88.0617 69.4939 88.0617 68.9224 87.5012L64.3356 82.9145H64.3393C63.7751 82.3429 63.7751 81.4307 64.3393 80.8592L80.9573 64.2487L80.9459 64.2521ZM35.5438 18.4542L35.0382 19.861C34.9247 20.2017 34.6096 20.4325 34.2506 20.4325L22.8827 20.7989C21.5419 20.8062 20.3549 21.6745 19.9409 22.9531C19.5269 24.2317 19.9812 25.6311 21.0656 26.4261L30.0303 33.4308C30.3197 33.6506 30.4406 34.0243 30.3307 34.3687L30.001 35.5227L25.755 32.6175C24.6999 31.8921 23.3114 31.8921 22.2563 32.6175L15.5776 37.1273C15.2772 37.3288 14.8852 37.3251 14.5885 37.1163C14.2954 36.9075 14.1598 36.5411 14.2478 36.1894L16.4715 28.4411H16.4679C16.8269 27.2174 16.3946 25.8986 15.3798 25.1219L9.03089 20.1248C8.7378 19.9014 8.6169 19.5167 8.72681 19.165C8.84038 18.8133 9.15911 18.5715 9.52913 18.5569L17.5852 18.2748C18.8565 18.2345 19.9702 17.4212 20.3988 16.2232L23.1574 8.65435C23.282 8.30632 23.6081 8.07551 23.9781 8.07551C24.3444 8.07551 24.6741 8.30631 24.7987 8.65435L27.5573 16.2232H27.5537C27.9786 17.4248 29.096 18.2381 30.3673 18.2748L35.4963 18.4543L35.5438 18.4542ZM53.73 35.4858L53.4002 34.3318H53.4039C53.294 33.9874 53.4149 33.6101 53.7043 33.3939L62.669 26.4259C63.7534 25.6309 64.2077 24.2315 63.7937 22.9529C63.3797 21.6743 62.1927 20.806 60.8482 20.7987L49.4841 20.414C49.1251 20.414 48.8064 20.1832 48.6964 19.8425L48.1909 18.454L53.3199 18.2745C54.5912 18.2378 55.7085 17.4245 56.1335 16.2229L58.8921 8.65404H58.8885C59.013 8.306 59.3427 8.0752 59.7091 8.0752C60.0791 8.0752 60.4052 8.30599 60.5297 8.65404L63.2884 16.2229C63.7133 17.4208 64.8307 18.2378 66.1019 18.2745L74.158 18.5566C74.5207 18.5785 74.8358 18.8203 74.9494 19.1647C75.0629 19.5127 74.9494 19.8938 74.6636 20.1245L68.3037 25.085H68.3074C67.2963 25.8653 66.8676 27.1806 67.2267 28.4042L69.4505 36.1525C69.5384 36.5006 69.4029 36.8706 69.1061 37.0794C68.8094 37.2846 68.4174 37.2919 68.1169 37.0904L61.4786 32.6173C60.4235 31.8919 59.035 31.8919 57.9799 32.6173L53.73 35.4858Z" fill="#EA212D"/>
</g>
</g>
<defs>
<clipPath id="clip0_535_8180">
<rect width="96" height="96" fill="white"/>
</clipPath>
<clipPath id="clip1_535_8180">
<rect width="80" height="80" fill="white" transform="translate(8 8)"/>
</clipPath>
</defs>
</svg>
