<svg width="96" height="96" viewBox="0 0 96 96" fill="none" xmlns="http://www.w3.org/2000/svg">
<g clip-path="url(#clip0_535_1137)">
<path d="M87.7414 87.0946C76.9491 95.3261 63.2002 96.5604 48.9686 95.8145C46.6291 95.6919 45.8183 94.3788 46.0332 92.1419C46.728 78.8851 49.1569 66.1101 58.1121 55.632C66.3389 45.9955 80.837 45.3869 89.8478 54.3629C98.6739 63.1337 98.1847 78.063 87.7414 87.0946Z" fill="#FDE9EA"/>
<path d="M16.7033 0.0146529C16.8205 0.249085 17.0696 0.205128 17.2601 0.29304C18.3297 0.805861 18.8425 1.86081 18.5348 3.09158C18.1392 4.71795 17.1575 6.02198 16.2052 7.34066C15.9854 7.6337 15.8535 7.50183 15.7363 7.28205C15.0037 5.93407 14.2711 4.58608 14.0367 3.04762C13.8169 1.58242 14.359 0.673994 15.751 0.161173C15.8389 0.131869 15.8975 0.0586081 15.9707 0C16.2198 0.014652 16.4689 0.0146529 16.7033 0.0146529Z" fill="#F9B631"/>
<path d="M15.8242 40.0004C15.7656 39.7953 15.5751 39.7953 15.4286 39.722C14.3444 39.1946 13.8608 38.2861 14.022 37.114C14.2418 35.5169 15.0037 34.125 15.7363 32.733C15.8975 32.44 16.0293 32.4107 16.2491 32.7037C17.1429 33.9198 18.022 35.1506 18.4616 36.6158C18.9451 38.2568 18.3443 39.3704 16.7033 39.8686C16.6447 39.8832 16.6008 39.9565 16.5422 40.0004C16.3224 40.0004 16.0733 40.0004 15.8242 40.0004Z" fill="#F9B631"/>
<path d="M23.7363 0.0146484C23.7949 0.190473 23.9707 0.161169 24.088 0.205125C25.392 0.717945 25.9048 1.81684 25.5971 3.36996C25.3773 4.46886 24.425 6.57875 23.663 7.60439C22.6081 6.21245 21.5825 4.83516 21.1429 3.15018C20.7766 1.71428 21.3773 0.703292 22.7839 0.175819C22.8718 0.146515 22.9304 0.0732565 23.0037 0.0146484C23.2528 0.0146484 23.5019 0.0146484 23.7363 0.0146484Z" fill="#F9B631"/>
<path d="M9.8901 2.78414C10.652 2.75484 11.2674 3.06253 11.7363 3.64861C12.8205 4.96729 13.2894 6.54971 13.7436 8.14678C13.8315 8.45447 13.6996 8.54238 13.4066 8.49843C11.7656 8.24934 10.1245 7.98561 8.68864 7.07718C7.73626 6.47645 7.36996 5.3922 7.67765 4.41052C8.01465 3.41418 8.86446 2.78414 9.8901 2.78414Z" fill="#F9B631"/>
<path d="M2.60803 10.0511C2.62268 9.05478 3.22342 8.20496 4.16115 7.88262C5.11353 7.54562 6.16847 7.85331 6.7692 8.67383C7.64832 9.84599 7.91206 11.2379 8.1758 12.6299C8.43953 14.0511 8.39558 14.0658 7.00364 13.6262C5.86078 13.2746 4.74723 12.835 3.76554 12.1464C3.06224 11.6335 2.60803 10.9595 2.60803 10.0511Z" fill="#F9B631"/>
<path d="M9.96336 37.2308C8.89376 37.2162 8.10255 36.6448 7.73625 35.6777C7.41391 34.7986 7.67764 33.7144 8.48351 33.1136C9.96336 32.0147 11.7363 31.7656 13.5091 31.5165C13.8168 31.4726 13.8315 31.6484 13.7729 31.8682C13.3333 33.4067 12.8645 34.9598 11.8535 36.2491C11.3553 36.8938 10.7253 37.2748 9.96336 37.2308Z" fill="#F9B631"/>
<path d="M23.7509 39.868C23.5018 39.868 23.2527 39.868 23.0036 39.868C21.4212 39.4431 20.7179 38.2124 21.2161 36.6153C21.7143 35.0329 22.652 33.7142 23.7216 32.3369C24.6447 33.934 25.5091 35.4578 25.6703 37.26C25.7729 38.6812 25.1282 39.5017 23.7509 39.868Z" fill="#F9B631"/>
<path d="M5.01093 32.2487C3.92668 32.2341 3.06221 31.604 2.72521 30.681C2.40287 29.7579 2.69591 28.7469 3.53107 28.0582C4.41019 27.3256 5.45049 26.9154 6.50543 26.5491C7.07686 26.344 7.86807 25.8458 8.20506 26.1535C8.61532 26.5198 8.17576 27.3256 8.05854 27.941C7.83876 29.0692 7.54572 30.1681 6.90104 31.1498C6.43217 31.8824 5.75818 32.2341 5.01093 32.2487Z" fill="#F9B631"/>
<path d="M0 24.0439C0 23.7069 0 23.3553 0 23.0183C0.571429 21.4945 1.69963 20.9231 3.2381 21.3919C4.7033 21.8461 5.94872 22.696 7.16484 23.619C7.36997 23.7802 7.51648 23.9121 7.17949 24.0879C5.78755 24.8498 4.3956 25.641 2.78388 25.8168C1.30403 25.978 0.51282 25.4505 0 24.0439Z" fill="#F9B631"/>
<path d="M0.0146484 17.0109C0.0146484 16.6739 0.0146484 16.3223 0.0146484 15.9853C0.586077 14.4321 1.61172 13.89 3.31135 14.2856C4.67399 14.5933 5.91941 15.238 7.13553 15.912C7.41392 16.0585 7.50183 16.1904 7.19414 16.4248C5.97802 17.3332 4.74725 18.1977 3.2674 18.6519C1.71428 19.1061 0.586077 18.5201 0.0146484 17.0109Z" fill="#F9B631"/>
<path d="M10.3443 9.69922C11.4432 9.80178 12.5275 9.93365 13.4945 10.5051C14.4029 11.0326 14.9011 11.9996 14.7692 12.9373C14.6373 13.8604 13.8754 14.6516 12.9084 14.8714C11.956 15.0912 11.0036 14.6809 10.4176 13.7578C9.71427 12.6443 9.59705 11.3842 9.55309 10.1241C9.53844 9.46479 10.0659 9.80178 10.3443 9.69922Z" fill="#F9B631"/>
<path d="M10.1539 30.3296C9.67037 30.4468 9.47989 30.1537 9.55315 29.5091C9.68502 28.249 9.80223 26.9743 10.652 25.9486C11.326 25.1134 12.3663 24.8644 13.348 25.26C14.2564 25.6409 14.8718 26.5933 14.7839 27.575C14.7107 28.3808 14.2857 28.9816 13.6264 29.4211C12.6154 30.0805 11.4872 30.183 10.1539 30.3296Z" fill="#F9B631"/>
<path d="M22.1539 9.40628C22.1686 10.8715 20.9964 11.9557 19.6631 11.8678C18.359 11.7799 17.3774 10.5931 17.5385 9.31837C17.729 7.83852 18.5642 6.72496 19.5752 5.71398C19.7363 5.5528 19.8682 5.4942 20.0587 5.68467C21.1576 6.76892 22.0513 7.95573 22.1539 9.40628Z" fill="#F9B631"/>
<path d="M22.1539 30.6369C22.0367 32.0728 21.1576 33.2449 20.088 34.3145C19.9121 34.4904 19.751 34.4611 19.5898 34.2852C18.5935 33.2889 17.7583 32.19 17.5678 30.7394C17.392 29.4061 18.3737 28.2193 19.7217 28.146C21.0403 28.0728 22.1832 29.1717 22.1539 30.6369Z" fill="#F9B631"/>
<path d="M9.30402 22.3151C7.70695 22.1978 6.57875 21.2308 5.4945 20.2052C5.31867 20.044 5.39194 19.9121 5.53846 19.7803C6.43223 18.9011 7.39926 18.1099 8.64468 17.7876C10.0366 17.4359 11.2088 18.0806 11.619 19.3553C11.9707 20.4396 11.3993 21.6411 10.315 22.1392C9.99267 22.2857 9.65567 22.3004 9.30402 22.3151Z" fill="#F9B631"/>
<path d="M39.7983 75.6393L40.785 79.1361C42.7758 86.1471 53.197 86.1471 55.1877 79.1361L56.1744 75.6393H39.7983ZM60.485 64.9237H35.4881C33.3069 64.9237 32.5625 66.0316 32.7183 67.7454C32.9607 70.2209 35.1938 73.5619 37.375 73.5619H58.5811C61.2297 73.5619 64.0167 68.5936 63.0646 66.2047C62.7703 65.4431 61.9737 64.9237 60.485 64.9237ZM36.752 62.8464H59.2388C61.5238 49.8281 71.4948 50.7286 71.4948 35.1143C71.4948 22.1315 60.9698 11.6064 48.0038 11.6064C35.021 11.6064 24.4959 22.1315 24.4959 35.1143C24.4959 50.6772 34.4848 49.673 36.752 62.8464ZM15.3385 36.1354L20.5664 36.17C21.1376 36.17 21.605 36.6374 21.605 37.2087C21.605 37.7799 21.1376 38.2473 20.5664 38.2473L15.4077 38.23C14.698 41.0344 11.1839 42.0211 9.10651 39.9611C6.73489 37.5895 8.43138 33.5387 11.7724 33.5387C13.4169 33.5041 14.8538 34.5947 15.3385 36.1354ZM76.8961 60.0766L71.6508 60.042C71.3565 60.042 71.0969 59.9208 70.9065 59.7304L66.6133 55.2642C66.2151 54.8487 66.2325 54.1909 66.6479 53.7927C67.0634 53.3945 67.7212 53.4118 68.102 53.8273L72.1008 57.9647L76.8441 57.9993C77.5538 55.1949 81.0853 54.2082 83.1453 56.2682C85.4995 58.6224 83.8204 62.6733 80.4794 62.6733C78.8348 62.6906 77.3981 61.6 76.8961 60.0766ZM76.8441 16.5397L72.1009 16.5743L70.2487 18.4612C69.8505 18.8767 69.1927 18.8767 68.7946 18.4785C68.3791 18.0804 68.3791 17.4226 68.7773 17.0071L70.9238 14.8085C71.1143 14.6181 71.3739 14.4969 71.6682 14.4969L76.9135 14.4623C77.7444 11.8137 81.1373 10.9482 83.1453 12.9563C85.4996 15.3105 83.8205 19.3786 80.4795 19.3786C78.7484 19.3786 77.2596 18.1842 76.8441 16.5397ZM19.0773 14.4797L24.3226 14.5143C24.5996 14.5143 24.8592 14.6355 25.0496 14.8259L27.2135 17.0071C27.6117 17.4225 27.6117 18.0803 27.1962 18.4785C26.7807 18.8768 26.123 18.8767 25.7421 18.4612L23.8899 16.5744L19.1466 16.5397C18.4369 19.3441 14.9228 20.3308 12.8454 18.2708C10.4738 15.9166 12.1703 11.8484 15.5113 11.8484C17.1559 11.8484 18.5927 12.939 19.0773 14.4797ZM19.1293 57.9998L23.8551 57.9652L27.802 53.6894C28.1829 53.2739 28.8407 53.2393 29.2561 53.6375C29.6716 54.0183 29.7062 54.6761 29.308 55.0916L25.0842 59.6616C24.8938 59.8867 24.6168 60.0251 24.3052 60.0251L19.06 60.0598C18.2117 62.7256 14.8187 63.5738 12.8107 61.5832C10.4391 59.2116 12.1356 55.1608 15.4766 55.1608C17.2423 55.1608 18.7138 56.3553 19.1293 57.9998ZM80.5654 38.1959L75.4241 38.2132C74.8528 38.2132 74.3854 37.7631 74.3854 37.1745C74.3854 36.6032 74.8355 36.1358 75.4241 36.1358L80.6519 36.1185C81.5002 33.4526 84.8932 32.6044 86.9012 34.5951C89.2555 36.9667 87.5763 41.0175 84.2353 41.0175C82.4869 41.0348 80.9982 39.8404 80.5654 38.1959ZM52.8334 32.6217L48.0036 25.0222L38.4651 39.9789H43.139C43.7102 39.9789 44.1777 40.4463 44.1777 41.0176V50.3824H51.8291V41.0176C51.8291 40.4463 52.2965 39.9789 52.8678 39.9789H57.5417L52.8334 32.6217ZM48.8691 22.5638L60.277 40.463C60.727 41.1554 60.2077 42.0556 59.4114 42.0556H53.8892V51.4205C53.8892 51.9917 53.4218 52.4592 52.8505 52.4592H43.1214C42.5501 52.4592 42.0827 51.9918 42.0827 51.4205V42.0556H36.5605C35.7815 42.0556 35.1756 41.1728 35.7469 40.3765L47.1201 22.5464C47.5356 21.9059 48.4709 21.9233 48.8691 22.5638Z" fill="#EA212D"/>
</g>
<defs>
<clipPath id="clip0_535_1137">
<rect width="96" height="96" fill="white"/>
</clipPath>
</defs>
</svg>
