<svg width="59" height="43" viewBox="0 0 59 43" fill="none" xmlns="http://www.w3.org/2000/svg">
<path d="M24.9 20.6C26.7667 23 27.7 25.7333 27.7 28.8C27.7 32.5333 26.3667 35.7333 23.7 38.4C21.1667 41.0667 18.0333 42.4 14.3 42.4C10.5667 42.4 7.36667 41.0667 4.7 38.4C2.16667 35.7333 0.900001 32.5333 0.900001 28.8C0.900001 23.2 2.63333 18.0667 6.1 13.4C9.56667 8.6 14.1 4.4 19.7 0.799997L24.1 4.6C22.5 6.06666 21.0333 7.86666 19.7 10C18.5 12 17.7667 13.9333 17.5 15.8C20.5667 16.6 23.0333 18.2 24.9 20.6ZM55.4313 20.6C57.2979 23 58.2313 25.7333 58.2313 28.8C58.2313 32.5333 56.8979 35.7333 54.2313 38.4C51.6979 41.0667 48.5646 42.4 44.8313 42.4C41.0979 42.4 37.8979 41.0667 35.2313 38.4C32.6979 35.7333 31.4313 32.5333 31.4313 28.8C31.4313 23.2 33.1646 18.0667 36.6313 13.4C40.0979 8.6 44.6313 4.4 50.2313 0.799997L54.6313 4.6C53.0313 6.06666 51.5646 7.86666 50.2313 10C49.0313 12 48.2979 13.9333 48.0313 15.8C51.0979 16.6 53.5646 18.2 55.4313 20.6Z" fill="#DEDEDE"/>
</svg>
