    <svg width="320" height="320" viewBox="0 0 320 320" fill="none" xmlns="http://www.w3.org/2000/svg">
                <path d="M80.1467 249.114C124.249 270.131 195.75 270.138 239.852 249.114C283.955 228.09 283.948 194.016 239.852 172.998C195.756 151.981 124.249 151.981 80.1467 172.998C36.0443 194.016 36.0507 228.096 80.1467 249.114Z" fill="#F5F5F5" />
                <path d="M239.699 233.581C247.822 233.581 254.407 230.443 254.407 226.573C254.407 222.702 247.822 219.565 239.699 219.565C231.577 219.565 224.992 222.702 224.992 226.573C224.992 230.443 231.577 233.581 239.699 233.581Z" fill="#EBEBEB" />
                <path d="M76.8008 227.578L82.004 224.576C84.9091 222.205 87.1202 219.094 88.404 215.571C90.0104 211.142 89.7864 207.776 88.6344 206.086C87.22 204.006 83.5528 204.371 83.4056 208.749C83.0984 217.376 80.5832 223.36 76.8008 227.578Z" fill="#EA212D" />
                <path opacity="0.2" d="M76.8008 227.578L82.004 224.576C84.9091 222.205 87.1202 219.094 88.404 215.571C90.0104 211.142 89.7864 207.776 88.6344 206.086C87.22 204.006 83.5528 204.371 83.4056 208.749C83.0984 217.376 80.5832 223.36 76.8008 227.578Z" fill="black" />
                <path d="M76.8005 227.898C76.7327 227.897 76.667 227.874 76.6127 227.834C76.5584 227.793 76.5185 227.737 76.4985 227.672C76.4786 227.607 76.4797 227.538 76.5018 227.473C76.5239 227.409 76.5657 227.354 76.6213 227.315C88.6533 218.995 86.3237 207.392 86.298 207.277C86.2892 207.235 86.2888 207.191 86.2967 207.149C86.3046 207.107 86.3208 207.067 86.3443 207.031C86.3677 206.995 86.3981 206.964 86.4335 206.94C86.469 206.915 86.5088 206.898 86.5509 206.89C86.5929 206.881 86.6362 206.88 86.6784 206.888C86.7206 206.896 86.7609 206.912 86.7968 206.936C86.8328 206.959 86.8637 206.99 86.888 207.025C86.9122 207.061 86.9292 207.1 86.938 207.142C86.938 207.264 89.3957 219.264 77.0053 227.84C76.9451 227.881 76.8732 227.901 76.8005 227.898Z" fill="white" />
                <path d="M66.3752 233.6C66.3752 233.6 64.564 232.128 64.9992 230.131C65.4344 228.134 66.6056 226.701 64.6024 224.128C62.5992 221.555 62.0424 218.125 64.436 216.269C66.26 214.829 69.108 216.864 70.132 213.069C70.8872 210.291 70.6312 204.141 74.1704 202.093C77.7096 200.045 79.9304 203.13 79.3736 207.302C78.8872 211.034 78.196 214.624 78.7336 215.622C79.7704 217.542 81.5432 217.28 81.46 220.787C81.3896 224.051 78.2984 226.752 78.2984 226.752L66.3752 233.6Z" fill="#EA212D" />
                <path d="M72.32 230.47C72.2418 230.47 72.1664 230.441 72.1077 230.389C72.0489 230.337 72.0107 230.266 72 230.189C71.0848 222.605 73.28 209.51 75.072 205.619C75.0871 205.576 75.1112 205.537 75.1428 205.504C75.1745 205.471 75.2128 205.445 75.2552 205.428C75.2977 205.411 75.3433 205.403 75.3889 205.405C75.4346 205.407 75.4793 205.419 75.52 205.44C75.5582 205.457 75.5926 205.482 75.6211 205.513C75.6496 205.543 75.6716 205.579 75.686 205.619C75.7003 205.658 75.7066 205.7 75.7044 205.742C75.7023 205.784 75.6918 205.825 75.6736 205.862C73.9008 209.702 71.7824 222.835 72.6592 230.086C72.6682 230.17 72.6436 230.254 72.5909 230.32C72.5381 230.386 72.4615 230.429 72.3776 230.438L72.32 230.47Z" fill="white" />
                <path d="M72.1483 224.563C72.0993 224.566 72.0506 224.555 72.0075 224.531C69.7867 223.45 68.3787 219.59 68.3211 219.411C68.3054 219.371 68.2979 219.329 68.2989 219.286C68.3 219.243 68.3096 219.201 68.3272 219.162C68.3448 219.123 68.3701 219.088 68.4014 219.059C68.4328 219.03 68.4697 219.008 68.51 218.993C68.5502 218.978 68.593 218.972 68.6357 218.974C68.6784 218.977 68.7203 218.987 68.7587 219.006C68.7972 219.025 68.8315 219.051 68.8597 219.083C68.8879 219.115 68.9093 219.153 68.9227 219.194C68.9227 219.232 70.2987 222.97 72.2891 223.936C72.3544 223.968 72.407 224.021 72.4383 224.086C72.4696 224.151 72.4777 224.226 72.4614 224.296C72.445 224.367 72.4051 224.43 72.3482 224.475C72.2913 224.52 72.2209 224.544 72.1483 224.544V224.563Z" fill="white" />
                <path d="M72.1091 227.123C72.045 227.123 71.9824 227.104 71.9297 227.067C71.8771 227.03 71.8369 226.979 71.8147 226.918C71.7828 226.84 71.7831 226.753 71.8155 226.675C71.8479 226.597 71.9097 226.535 71.9875 226.502C75.7251 225.005 78.0547 220.557 78.0803 220.506C78.1193 220.43 78.1868 220.373 78.2678 220.347C78.3488 220.322 78.4368 220.329 78.5123 220.368C78.5878 220.407 78.6448 220.474 78.6706 220.556C78.6964 220.637 78.6889 220.724 78.6499 220.8C78.5475 220.992 76.1859 225.51 72.2499 227.098C72.206 227.118 72.1575 227.127 72.1091 227.123Z" fill="white" />
                <path d="M202.754 192.691C202.754 192.691 199.957 188.16 199.682 183.238C199.406 178.317 200.488 176.269 201.973 175.68C203.458 175.091 203.573 176.902 204.334 177.971C205.096 179.04 206.651 178.432 207.227 175.098C207.803 171.763 209.902 166.138 214.267 165.043C219.067 163.853 216.494 169.485 215.285 171.68C214.075 173.875 213.141 176.87 213.934 177.683C214.728 178.496 215.963 176.992 217.134 178.387C218.562 180.07 214.126 186.131 211.579 187.597L202.754 192.691Z" fill="#EA212D" />
                <path d="M206.587 190.79C206.545 190.789 206.503 190.779 206.465 190.761C206.427 190.744 206.393 190.719 206.364 190.688C206.336 190.657 206.313 190.621 206.299 190.581C206.284 190.542 206.278 190.5 206.28 190.458C206.713 182.541 209.182 174.869 213.448 168.186C213.472 168.151 213.503 168.121 213.539 168.099C213.575 168.076 213.615 168.061 213.657 168.055C213.698 168.048 213.741 168.05 213.782 168.06C213.823 168.071 213.862 168.089 213.896 168.115C213.963 168.165 214.008 168.239 214.021 168.322C214.034 168.404 214.014 168.489 213.966 168.557C209.777 175.143 207.352 182.696 206.926 190.49C206.924 190.532 206.913 190.573 206.894 190.611C206.876 190.649 206.85 190.682 206.819 190.71C206.787 190.738 206.751 190.76 206.711 190.774C206.671 190.787 206.629 190.793 206.587 190.79Z" fill="white" />
                <path d="M206.951 187.008C206.898 187.008 206.845 186.994 206.798 186.97C205.006 185.978 204.014 183.034 203.975 182.912C203.961 182.872 203.955 182.83 203.958 182.788C203.96 182.745 203.971 182.704 203.989 182.666C204.008 182.628 204.033 182.594 204.065 182.566C204.097 182.538 204.134 182.516 204.174 182.502C204.254 182.476 204.342 182.483 204.418 182.521C204.493 182.56 204.551 182.627 204.577 182.707C204.577 182.707 205.537 185.542 207.137 186.406C207.209 186.449 207.263 186.518 207.285 186.6C207.308 186.681 207.298 186.767 207.259 186.842C207.23 186.897 207.185 186.942 207.13 186.972C207.076 187.001 207.013 187.014 206.951 187.008Z" fill="white" />
                <path d="M207.265 185.069C207.194 185.068 207.125 185.044 207.069 185C207.014 184.956 206.974 184.894 206.957 184.826C206.947 184.785 206.945 184.743 206.95 184.702C206.956 184.661 206.971 184.621 206.992 184.585C207.013 184.549 207.042 184.518 207.075 184.494C207.109 184.469 207.147 184.451 207.188 184.442C211.809 183.27 213.409 180.851 213.421 180.826C213.444 180.79 213.474 180.759 213.508 180.735C213.543 180.71 213.582 180.693 213.623 180.684C213.665 180.675 213.707 180.674 213.749 180.681C213.791 180.688 213.83 180.704 213.866 180.726C213.902 180.749 213.933 180.779 213.957 180.813C213.981 180.848 213.999 180.887 214.008 180.928C214.017 180.97 214.018 181.012 214.011 181.054C214.004 181.096 213.988 181.135 213.965 181.171C213.895 181.28 212.231 183.821 207.348 185.062L207.265 185.069Z" fill="white" />
                <path d="M133.121 182.746C133.121 182.746 126.983 181.248 126.663 169.754C126.324 157.35 128.167 142.874 120.903 141.702C113.639 140.531 109.607 149.382 109.697 159.718C109.78 168.768 113.428 188.416 133.095 192.269L133.121 182.746Z" fill="#EA212D" />
                <path opacity="0.2" d="M133.121 182.746C133.121 182.746 126.983 181.248 126.663 169.754C126.324 157.35 128.167 142.874 120.903 141.702C113.639 140.531 109.607 149.382 109.697 159.718C109.78 168.768 113.428 188.416 133.095 192.269L133.121 182.746Z" fill="black" />
                <path d="M133.122 191.091H133.064C128.642 190.285 125.038 187.846 122.357 183.853C114.408 171.994 116.91 149.85 117.736 145.984C117.755 145.902 117.804 145.83 117.875 145.783C117.945 145.737 118.031 145.719 118.114 145.734C118.197 145.754 118.269 145.805 118.315 145.877C118.361 145.948 118.379 146.035 118.363 146.118C117.55 149.958 115.061 171.821 122.888 183.494C124.027 185.305 125.531 186.858 127.302 188.057C129.074 189.256 131.075 190.073 133.179 190.458C133.221 190.465 133.261 190.481 133.296 190.504C133.332 190.528 133.363 190.558 133.386 190.593C133.41 190.628 133.427 190.667 133.435 190.709C133.444 190.751 133.444 190.794 133.435 190.835C133.422 190.908 133.383 190.974 133.325 191.021C133.268 191.067 133.196 191.092 133.122 191.091Z" fill="white" />
                <path d="M133.121 220.589C126.778 221.446 116.481 221.434 110.535 216.749C104.589 212.064 105.831 208.032 108.116 206.349C110.401 204.666 112.385 202.746 108.455 199.008C104.525 195.27 98.2149 189.267 96.1669 180.262C94.1189 171.258 95.1301 165.626 99.1493 163.75C103.047 161.933 104.077 164.826 106.465 170.79C108.852 176.755 114.221 171.642 118.817 173.504C123.412 175.366 123.226 179.053 123.514 182.221C123.802 185.389 125.319 186.266 127.924 186.266C130.529 186.266 133.121 187.763 133.121 190.746V220.589Z" fill="#EA212D" />
                <path d="M133.12 210.131C133.093 210.137 133.065 210.137 133.037 210.131C132.762 210.054 126.202 208.147 116.647 199.373C106.471 190.029 101.671 176.013 101.62 175.872C101.595 175.791 101.603 175.704 101.641 175.629C101.679 175.554 101.745 175.497 101.824 175.469C101.904 175.442 101.991 175.448 102.067 175.485C102.142 175.522 102.2 175.588 102.228 175.667C102.272 175.808 107.028 189.67 117.082 198.899C126.503 207.558 133.14 209.498 133.21 209.517C133.25 209.529 133.288 209.548 133.321 209.574C133.354 209.601 133.381 209.633 133.401 209.67C133.421 209.707 133.434 209.747 133.439 209.789C133.443 209.831 133.439 209.873 133.428 209.914C133.407 209.978 133.366 210.034 133.31 210.074C133.255 210.113 133.188 210.133 133.12 210.131Z" fill="white" />
                <path d="M119.315 201.6C119.251 201.601 119.188 201.582 119.135 201.545C119.082 201.508 119.042 201.456 119.021 201.395C116.967 196.122 116.499 184.838 116.461 184.358C116.459 184.274 116.49 184.192 116.547 184.13C116.605 184.068 116.684 184.031 116.768 184.026C116.852 184.027 116.932 184.059 116.993 184.116C117.055 184.172 117.093 184.25 117.101 184.333C117.101 184.448 117.581 195.987 119.597 201.165C119.612 201.204 119.62 201.246 119.619 201.289C119.618 201.331 119.608 201.373 119.591 201.412C119.574 201.45 119.549 201.485 119.518 201.514C119.487 201.543 119.451 201.566 119.411 201.581C119.381 201.592 119.348 201.598 119.315 201.6Z" fill="white" />
                <path d="M119.265 209.184C118.675 209.189 118.085 209.159 117.499 209.094C117.457 209.089 117.416 209.076 117.379 209.055C117.342 209.035 117.31 209.007 117.284 208.974C117.258 208.94 117.238 208.902 117.227 208.861C117.215 208.821 117.212 208.778 117.217 208.736C117.222 208.694 117.235 208.653 117.256 208.616C117.277 208.58 117.305 208.547 117.338 208.521C117.371 208.495 117.409 208.475 117.45 208.464C117.491 208.453 117.534 208.449 117.576 208.454C117.633 208.454 123.592 209.133 126.324 206.349C126.353 206.315 126.388 206.288 126.427 206.268C126.467 206.249 126.51 206.238 126.554 206.236C126.598 206.234 126.642 206.241 126.683 206.257C126.725 206.272 126.762 206.296 126.793 206.327C126.825 206.358 126.85 206.395 126.866 206.436C126.882 206.477 126.89 206.521 126.889 206.565C126.887 206.609 126.877 206.653 126.858 206.693C126.839 206.732 126.812 206.768 126.779 206.797C124.801 208.838 121.352 209.184 119.265 209.184Z" fill="white" />
                <path d="M114.655 87.9936L113.964 84.0064L110.406 86.3488C110.081 85.7088 109.62 85.1475 109.055 84.704L110.758 80.096L107.558 79.3856L105.215 83.8656C104.368 84.0086 103.546 84.276 102.777 84.6592L101.759 81.28L97.9578 84.2688L98.2074 88.2368C97.4332 89.104 96.7311 90.033 96.1082 91.0144L92.9722 90.8544L90.7706 95.7888L93.465 96.9408C93.1837 97.9614 93.0057 99.0078 92.9338 100.064L89.5098 103.213L90.1946 107.206L93.7594 104.864C94.0826 105.503 94.5439 106.063 95.1098 106.502L93.4394 111.117L96.6394 111.821L99.993 108.557C100.767 108.435 100.575 106.976 101.42 106.56L102.438 109.926L106.233 106.944L106.137 105.382C106.905 104.525 109.811 102.637 110.438 101.651L111.225 100.371L113.427 95.4368L112.403 93.5808L111.263 91.1616L114.655 87.9936ZM103.039 101.12C100.121 103.411 99.1994 103.917 98.7066 100.851C98.2138 97.7856 99.8842 93.1264 102.803 90.8288C105.721 88.5312 106.835 88.3712 107.359 91.4304C107.884 94.4896 105.964 98.8544 103.039 101.12Z" fill="#E0E0E0" />
                <path d="M107.585 79.3856L111.738 81.7792L109.396 86.2464L105.242 83.8528L107.585 79.3856Z" fill="#F5F5F5" />
                <path d="M118.118 86.4L114.56 88.7424L110.406 86.3488L113.965 84.0064L118.118 86.4Z" fill="#F5F5F5" />
                <path d="M117.549 97.8112L114.855 96.6656L110.701 94.272L113.396 95.4176L117.549 97.8112Z" fill="#E0E0E0" />
                <path d="M93.4336 111.117L97.5872 113.504L99.2896 108.896L95.136 106.502L93.4336 111.117Z" fill="#E0E0E0" />
                <path d="M106.553 112.32L102.406 109.926L101.389 106.56L105.542 108.954L106.553 112.32Z" fill="#E0E0E0" />
                <path d="M118.803 90.3872L118.118 86.4L114.56 88.7424C114.232 88.1022 113.769 87.5409 113.203 87.0976L114.905 82.4896L111.737 81.7792L109.389 86.2592C108.541 86.4022 107.72 86.6696 106.95 87.0528L105.939 83.6864L102.137 86.6752L102.387 90.6432C101.612 91.5165 100.91 92.4519 100.288 93.44L97.1454 93.28L94.9439 98.2144L97.6383 99.3664C97.3595 100.39 97.1816 101.438 97.1071 102.496L93.6895 105.6L94.3743 109.594L97.9327 107.251C98.2602 107.89 98.7233 108.449 99.2895 108.89L97.5871 113.498L100.787 114.208L103.129 109.728C103.98 109.587 104.805 109.317 105.574 108.928L106.585 112.294L110.387 109.312L110.137 105.344C110.912 104.477 111.614 103.548 112.237 102.566L115.379 102.72L117.581 97.7856L114.848 96.64C115.131 95.6174 115.311 94.5689 115.385 93.5104L118.803 90.3872ZM107.2 103.539C104.288 105.83 101.497 105.21 100.966 102.15C100.435 99.0912 102.374 94.7456 105.293 92.4544C108.211 90.1632 110.995 90.7904 111.526 93.8496C112.057 96.9088 110.118 101.248 107.2 103.539Z" fill="#EBEBEB" />
                <path d="M105.94 83.6736L101.786 81.28L97.9844 84.2688L102.138 86.6624L105.94 83.6736Z" fill="#F5F5F5" />
                <path d="M97.9844 84.2688L98.234 88.2368L102.388 90.6304L102.138 86.6624L97.9844 84.2688Z" fill="#E0E0E0" />
                <path d="M100.288 93.408L96.1341 91.0144L92.998 90.8608L97.1452 93.2544L100.288 93.408Z" fill="#F5F5F5" />
                <path d="M92.9985 90.8608L90.7969 95.7888L94.9441 98.1824L97.1457 93.2544L92.9985 90.8608Z" fill="#E0E0E0" />
                <path d="M97.1064 102.458L92.9592 100.064L89.5352 103.213L93.6824 105.606L97.1064 102.458Z" fill="#F5F5F5" />
                <path d="M94.3736 109.6L90.22 107.206L89.5352 103.213L93.6824 105.606L94.3736 109.6Z" fill="#E0E0E0" />
                <path d="M111.738 81.7792L107.584 79.3856L110.758 80.096L114.906 82.4896L111.738 81.7792Z" fill="#F5F5F5" />
                <path d="M96.0576 69.8944V63.936L91.3152 66.0736C91.064 65.0627 90.6302 64.1062 90.0352 63.2512L93.024 57.2288L89.376 55.1232L85.6512 60.7232C84.6132 60.6325 83.5673 60.7345 82.5664 61.024L82.0416 55.8464L76.8832 58.8288L76.3648 64.5888C75.2421 65.5836 74.2098 66.6758 73.28 67.8528L69.5552 66.5728L65.9072 72.896L68.8896 75.456C68.3385 76.8496 67.9102 78.2887 67.6096 79.7568L62.8672 83.0912V89.056L67.6096 86.9184C67.8608 87.9293 68.2946 88.8858 68.8896 89.7408L65.92 95.7696L69.568 97.8752L73.2928 92.2752C74.3308 92.3656 75.3766 92.2636 76.3776 91.9744L76.896 97.152L82.0544 94.1696L82.5792 88.4096C84.1892 87.8222 85.6155 86.8198 86.7136 85.504L89.3888 86.4448L93.0368 80.128L90.7968 78.208C91.283 76.6069 91.4633 74.9286 91.328 73.2608L96.0576 69.8944ZM79.4624 84.7808C75.5072 87.0656 73.0624 85.4208 73.0624 80.8704C73.0624 76.32 76.3328 70.6944 80.2944 68.4096C84.256 66.1248 86.6496 67.7696 86.6496 72.3584C86.6496 76.9472 83.424 82.4896 79.4624 84.7808Z" fill="#E0E0E0" />
                <path d="M93.5224 57.5104L89.3752 55.1232L85.6504 60.7232L89.7976 63.1168L93.5224 57.5104Z" fill="#F5F5F5" />
                <path d="M100.21 66.3296L96.0569 63.936L91.3145 66.0736L95.4681 68.4672L100.21 66.3296Z" fill="#F5F5F5" />
                <path d="M81.0308 99.5456L76.8836 97.152L76.3652 91.9744L80.5124 94.368L81.0308 99.5456Z" fill="#E0E0E0" />
                <path d="M65.9004 95.7696L70.054 98.1632L73.0428 92.1408L68.8892 89.7472L65.9004 95.7696Z" fill="#E0E0E0" />
                <path d="M100.212 72.32V66.3616L95.4695 68.48C95.2209 67.4682 94.7869 66.5112 94.1895 65.6576L97.1783 59.6352L93.5303 57.5232L89.8055 63.1296C88.7675 63.0358 87.721 63.1378 86.7207 63.4304L86.1959 58.24L81.0375 61.2224L80.5127 66.9824C79.3917 67.9788 78.3595 69.0709 77.4279 70.2464L73.7031 68.9664L70.0551 75.2896L73.0439 77.8496C72.4899 79.2422 72.0615 80.6815 71.7639 82.1504L67.0215 85.4848V91.4496L71.7639 89.312C72.0123 90.3239 72.4463 91.2809 73.0439 92.1344L70.0551 98.1568L73.7031 100.262L77.4279 94.6624C78.4659 94.7531 79.5117 94.6511 80.5127 94.3616L81.0375 99.5392L86.1959 96.5568L86.7143 90.7968C87.8369 89.802 88.8692 88.7098 89.7991 87.5328L93.5239 88.8128L97.1719 82.496L94.1831 79.936C94.7369 78.5433 95.1653 77.104 95.4631 75.6352L100.212 72.32ZM83.6167 87.2064C79.6551 89.4912 76.4423 87.6352 76.4423 83.0656C76.4423 78.496 79.6423 72.9344 83.6167 70.6432C87.5911 68.352 90.7847 70.2144 90.7847 74.784C90.7847 79.3536 87.5719 84.8832 83.6167 87.1744V87.2064Z" fill="#EBEBEB" />
                <path d="M73.2795 67.8656L77.4267 70.2592L73.7019 68.96L69.5547 66.56L73.2795 67.8656Z" fill="#F0F0F0" />
                <path d="M69.5552 66.5665L65.9062 72.8919L70.0585 75.2872L73.7075 68.9619L69.5552 66.5665Z" fill="#F5F5F5" />
                <path d="M65.9004 72.8832L70.054 75.2768L73.0428 77.8496L68.8892 75.4624L65.9004 72.8832Z" fill="#E0E0E0" />
                <path d="M67.6096 79.7632L71.7632 82.1568L67.0208 85.4912L62.8672 83.0976L67.6096 79.7632Z" fill="#F5F5F5" />
                <path d="M62.8672 83.0976L67.0208 85.4912V91.456L62.8672 89.0624V83.0976Z" fill="#E0E0E0" />
                <path d="M86.1948 58.24L82.0412 55.8464L76.8828 58.8288L81.03 61.2224L86.1948 58.24Z" fill="#F5F5F5" />
                <path d="M139.443 229.152L199.603 194.413C199.735 194.366 199.85 194.28 199.931 194.165C200.012 194.05 200.056 193.913 200.056 193.773C200.056 193.632 200.012 193.495 199.931 193.381C199.85 193.266 199.735 193.179 199.603 193.133L194.041 189.933C193.696 189.759 193.316 189.669 192.93 189.669C192.545 189.669 192.165 189.759 191.82 189.933L131.641 224.64C131.508 224.687 131.394 224.773 131.312 224.888C131.231 225.002 131.188 225.14 131.188 225.28C131.188 225.421 131.231 225.558 131.312 225.672C131.394 225.787 131.508 225.873 131.641 225.92L137.222 229.12C137.564 229.298 137.943 229.394 138.328 229.4C138.714 229.405 139.096 229.32 139.443 229.152Z" fill="#E0E0E0" />
                <path d="M197.951 60.288L143.705 91.6096C142.898 92.1359 142.227 92.8447 141.746 93.6786C141.264 94.5125 140.986 95.4481 140.934 96.4096V225.094C140.934 226.861 142.175 227.578 143.705 226.694L197.951 195.373C198.759 194.848 199.431 194.139 199.912 193.305C200.394 192.471 200.671 191.535 200.722 190.573V61.888C200.722 60.1216 199.487 59.4048 197.951 60.288Z" fill="#455A64" />
                <path d="M143.705 91.6096L197.952 60.288C199.321 59.4944 200.454 59.9872 200.685 61.3632C200.557 60.4981 200.247 59.6699 199.776 58.933C199.305 58.1961 198.683 57.5674 197.952 57.088L195.699 55.808C194.84 55.3723 193.891 55.1452 192.928 55.1452C191.965 55.1452 191.015 55.3723 190.157 55.808L135.904 87.104C135.087 87.6164 134.413 88.3276 133.945 89.1712L141.747 93.6512C142.214 92.8143 142.889 92.1113 143.705 91.6096Z" fill="#37474F" />
                <path d="M133.119 220.589C133.172 221.55 133.45 222.486 133.931 223.32C134.413 224.154 135.084 224.863 135.89 225.389L138.15 226.669C138.931 227.06 139.787 227.282 140.661 227.319C141.534 227.357 142.406 227.209 143.218 226.886C141.938 227.386 140.921 226.65 140.921 225.069V96.4096C140.953 95.444 141.233 94.503 141.734 93.6768L133.932 89.1968C133.438 90.0167 133.159 90.9477 133.119 91.904V220.589Z" fill="#263238" />
                <path d="M145.196 108.755L196.479 79.1552C197.4 78.6304 198.143 79.0592 198.143 80.1152V175.36C198.112 175.937 197.945 176.499 197.656 177C197.367 177.5 196.963 177.925 196.479 178.24L145.215 207.84C144.293 208.371 143.551 207.942 143.551 206.88V111.635C143.58 111.06 143.744 110.499 144.03 109.999C144.315 109.499 144.715 109.073 145.196 108.755Z" fill="white" />
                <path d="M170.828 80.8256C170.545 81.0114 170.31 81.2611 170.141 81.5546C169.972 81.8481 169.874 82.1771 169.855 82.5152C169.855 83.1552 170.291 83.392 170.828 83.0784C171.112 82.8937 171.349 82.6443 171.518 82.3506C171.687 82.0569 171.784 81.7273 171.801 81.3888C171.801 80.768 171.366 80.5184 170.828 80.8256Z" fill="#37474F" />
                <path d="M170.828 197.594C169.709 198.325 168.779 199.311 168.112 200.469C167.444 201.628 167.06 202.927 166.988 204.262C166.988 206.714 168.71 207.712 170.828 206.483C171.947 205.751 172.877 204.766 173.544 203.607C174.211 202.449 174.596 201.149 174.668 199.814C174.681 197.363 172.953 196.365 170.828 197.594Z" fill="#37474F" />
                <path d="M161.619 90.7328C161.057 91.1062 160.59 91.6065 160.256 92.1935C159.923 92.7805 159.732 93.4377 159.699 94.112C159.699 95.3536 160.57 95.8592 161.619 95.2384C162.188 94.8686 162.661 94.3698 163 93.7826C163.339 93.1953 163.535 92.5364 163.571 91.8592C163.571 90.6176 162.701 90.112 161.619 90.7328Z" fill="#37474F" />
                <path d="M166.398 90.3104C166.398 91.1424 167.038 91.456 167.787 91.0144L180.587 83.6096C180.984 83.362 181.316 83.0242 181.557 82.6239C181.799 82.2235 181.942 81.7718 181.976 81.3056C181.976 80.48 181.336 80.1664 180.587 80.608L167.787 88.0128C167.392 88.2598 167.06 88.5965 166.818 88.9957C166.577 89.3949 166.433 89.8453 166.398 90.3104Z" fill="#37474F" />
                <path d="M137.446 112.877C137.9 113.173 138.278 113.571 138.549 114.041C138.821 114.51 138.978 115.036 139.007 115.578C139.007 116.576 138.31 116.979 137.446 116.48C136.993 116.183 136.617 115.784 136.347 115.315C136.076 114.846 135.92 114.32 135.891 113.779C135.891 112.787 136.588 112.384 137.446 112.877Z" fill="#37474F" />
                <path d="M137.446 124.896C137.9 125.192 138.278 125.591 138.549 126.06C138.821 126.529 138.978 127.056 139.007 127.597C139.007 128.589 138.31 128.992 137.446 128.499C136.993 128.202 136.617 127.803 136.347 127.334C136.076 126.865 135.92 126.339 135.891 125.798C135.891 124.8 136.588 124.397 137.446 124.896Z" fill="#37474F" />
                <path d="M136.96 113.12C137.414 113.416 137.792 113.815 138.064 114.284C138.335 114.753 138.492 115.28 138.522 115.821C138.522 116.813 137.824 117.216 136.96 116.723C136.506 116.427 136.128 116.029 135.856 115.559C135.585 115.09 135.428 114.564 135.398 114.022C135.405 113.024 136.102 112.64 136.96 113.12Z" fill="#455A64" />
                <path d="M136.96 125.133C137.415 125.429 137.794 125.829 138.065 126.299C138.336 126.77 138.493 127.298 138.522 127.84C138.522 128.832 137.824 129.235 136.96 128.736C136.505 128.441 136.126 128.043 135.854 127.573C135.583 127.104 135.427 126.577 135.398 126.035C135.405 125.043 136.102 124.64 136.96 125.133Z" fill="#455A64" />
                <path d="M208.524 83.1296C208.524 82.0672 207.781 81.6384 206.86 82.1696L200.722 85.7088L155.596 111.77C155.111 112.085 154.708 112.51 154.418 113.01C154.129 113.511 153.962 114.072 153.932 114.65V209.869C153.932 210.931 154.674 211.36 155.596 210.829L200.741 184.762L206.86 181.229C207.344 180.914 207.748 180.489 208.037 179.988C208.326 179.488 208.493 178.926 208.524 178.349V83.1296Z" fill="white" />
                <path d="M209.165 83.1296C209.205 82.8087 209.15 82.4829 209.006 82.1932C208.862 81.9035 208.636 81.6627 208.356 81.5008C208.076 81.3389 207.754 81.2632 207.431 81.2831C207.109 81.303 206.799 81.4177 206.541 81.6128L200.685 84.9984L155.277 111.238C154.692 111.607 154.206 112.113 153.86 112.712C153.515 113.311 153.32 113.984 153.293 114.675V209.869C153.267 210.188 153.329 210.509 153.471 210.796C153.613 211.084 153.83 211.327 154.099 211.501C154.328 211.634 154.589 211.703 154.854 211.699C155.23 211.687 155.595 211.579 155.917 211.386L201.357 185.146L207.2 181.773C207.781 181.4 208.265 180.894 208.61 180.296C208.955 179.698 209.152 179.026 209.184 178.336L209.165 83.1296ZM200.698 184.051L200.173 184.358L155.302 210.266C155.227 210.324 155.14 210.364 155.047 210.384C154.954 210.404 154.857 210.403 154.765 210.381C154.682 210.33 154.598 210.15 154.598 209.856V114.65C154.632 114.185 154.77 113.734 155.003 113.33C155.235 112.927 155.557 112.581 155.942 112.32L200.768 86.4L207.168 82.6944C207.243 82.6365 207.331 82.5961 207.424 82.5761C207.517 82.5562 207.613 82.5573 207.706 82.5792C207.789 82.6304 207.872 82.8096 207.872 83.104V178.349C207.839 178.813 207.701 179.265 207.468 179.668C207.235 180.072 206.914 180.417 206.528 180.678L200.685 184.051H200.698Z" fill="#EA212D" />
                <path d="M181.228 105.254C186.988 101.939 191.628 104.614 191.628 111.264C191.628 117.914 186.969 125.984 181.228 129.274C175.487 132.563 170.828 129.914 170.828 123.27C170.828 116.627 175.487 108.576 181.228 105.254Z" fill="#EA212D" />
                <path d="M181.228 110.477C183.091 109.402 184.601 110.272 184.601 112.397C184.538 113.567 184.199 114.706 183.613 115.722C183.027 116.737 182.21 117.6 181.228 118.24C179.366 119.315 177.855 118.445 177.855 116.32C177.919 115.149 178.257 114.01 178.843 112.995C179.429 111.98 180.246 111.117 181.228 110.477Z" fill="#EA212D" />
                <path d="M187.802 121.946C187.802 118.413 185.325 116.979 182.259 118.746L180.339 119.853C177.28 121.619 174.797 125.92 174.797 129.453V130.406C176.57 130.989 178.797 130.675 181.197 129.274C183.856 127.634 186.104 125.407 187.77 122.765L187.802 121.946Z" fill="#EA212D" />
                <path opacity="0.7" d="M181.228 110.477C183.091 109.402 184.601 110.272 184.601 112.397C184.538 113.567 184.199 114.706 183.613 115.722C183.027 116.737 182.21 117.6 181.228 118.24C179.366 119.315 177.855 118.445 177.855 116.32C177.919 115.149 178.257 114.01 178.843 112.995C179.429 111.98 180.246 111.117 181.228 110.477Z" fill="white" />
                <path opacity="0.7" d="M187.802 121.946C187.802 118.413 185.325 116.979 182.259 118.746L180.339 119.853C177.28 121.619 174.797 125.92 174.797 129.453V130.406C176.57 130.989 178.797 130.675 181.197 129.274C183.856 127.634 186.104 125.407 187.77 122.765L187.802 121.946Z" fill="white" />
                <path d="M161.107 143.898L174.49 136.173C175.13 135.821 175.597 136.102 175.597 136.813V137.254C175.577 137.639 175.466 138.013 175.273 138.347C175.081 138.681 174.812 138.964 174.49 139.174L161.107 146.899C160.499 147.251 160 146.963 160 146.259V145.818C160.021 145.433 160.132 145.059 160.324 144.725C160.517 144.392 160.785 144.108 161.107 143.898Z" fill="#EA212D" />
                <path opacity="0.1" d="M161.107 143.898L174.49 136.173C175.13 135.821 175.597 136.102 175.597 136.813V137.254C175.577 137.639 175.466 138.013 175.273 138.347C175.081 138.681 174.812 138.964 174.49 139.174L161.107 146.899C160.499 147.251 160 146.963 160 146.259V145.818C160.021 145.433 160.132 145.059 160.324 144.725C160.517 144.392 160.785 144.108 161.107 143.898Z" fill="black" />
                <path d="M160.557 153.222L201.043 129.85C201.344 129.67 201.594 129.811 201.594 130.17V134.893C201.582 135.084 201.527 135.271 201.431 135.438C201.336 135.604 201.203 135.746 201.043 135.853L160.557 159.226C160.25 159.405 160 159.258 160 158.906V154.182C160.011 153.99 160.067 153.803 160.164 153.636C160.261 153.469 160.395 153.328 160.557 153.222Z" fill="#EA212D" />
                <path opacity="0.2" d="M160.557 153.222L201.043 129.85C201.344 129.67 201.594 129.811 201.594 130.17V134.893C201.582 135.084 201.527 135.271 201.431 135.438C201.336 135.604 201.203 135.746 201.043 135.853L160.557 159.226C160.25 159.405 160 159.258 160 158.906V154.182C160.011 153.99 160.067 153.803 160.164 153.636C160.261 153.469 160.395 153.328 160.557 153.222Z" fill="white" />
                <path d="M161.107 164.909L174.49 157.184C175.13 156.832 175.597 157.12 175.597 157.824V158.266C175.577 158.65 175.466 159.025 175.274 159.359C175.081 159.692 174.813 159.976 174.49 160.186L161.107 167.91C160.499 168.269 160 167.981 160 167.27V166.829C160.022 166.445 160.133 166.071 160.326 165.737C160.518 165.404 160.786 165.12 161.107 164.909Z" fill="#EA212D" />
                <path opacity="0.1" d="M161.107 164.909L174.49 157.184C175.13 156.832 175.597 157.12 175.597 157.824V158.266C175.577 158.65 175.466 159.025 175.274 159.359C175.081 159.692 174.813 159.976 174.49 160.186L161.107 167.91C160.499 168.269 160 167.981 160 167.27V166.829C160.022 166.445 160.133 166.071 160.326 165.737C160.518 165.404 160.786 165.12 161.107 164.909Z" fill="black" />
                <path d="M160.557 174.234L201.043 150.861C201.344 150.682 201.594 150.829 201.594 151.181V155.904C201.582 156.096 201.527 156.282 201.431 156.449C201.336 156.615 201.203 156.757 201.043 156.864L160.557 180.237C160.25 180.416 160 180.275 160 179.917V175.194C160.011 175.001 160.067 174.814 160.164 174.647C160.261 174.48 160.395 174.339 160.557 174.234Z" fill="#EA212D" />
                <path opacity="0.2" d="M160.557 174.234L201.043 150.861C201.344 150.682 201.594 150.829 201.594 151.181V155.904C201.582 156.096 201.527 156.282 201.431 156.449C201.336 156.615 201.203 156.757 201.043 156.864L160.557 180.237C160.25 180.416 160 180.275 160 179.917V175.194C160.011 175.001 160.067 174.814 160.164 174.647C160.261 174.48 160.395 174.339 160.557 174.234Z" fill="white" />
                <path d="M176.703 176.915L192.703 167.693C193.343 167.334 193.817 167.622 193.817 168.333V173.274C193.796 173.659 193.684 174.034 193.49 174.367C193.297 174.701 193.027 174.984 192.703 175.194L176.703 184.422C176.063 184.774 175.596 184.486 175.596 183.782V178.835C175.618 178.451 175.73 178.077 175.922 177.744C176.114 177.411 176.382 177.127 176.703 176.915Z" fill="#EA212D" />
                <path opacity="0.1" d="M176.703 176.915L192.703 167.693C193.343 167.334 193.817 167.622 193.817 168.333V173.274C193.796 173.659 193.684 174.034 193.49 174.367C193.297 174.701 193.027 174.984 192.703 175.194L176.703 184.422C176.063 184.774 175.596 184.486 175.596 183.782V178.835C175.618 178.451 175.73 178.077 175.922 177.744C176.114 177.411 176.382 177.127 176.703 176.915Z" fill="black" />
                <path d="M214.592 156.064C214.592 156.064 206.733 145.222 206.272 143.904C205.907 142.931 206.272 141.485 206.387 140.813C206.503 140.141 206.605 138.643 206.72 138.253C206.912 137.523 205.971 137.67 205.44 138.336C204.909 139.002 204.73 140.333 204.455 140.55C204.179 140.768 202.087 137.715 200.992 136.307C199.898 134.899 199.213 134.042 198.541 134.566C198.061 134.944 198.419 135.763 199.213 136.966C199.676 137.614 200.104 138.287 200.493 138.982C200.615 139.245 199.962 139.264 199.61 139.808C199.335 140.23 199.61 140.915 199.226 141.242C198.989 141.421 198.827 141.682 198.771 141.973C198.714 142.265 198.767 142.567 198.919 142.822C199.631 143.941 200.55 144.914 201.626 145.69C202.803 146.502 203.277 146.79 203.975 147.898C204.672 149.005 210.931 160.314 211.354 160.992C211.776 161.67 212.589 163.053 213.824 163.091C215.059 163.13 225.171 154.426 225.69 153.99C227.354 152.602 227.885 152.403 228.167 153.651C228.264 154.095 228.336 154.544 228.384 154.995C228.583 156.582 229.664 162.253 229.664 162.253C229.664 162.253 234.784 164.73 238.989 163.533C243.194 162.336 244.615 160.55 244.615 160.55L242.509 157.12C243.079 155.706 245.709 149.971 246.56 145.958L233.376 143.827C233.107 143.77 232.672 143.661 232.096 143.514C231.373 143.322 229.536 142.688 228.147 143.904C223.616 147.853 214.605 156.064 214.605 156.064" fill="#FFA8A7" />
                <path d="M240.729 222.586L238.367 225.869C239.44 226.37 240.613 226.622 241.798 226.605C243.916 226.682 244.498 225.965 244.575 225.824C244.934 225.056 244.377 223.674 244.223 222.483L240.729 222.586Z" fill="#37474F" />
                <path d="M238.503 224.294C238.503 224.294 235.636 224.109 233.658 223.866C231.68 223.622 230.112 224.582 230.573 225.395C231.034 226.208 232.128 226.886 233.831 227.456C235.284 227.949 237.031 228.301 238.541 228.736C240.052 229.171 241.101 229.741 241.978 229.434C242.957 229.094 243.38 228.704 243.296 227.987C243.083 226.968 242.818 225.959 242.503 224.966L238.503 224.294Z" fill="#37474F" />
                <path d="M244.577 219.29C244.577 219.29 244.218 222.272 244.193 222.912C244.167 223.552 241.281 223.757 240.73 222.586L240.641 218.938L244.577 219.29Z" fill="#F28F8F" />
                <path d="M241.67 221.12L242.701 225.651C242.701 225.651 242.797 226.202 240.441 226.554C238.086 226.906 234.387 225.318 233.753 224.998C233.12 224.678 233.049 224.032 235.366 224.16C237.683 224.288 238.502 224.294 238.502 224.294L237.747 222.291L241.67 221.12Z" fill="#FFA8A7" />
                <path d="M246.521 145.92L248.153 145.466C248.153 145.466 251.564 156.262 251.942 157.306C252.319 158.349 252.748 159.45 252.012 160.736C251.135 162.266 246.521 168.416 246.521 168.416L243.59 165.549L246.918 159.456L243.974 153.504L246.521 145.92Z" fill="#F28F8F" />
                <path d="M229.76 131.898C229.378 131.179 229.184 130.376 229.196 129.562C229.208 128.748 229.427 127.951 229.831 127.245C231.456 124.23 235.079 122.765 239.392 123.322C241.389 123.584 243.744 125.242 245.031 127.718C246.452 130.464 246.586 135.994 246.951 138.086L229.76 131.898Z" fill="#37474F" />
                <path d="M229.645 133.082C229.645 133.082 228.621 135.034 228.8 135.213C229.066 135.368 229.356 135.476 229.658 135.533L229.645 133.082Z" fill="#FFA8A7" />
                <path d="M232.756 126.912C231.642 127.635 229.722 128.966 229.639 133.35C229.55 137.83 230.19 139.309 230.855 139.827C231.303 140.179 233.934 140 235.06 139.738C236.186 139.475 239.431 137.869 240.602 135.43C241.978 132.563 241.697 128.39 239.655 127.11C238.616 126.496 237.438 126.155 236.231 126.121C235.025 126.086 233.829 126.358 232.756 126.912Z" fill="#FFA8A7" />
                <path d="M244.576 160.525C246.547 163.597 248.416 166.285 248.825 169.754C249.67 177.043 246.905 185.376 246.31 190.771C247.43 192.306 248.075 194.135 248.166 196.032C248.166 198.266 244.576 219.29 244.576 219.29C244.576 219.29 241.965 220.083 240.64 218.938L238.176 180.262L239.456 175.552L244.576 160.525Z" fill="#EA212D" />
                <path opacity="0.2" d="M244.576 160.525C246.547 163.597 248.416 166.285 248.825 169.754C249.67 177.043 246.905 185.376 246.31 190.771C247.43 192.306 248.075 194.135 248.166 196.032C248.166 198.266 244.576 219.29 244.576 219.29C244.576 219.29 241.965 220.083 240.64 218.938L238.176 180.262L239.456 175.552L244.576 160.525Z" fill="black" />
                <path d="M238.176 180.262L239.456 175.552C241.907 174.907 244.27 173.968 246.496 172.755C246.496 172.755 245.165 175.181 241.337 176.512L239.36 182.56L239.193 196.416L238.176 180.262Z" fill="#EA212D" />
                <path opacity="0.3" d="M238.176 180.262L239.456 175.552C241.907 174.907 244.27 173.968 246.496 172.755C246.496 172.755 245.165 175.181 241.337 176.512L239.36 182.56L239.193 196.416L238.176 180.262Z" fill="black" />
                <path d="M244.576 160.525C245.632 162.253 248.154 165.197 247.616 168.032C246.976 171.462 245.12 173.875 239.475 175.552L234.176 194.752C234.176 194.752 236.935 197.312 237.78 199.789C238.624 202.266 241.671 221.133 241.671 221.133C241.671 221.133 240.724 222.675 237.748 222.304C237.748 222.304 227.373 198.624 226.644 197.082C225.758 195.52 225.448 193.697 225.767 191.93C226.093 189.446 229.607 162.266 229.607 162.266L244.576 160.525Z" fill="#EA212D" />
                <path opacity="0.2" d="M244.576 160.525C245.632 162.253 248.154 165.197 247.616 168.032C246.976 171.462 245.12 173.875 239.475 175.552L234.176 194.752C234.176 194.752 236.935 197.312 237.78 199.789C238.624 202.266 241.671 221.133 241.671 221.133C241.671 221.133 240.724 222.675 237.748 222.304C237.748 222.304 227.373 198.624 226.644 197.082C225.758 195.52 225.448 193.697 225.767 191.93C226.093 189.446 229.607 162.266 229.607 162.266L244.576 160.525Z" fill="black" />
                <path d="M246.522 145.92L233.338 143.789C233.069 143.731 232.634 143.622 232.058 143.475C232.058 143.475 231.495 151.744 228.109 153.638C228.193 154.035 228.263 154.477 228.327 154.982C228.525 156.57 229.607 162.24 229.607 162.24C229.607 162.24 234.727 164.717 238.932 163.52C243.137 162.323 244.557 160.538 244.557 160.538L242.452 157.107C243.041 155.68 245.69 149.946 246.522 145.92Z" fill="#EA212D" />
                <path opacity="0.7" d="M246.522 145.92L233.338 143.789C233.069 143.731 232.634 143.622 232.058 143.475C232.058 143.475 231.495 151.744 228.109 153.638C228.193 154.035 228.263 154.477 228.327 154.982C228.525 156.57 229.607 162.24 229.607 162.24C229.607 162.24 234.727 164.717 238.932 163.52C243.137 162.323 244.557 160.538 244.557 160.538L242.452 157.107C243.041 155.68 245.69 149.946 246.522 145.92Z" fill="white" />
                <path d="M243.047 155.744C241.296 156.795 239.462 157.701 237.562 158.451C239.287 158.417 240.974 157.95 242.471 157.094L243.047 155.744Z" fill="#EA212D" />
                <path d="M232.43 127.13C232.43 127.13 231.79 131.29 233.3 133.734C233.3 133.734 233.863 132.077 235.265 132.39C236.666 132.704 236.743 134.554 235.758 135.59C235.507 135.881 235.18 136.096 234.813 136.209C234.446 136.322 234.055 136.329 233.684 136.23C233.684 136.23 233.46 139.238 233.338 141.76C233.217 144.282 232.551 149.779 235.386 152C238.222 154.221 245.338 155.002 248.673 150.342C250.529 147.75 248.065 143.168 246.919 138.029C245.863 133.306 245.268 126.304 240.257 125.178C235.246 124.051 232.43 127.13 232.43 127.13Z" fill="#37474F" />
                <path d="M250.815 70.2912L249.759 70.9312C249.848 70.5555 249.897 70.1715 249.906 69.7856C249.906 67.6416 248.402 66.7776 246.546 67.8656C245.981 68.2063 245.477 68.6389 245.055 69.1456C245.055 66.2656 243.033 65.0944 240.537 66.5344C239.221 67.3922 238.127 68.5479 237.342 69.9079C236.557 71.2678 236.103 72.7936 236.018 74.3616C236.018 74.5088 236.018 74.6496 236.018 74.7904C235.375 74.7095 234.725 74.8592 234.182 75.2128C233.204 75.8501 232.39 76.709 231.806 77.7198C231.222 78.7306 230.885 79.8648 230.822 81.0304C230.821 81.3014 230.849 81.5716 230.905 81.8368L230.342 82.1632C228.812 83.0464 227.57 84.768 227.57 86.0032C227.57 87.2384 228.812 87.5328 230.342 86.6432L250.822 74.8352C252.351 73.952 253.593 72.2304 253.593 70.9952C253.593 69.76 252.345 69.4016 250.815 70.2912Z" fill="#EBEBEB" />
            </svg>