<svg width="18" height="18" viewBox="0 0 18 18" fill="none" xmlns="http://www.w3.org/2000/svg">
<path d="M12.6001 1.5H10.6501C8.25008 1.5 6.75008 3 6.75008 5.4V8.4375H11.4376C11.7451 8.4375 12.0001 8.6925 12.0001 9C12.0001 9.3075 11.7451 9.5625 11.4376 9.5625H6.75008V12.6C6.75008 15 8.25008 16.5 10.6501 16.5H12.5926C14.9926 16.5 16.4926 15 16.4926 12.6V5.4C16.5001 3 15.0001 1.5 12.6001 1.5Z" fill="#DD2033"/>
<path d="M3.42008 8.4375L4.97258 6.885C5.08508 6.7725 5.13758 6.63 5.13758 6.4875C5.13758 6.345 5.08508 6.195 4.97258 6.09C4.75508 5.8725 4.39508 5.8725 4.17758 6.09L1.66508 8.6025C1.44758 8.82 1.44758 9.18 1.66508 9.3975L4.17758 11.91C4.39508 12.1275 4.75508 12.1275 4.97258 11.91C5.19008 11.6925 5.19008 11.3325 4.97258 11.115L3.42008 9.5625H6.75008V8.4375H3.42008Z" fill="#DD2033"/>
</svg>
