<svg width="18" height="18" viewBox="0 0 18 18" fill="none" xmlns="http://www.w3.org/2000/svg">
<path d="M10.7628 1.5H7.23777C6.45777 1.5 5.82027 2.13 5.82027 2.91V3.615C5.82027 4.395 6.45027 5.025 7.23027 5.025H10.7628C11.5428 5.025 12.1728 4.395 12.1728 3.615V2.91C12.1803 2.13 11.5428 1.5 10.7628 1.5Z" fill="#DD2033"/>
<path d="M12.9303 3.615C12.9303 4.8075 11.9553 5.7825 10.7628 5.7825H7.23777C6.04527 5.7825 5.07027 4.8075 5.07027 3.615C5.07027 3.195 4.62027 2.9325 4.24527 3.1275C3.18777 3.69 2.46777 4.8075 2.46777 6.09V13.1475C2.46777 14.9925 3.97527 16.5 5.82027 16.5H12.1803C14.0253 16.5 15.5328 14.9925 15.5328 13.1475V6.09C15.5328 4.8075 14.8128 3.69 13.7553 3.1275C13.3803 2.9325 12.9303 3.195 12.9303 3.615ZM9.28527 12.7125H6.00027C5.69277 12.7125 5.43777 12.4575 5.43777 12.15C5.43777 11.8425 5.69277 11.5875 6.00027 11.5875H9.28527C9.59277 11.5875 9.84777 11.8425 9.84777 12.15C9.84777 12.4575 9.59277 12.7125 9.28527 12.7125ZM11.2503 9.7125H6.00027C5.69277 9.7125 5.43777 9.4575 5.43777 9.15C5.43777 8.8425 5.69277 8.5875 6.00027 8.5875H11.2503C11.5578 8.5875 11.8128 8.8425 11.8128 9.15C11.8128 9.4575 11.5578 9.7125 11.2503 9.7125Z" fill="#DD2033"/>
</svg>
  