<svg width="40" height="40" viewBox="0 0 40 40" fill="none" xmlns="http://www.w3.org/2000/svg">
<path fill-rule="evenodd" clip-rule="evenodd" d="M4.8839 8.67499C5.84142 8.67499 6.61765 9.45121 6.61765 10.4087V10.7338H15.2572C16.5125 10.7338 17.0823 11.1086 18.0704 12.4071L19.8321 14.8515H35.5995C36.6491 14.8515 37.5 15.7191 37.5 16.7892V29.3844C37.5 30.4545 36.6491 31.3221 35.5995 31.3221H14.6945C13.645 31.3221 12.7941 30.4545 12.7941 29.3844V23.6411H11.2834C10.3781 23.6411 9.51571 23.2289 8.71336 22.5545C8.53215 22.4021 8.36247 22.2431 8.20521 22.0816L7.93115 21.7841L7.86594 21.7081L6.58108 21.7089C6.41693 22.4957 5.71943 23.0868 4.8839 23.0868H4.23375C3.27622 23.0868 2.5 22.3105 2.5 21.353V10.4087C2.5 9.45121 3.27622 8.67499 4.23375 8.67499H4.8839ZM6.61765 20.6798H8.37311L8.56156 20.9333L8.67241 21.0676C8.69546 21.0945 8.72075 21.1235 8.7482 21.1543C8.93378 21.3631 9.14482 21.5723 9.37576 21.7664C9.94645 22.2461 10.5327 22.5471 11.0964 22.6025L11.2834 22.6118H12.7941V19.7374L12.1085 19.7376C10.9708 19.7376 10.1636 19.3458 9.68189 18.6668L9.58364 18.517C9.3219 18.0843 9.21775 17.6492 9.19581 17.2205L9.19121 17.0371H10.2206C10.2206 17.354 10.2823 17.6831 10.4644 17.9841C10.7168 18.4014 11.1597 18.6621 11.8994 18.7026L12.1085 18.7082H14.1096L15.7209 20.1782C16.3041 20.6024 17.1722 20.6139 17.8755 20.2728C18.4237 20.0069 18.5414 19.76 18.3694 19.6036L14.8469 16.3992L14.8529 15.0828V14.8515H18.6187L17.2975 13.0185C16.4948 11.965 16.1723 11.753 15.2572 11.753H6.61765V20.6798ZM4.8839 9.54186H4.23375C3.79182 9.54186 3.42712 9.87257 3.37363 10.3L3.36687 10.4087V21.353C3.36687 21.795 3.69757 22.1596 4.12501 22.2131L4.23375 22.2199H4.8839C5.32583 22.2199 5.69052 21.8892 5.74402 21.4618L5.75078 21.353V10.4087C5.75078 9.96681 5.42007 9.60212 4.99263 9.54862L4.8839 9.54186ZM13.8235 29.3319V19.8396L15.0718 20.9752L15.2554 21.099C16.1906 21.6781 17.3664 21.6639 18.3248 21.199C19.4274 20.6641 19.9228 19.6252 19.0621 18.8422L15.807 15.8808H35.527C36.048 15.8808 36.4706 16.311 36.4706 16.8417V29.3319C36.4706 29.8625 36.048 30.2926 35.527 30.2926H14.7672C14.246 30.2926 13.8235 29.8625 13.8235 29.3319Z" fill="#591900"/>
<path d="M25.1471 28.2343C27.9897 28.2343 30.2941 25.9299 30.2941 23.0872C30.2941 20.2446 27.9897 17.9402 25.1471 17.9402C22.3044 17.9402 20 20.2446 20 23.0872C20 25.9299 22.3044 28.2343 25.1471 28.2343Z" fill="#D53C00"/>
<path d="M26.1177 22.9191L24.4289 22.5122C24.1787 22.4515 24.0035 22.2563 24.0035 22.037C24.0035 21.7643 24.2662 21.5428 24.5887 21.5428H25.6442C25.8798 21.5428 26.104 21.6046 26.2913 21.7195C26.3768 21.7718 26.4978 21.7547 26.5727 21.6915L26.8992 21.416C26.9993 21.3314 26.9833 21.1935 26.871 21.1209C26.5203 20.8938 26.0937 20.7708 25.6442 20.7708H25.6047V20.1914C25.6047 20.0848 25.5024 19.9984 25.376 19.9984H24.9185C24.7921 19.9984 24.6897 20.0848 24.6897 20.1914V20.7705H24.5887C23.7141 20.7705 23.0123 21.405 23.095 22.1573C23.1539 22.692 23.64 23.1254 24.2516 23.2725L25.8656 23.6612C26.1157 23.722 26.2911 23.9173 26.2911 24.1366C26.2911 24.4092 26.0282 24.6307 25.7057 24.6307H24.6502C24.4146 24.6307 24.1905 24.5689 24.0032 24.4541C23.9176 24.4017 23.7968 24.4189 23.7218 24.4821L23.3952 24.7576C23.2952 24.842 23.3111 24.9798 23.4236 25.0527C23.7741 25.2797 24.2008 25.4028 24.6502 25.4028H24.6897V25.9818C24.6897 26.0885 24.7921 26.1749 24.9185 26.1749H25.376C25.5024 26.1749 25.6047 26.0885 25.6047 25.9818V25.4028H25.6437C26.2959 25.4028 26.9112 25.0749 27.1225 24.5543C27.4128 23.8391 26.9144 23.1116 26.1177 22.9191Z" fill="white"/>
</svg>
