<svg width="40" height="40" viewBox="0 0 40 40" fill="none" xmlns="http://www.w3.org/2000/svg">
<path d="M21.3867 10.2947L19.6908 11.9906L19.6059 12.0743L19.0665 12.6149L18.664 13.0174L18.1246 13.5568L18.0409 13.6405L17.8058 13.8756L17.7221 13.9605H17.7209L16.9257 14.7545V14.7557L16.842 14.8394C16.6105 15.0714 16.3473 15.2693 16.0601 15.4273C15.9183 15.5049 15.774 15.5728 15.6249 15.6297C15.2961 15.7563 14.9498 15.8319 14.5982 15.854C14.3836 15.8686 14.1666 15.8625 13.9533 15.837C13.4926 15.7825 13.0392 15.6346 12.6271 15.3958C12.4501 15.294 12.2695 15.1873 12.1192 15.0382C12.1179 15.0382 12.1179 15.0382 12.1167 15.037C12.084 15.0054 12.0513 14.9727 12.0173 14.9376L8.92856 11.8488L8.8631 11.7833C8.80976 11.7239 8.76127 11.6597 8.72006 11.5906C8.61355 11.4108 8.55743 11.2056 8.55762 10.9966C8.55762 10.9626 8.55883 10.9287 8.56247 10.896C8.56732 10.8451 8.57459 10.7966 8.58429 10.7505C8.58914 10.7323 8.59277 10.7129 8.59762 10.6959C8.60005 10.6887 8.60247 10.6802 8.60368 10.6729C8.64732 10.5274 8.71884 10.3905 8.81825 10.268C8.84492 10.2365 8.87159 10.205 8.90189 10.1747L8.95644 10.1213L12.2477 6.83013H12.2489L14.243 4.83601C14.6879 4.39112 15.3958 4.37172 15.8625 4.77903L21.3867 10.2947Z" fill="#085CA8"/>
<path d="M15.3789 17.7062C15.1134 17.7062 14.8515 17.6468 14.6018 17.5328L13.969 16.9012L13.8139 16.7473L13.7872 16.7194L13.4926 16.4248L12.0186 14.935C12.0513 14.9689 12.084 15.0017 12.118 15.0344C12.2683 15.1835 12.4501 15.2914 12.6283 15.3932C13.0417 15.632 13.4938 15.7799 13.9545 15.8345C14.1678 15.8611 14.3848 15.866 14.5994 15.8514C14.9485 15.8296 15.2952 15.7545 15.6262 15.6272C15.7741 15.5702 15.9195 15.5035 16.0614 15.4247C16.3414 15.2696 16.6044 15.0744 16.8432 14.8368L16.9269 14.7532V14.752L17.7221 13.9579H17.7233L17.807 13.8731L18.0421 13.6379L18.1258 13.5543L18.6652 13.0148L19.0677 12.6124L19.6071 12.0717L19.692 11.9881L23.1105 8.56956L24.5203 7.04214L24.5288 7.03366L24.604 6.9585C25.0343 6.52816 25.7326 6.52816 26.1629 6.9585L26.9351 7.73069H26.9363L26.9618 7.75615C26.6199 7.73918 26.2756 7.86283 26.0174 8.11497L23.4051 10.6837L23.3784 10.7152L18.8325 15.1884L18.8265 15.1823L17.1524 16.8273L17.1415 16.8406C17.1366 16.8467 17.1002 16.8867 17.0408 16.9461C16.9087 17.0746 16.6335 17.317 16.265 17.4916C16.0977 17.5704 15.928 17.6274 15.7595 17.6625C15.6601 17.6819 15.5571 17.6953 15.4577 17.7001H15.3789V17.7062Z" fill="#EB2227"/>
<path d="M31.1154 13.4753L31.0318 13.5601L27.3296 17.3181L23.442 21.2651C23.3206 21.3872 23.1901 21.4998 23.0517 21.6021C23.0468 21.6069 23.042 21.6106 23.0359 21.6154C23.0177 21.6288 22.9983 21.6433 22.9789 21.6566C22.9765 21.6591 22.9741 21.6603 22.9729 21.6627C22.3661 22.0967 21.6386 22.3294 20.8927 22.3282C19.935 22.3282 19.0658 21.9524 18.4221 21.3415L18.4197 21.339L18.3324 21.2627L17.6633 20.5935L15.7843 18.7133L15.1576 18.0866L15.0703 17.9993C15.1721 18.0163 15.2752 18.0236 15.3794 18.0236H15.3831L15.4667 18.0224C15.5867 18.0175 15.7055 18.0042 15.8231 17.9799C16.0159 17.9399 16.2098 17.8745 16.4001 17.7848C16.8111 17.5908 17.1166 17.3217 17.2632 17.1786C17.3202 17.1229 17.3626 17.0756 17.3808 17.055L18.8258 15.6355L18.8319 15.6415L23.8008 10.7538L23.8275 10.7223L26.241 8.34752C26.5659 8.02991 27.0739 7.9887 27.4424 8.24205L28.0145 8.81423C28.0158 8.81423 28.0158 8.81544 28.0158 8.81544L31.1191 11.9188C31.147 11.9466 31.1724 11.9745 31.1967 12.0048C31.5446 12.434 31.5179 13.074 31.1154 13.4753Z" fill="#EB2227"/>
<path d="M19.1219 9.36146C19.0347 9.44875 18.8904 9.44632 18.8019 9.35783C17.3375 7.88254 14.9458 7.87284 13.4705 9.33722C11.9964 10.8016 11.9855 13.1933 13.4511 14.6686L14.5979 15.8251C14.6051 15.8324 14.6136 15.8421 14.6173 15.8506C14.6112 15.8506 14.6064 15.8518 14.6003 15.8518C14.3918 15.8663 14.1809 15.8603 13.9736 15.836L13.1311 14.9862C11.4921 13.3352 11.5018 10.6573 13.1529 9.01719C14.8052 7.37825 17.4818 7.38916 19.1219 9.04022L19.1256 9.04386C19.2129 9.13235 19.2104 9.27418 19.1219 9.36146ZM20.8748 10.8064L20.556 11.1253L19.9972 10.5628C19.9099 10.4743 19.9099 10.3313 19.9984 10.244C20.0869 10.1567 20.2287 10.1567 20.3172 10.2452L20.8748 10.8064Z" fill="#099DD9"/>
<path d="M16.072 15.4201C16.0684 15.4225 16.066 15.4237 16.0623 15.4262C15.9241 15.5013 15.7835 15.568 15.638 15.6237L14.0767 14.0491C13.0996 13.0647 12.9602 11.5215 13.7445 10.3796C13.7784 10.3305 13.8303 10.2969 13.8889 10.286C13.9475 10.2751 14.0081 10.2878 14.0573 10.3214C14.1603 10.3917 14.1858 10.5324 14.1155 10.6354C13.4536 11.5979 13.5724 12.9011 14.3967 13.7314L16.072 15.4201ZM19.9318 11.7482L19.9245 11.7555L19.6893 11.9907L19.6142 12.0658L17.8576 10.296C17.2055 9.63894 16.2539 9.40862 15.3713 9.69471C15.2538 9.7335 15.1265 9.66804 15.0877 9.55045C15.0489 9.43165 15.1144 9.30437 15.2332 9.26558C16.2757 8.92736 17.4055 9.20133 18.1765 9.97837L19.9318 11.7482Z" fill="#099DD9"/>
<path d="M18.99 12.6906L18.6712 13.0094L16.911 11.2347C16.4819 10.8007 15.7788 10.7983 15.346 11.2286C14.9133 11.659 14.9096 12.3608 15.34 12.7936L16.4746 13.938C16.5619 14.0252 16.5619 14.1683 16.4734 14.2568C16.3861 14.3441 16.2431 14.3441 16.1546 14.2556L15.0187 13.1112C14.415 12.5015 14.4187 11.5147 15.0272 10.9098C15.637 10.3049 16.6249 10.3097 17.2286 10.9183L18.99 12.6906Z" fill="#099DD9"/>
<path d="M18.0493 13.6317L18.042 13.639L17.8068 13.8742L17.7317 13.9493L15.9667 12.1722C15.8794 12.0849 15.8794 11.9419 15.9679 11.8534C16.0564 11.7661 16.1994 11.7661 16.2867 11.8546L18.0493 13.6317Z" fill="#099DD9"/>
<path d="M10.9147 34.2945C11.0832 34.2945 11.2081 34.2654 11.2905 34.2072C11.3729 34.149 11.4263 34.0605 11.4517 33.9405C11.4675 33.8653 11.4578 33.8011 11.4263 33.749C11.3935 33.6968 11.3208 33.6326 11.2069 33.5574L10.7571 33.2471C10.6553 33.1756 10.5777 33.1029 10.5244 33.0277C10.471 32.9525 10.4407 32.875 10.431 32.7937C10.4213 32.7125 10.4274 32.624 10.4468 32.5295C10.4953 32.2991 10.6092 32.1173 10.7886 31.984C10.968 31.8518 11.2238 31.7852 11.5572 31.7852C11.6869 31.7852 11.8118 31.8009 11.9306 31.8324C12.0494 31.864 12.1379 31.8991 12.1985 31.9379C12.2239 31.9549 12.2421 31.9706 12.2542 31.9852C12.2651 31.9997 12.2688 32.0191 12.2639 32.0434L12.207 32.3088C12.1924 32.3731 12.156 32.3925 12.0954 32.3682C12.03 32.3416 11.9342 32.3149 11.8069 32.2894C11.6796 32.264 11.5645 32.2507 11.4614 32.2507C11.1875 32.2507 11.0311 32.3416 10.9923 32.5246C10.9777 32.5889 10.9887 32.6422 11.0214 32.6858C11.0553 32.7295 11.1281 32.7889 11.2384 32.8653L11.6493 33.1441C11.7693 33.2253 11.859 33.3077 11.9197 33.3902C11.979 33.4726 12.0154 33.5562 12.0275 33.6423C12.0397 33.7284 12.0336 33.8266 12.0118 33.9381C11.9815 34.0823 11.9197 34.2157 11.8275 34.3393C11.7354 34.463 11.6057 34.5624 11.4396 34.6412C11.2723 34.7188 11.0687 34.7576 10.8286 34.7576C10.6674 34.7576 10.5244 34.7394 10.3995 34.7018C10.2734 34.6654 10.1886 34.6315 10.1425 34.6C10.111 34.5781 10.0904 34.5612 10.0819 34.5491C10.0734 34.5369 10.0722 34.5187 10.0771 34.4945L10.134 34.229C10.1474 34.1696 10.1837 34.149 10.2456 34.1696C10.4844 34.2545 10.7074 34.2945 10.9147 34.2945ZM13.1416 34.3211C13.2883 34.3211 13.4628 34.2908 13.6653 34.2314C13.7235 34.2157 13.7465 34.2375 13.7344 34.2945L13.6822 34.5454C13.6762 34.5697 13.6653 34.5891 13.6495 34.6036C13.6337 34.6181 13.6095 34.6327 13.5768 34.6472C13.4265 34.7224 13.2507 34.76 13.0482 34.76C12.8737 34.76 12.7258 34.7272 12.6058 34.6618C12.4858 34.5963 12.4021 34.4921 12.3561 34.3502C12.31 34.2084 12.3088 34.0278 12.3548 33.8096L12.4336 33.4447C12.4785 33.2314 12.5536 33.0532 12.6603 32.9113C12.767 32.7683 12.8943 32.6628 13.0434 32.5961C13.1925 32.5283 13.3549 32.4943 13.5295 32.4943C13.7307 32.4943 13.8907 32.5319 14.0095 32.6071C14.0362 32.6216 14.0544 32.6349 14.0641 32.6495C14.0738 32.664 14.0762 32.6834 14.0702 32.7077L14.0168 32.9586C14.0035 33.0156 13.972 33.0374 13.921 33.0216C13.841 32.9938 13.7671 32.9719 13.7004 32.9562C13.6337 32.9404 13.5513 32.9319 13.4531 32.9319C13.1889 32.9319 13.0204 33.1029 12.9476 33.4447L12.8688 33.8096C12.83 33.9951 12.8385 34.126 12.8943 34.2048C12.9537 34.2824 13.0349 34.3211 13.1416 34.3211ZM15.1878 32.9234C14.983 32.9234 14.7672 32.9574 14.5417 33.0253C14.4835 33.041 14.4605 33.0192 14.4726 32.9622L14.5223 32.7234C14.5272 32.6992 14.5381 32.6798 14.5538 32.664C14.5696 32.6483 14.5938 32.6349 14.6278 32.6216C14.7151 32.5877 14.8193 32.5573 14.943 32.5319C15.0666 32.5064 15.1987 32.4931 15.3394 32.4931C15.5079 32.4931 15.6461 32.521 15.7539 32.5755C15.8618 32.6301 15.9358 32.7149 15.9758 32.8277C16.0158 32.9416 16.0194 33.0786 15.9843 33.2411L15.6994 34.5769C15.6945 34.6048 15.6873 34.6242 15.6788 34.6363C15.6703 34.6472 15.6521 34.6569 15.6267 34.663C15.5042 34.6945 15.3866 34.7188 15.2751 34.7357C15.1624 34.7527 15.0278 34.7612 14.869 34.7612C14.6545 34.7612 14.4847 34.7394 14.3587 34.6945C14.2326 34.6497 14.1465 34.5794 14.1017 34.4836C14.0568 34.3878 14.0508 34.2605 14.0847 34.1042L14.0883 34.0848C14.1138 33.9684 14.1514 33.8702 14.2011 33.7878C14.2508 33.7065 14.3187 33.6375 14.4035 33.5817C14.4884 33.5259 14.5914 33.4835 14.7139 33.4568C14.8363 33.4289 14.9842 33.4156 15.1563 33.4156H15.4315L15.4679 33.2435C15.4933 33.121 15.4836 33.0374 15.4388 32.9925C15.3939 32.9453 15.3103 32.9234 15.1878 32.9234ZM15.2339 34.3369L15.3563 33.7575H15.0812C14.9624 33.7575 14.8727 33.7684 14.8108 33.789C14.7502 33.8096 14.7054 33.8423 14.6775 33.8872C14.6496 33.9308 14.6278 33.9926 14.612 34.0714L14.606 34.0945C14.5902 34.1684 14.5902 34.2254 14.606 34.2642C14.6217 34.303 14.6544 34.3308 14.7078 34.3466C14.7599 34.3624 14.8411 34.3709 14.9502 34.3709C15.0618 34.3696 15.1551 34.3587 15.2339 34.3369ZM17.9323 34.6472C17.9287 34.6678 17.9166 34.686 17.8972 34.7042C17.8808 34.7199 17.8592 34.7289 17.8366 34.7297H17.4753C17.4535 34.7297 17.4377 34.7212 17.4268 34.7042C17.416 34.6873 17.4121 34.6669 17.4159 34.6472L17.6911 33.3538C17.7129 33.2507 17.7178 33.1683 17.7069 33.1065C17.6959 33.0459 17.6656 33.001 17.6135 32.9731C17.5626 32.9453 17.4874 32.9307 17.388 32.9307C17.268 32.9307 17.1371 32.9453 16.9941 32.9731L16.6377 34.6472C16.634 34.6703 16.6231 34.6897 16.6037 34.7054C16.5855 34.7212 16.5649 34.7297 16.5419 34.7297H16.1819C16.1588 34.7297 16.1419 34.7212 16.131 34.7042C16.1201 34.6873 16.1162 34.6669 16.12 34.6472L16.537 32.6883C16.5443 32.6495 16.5771 32.624 16.6328 32.6095C16.771 32.5743 16.9165 32.5452 17.0704 32.5246C17.2244 32.504 17.3662 32.4931 17.4947 32.4931C17.8026 32.4931 18.0136 32.561 18.1275 32.6968C18.2427 32.8325 18.2681 33.0507 18.2063 33.3502L17.9323 34.6472ZM20.6247 34.6618C20.6174 34.7018 20.5871 34.7248 20.5362 34.7321C20.4223 34.7503 20.318 34.7588 20.2222 34.7588C20.0671 34.7588 19.9483 34.743 19.8658 34.7115C19.7834 34.68 19.7325 34.6206 19.7095 34.5309C19.6864 34.4412 19.6937 34.3102 19.7301 34.1369L19.9907 32.9065L19.6792 32.8507C19.6282 32.8422 19.6076 32.8156 19.6161 32.7719L19.6549 32.5961C19.6587 32.5742 19.6704 32.5544 19.6876 32.5404C19.7058 32.5246 19.7264 32.5173 19.7483 32.5173H20.0731L20.1422 32.1961C20.1507 32.1525 20.1834 32.127 20.238 32.1173L20.615 32.0543H20.632C20.6732 32.0543 20.6889 32.0737 20.6793 32.1137L20.5932 32.5173H20.9896C21.0138 32.5173 21.032 32.5246 21.0429 32.538C21.0538 32.5525 21.0575 32.5707 21.0526 32.5949L21.0029 32.8265C20.9981 32.8483 20.9859 32.8665 20.9678 32.8822C20.9496 32.898 20.929 32.9053 20.9072 32.9053H20.5108L20.2501 34.1357C20.2295 34.2327 20.2247 34.2933 20.2356 34.3175C20.2465 34.3418 20.2865 34.3539 20.3556 34.3539H20.6065C20.6611 34.3539 20.6853 34.3733 20.6768 34.4133L20.6247 34.6618ZM22.9134 33.7841C22.8734 33.9708 22.8019 34.1381 22.6976 34.2872C22.5969 34.4334 22.4621 34.5528 22.3049 34.6351C22.1473 34.7176 21.9679 34.76 21.7678 34.76C21.5702 34.76 21.409 34.7188 21.2842 34.6351C21.1593 34.5527 21.0781 34.4363 21.0381 34.2872C20.9981 34.1381 20.9981 33.9708 21.0381 33.7841L21.1047 33.4689C21.1448 33.2823 21.2163 33.115 21.3193 32.9659C21.4199 32.8191 21.5552 32.6996 21.7133 32.618C21.8733 32.5355 22.0515 32.4931 22.2491 32.4931C22.4491 32.4931 22.6103 32.5343 22.7328 32.618C22.8552 32.7004 22.9364 32.8168 22.9764 32.9659C23.0164 33.115 23.0164 33.2823 22.9776 33.4689L22.9134 33.7841ZM22.397 33.7841L22.4637 33.4689C22.4976 33.3053 22.4891 33.1768 22.4382 33.081C22.3861 32.9865 22.2927 32.938 22.1558 32.938C22.02 32.938 21.9072 32.9853 21.8139 33.081C21.7218 33.1756 21.6575 33.3053 21.6236 33.4689L21.5569 33.7841C21.523 33.9478 21.5315 34.0763 21.5836 34.172C21.6357 34.2666 21.729 34.3151 21.8624 34.3151C21.9982 34.3151 22.1121 34.2678 22.2055 34.172C22.2988 34.0763 22.3618 33.9478 22.397 33.7841ZM26.5501 32.7259C26.4822 33.0483 26.3283 33.2823 26.0895 33.4265C25.8494 33.5708 25.5621 33.6435 25.2263 33.6435C25.2057 33.6435 25.1609 33.6423 25.0918 33.6387C25.0227 33.635 24.9766 33.6338 24.956 33.6314C24.9354 33.6302 24.91 33.629 24.8821 33.6278L24.6663 34.6497C24.6614 34.6727 24.6493 34.6909 24.6323 34.7066C24.6164 34.7203 24.5963 34.728 24.5754 34.7285H24.1826C24.1632 34.7285 24.1475 34.7212 24.1341 34.7054C24.1277 34.6978 24.1232 34.6888 24.1211 34.6791C24.119 34.6693 24.1193 34.6592 24.122 34.6497L24.6942 31.9537C24.7014 31.9161 24.7184 31.8894 24.7427 31.8724C24.7681 31.8555 24.8021 31.8433 24.8445 31.8373C25.0663 31.8033 25.3257 31.7852 25.6227 31.7852C25.9597 31.7852 26.2167 31.8555 26.3949 31.9961C26.5731 32.1367 26.6277 32.3682 26.5586 32.6895L26.5501 32.7259ZM26.0082 32.7259L26.0155 32.6919C26.0494 32.5283 26.0276 32.4119 25.9476 32.3416C25.8676 32.2713 25.727 32.2361 25.5258 32.2361C25.3997 32.2361 25.2821 32.2422 25.1742 32.2531L24.9754 33.1853C25.1003 33.1926 25.2154 33.1962 25.3221 33.1962C25.4627 33.1962 25.5791 33.1792 25.6712 33.1453C25.7634 33.1113 25.8373 33.0604 25.8919 32.9913C25.9464 32.9234 25.9864 32.835 26.0082 32.7259ZM27.4035 32.9234C27.1986 32.9234 26.9829 32.9574 26.7574 33.0253C26.6992 33.041 26.6762 33.0192 26.6883 32.9622L26.738 32.7234C26.7428 32.6992 26.7538 32.6798 26.7695 32.664C26.7853 32.6483 26.8095 32.6349 26.8435 32.6216C26.9307 32.5877 27.035 32.5573 27.1586 32.5319C27.2823 32.5064 27.4144 32.4931 27.555 32.4931C27.7235 32.4931 27.8617 32.521 27.9696 32.5755C28.0775 32.6301 28.1515 32.7149 28.1915 32.8277C28.2315 32.9416 28.2351 33.0786 28.2 33.2411L27.9151 34.5769C27.9102 34.6048 27.903 34.6242 27.8945 34.6363C27.886 34.6472 27.8678 34.6569 27.8423 34.663C27.7199 34.6945 27.6023 34.7188 27.4908 34.7357C27.3781 34.7527 27.2435 34.7612 27.0847 34.7612C26.8701 34.7612 26.7004 34.7394 26.5743 34.6945C26.4483 34.6497 26.3622 34.5794 26.3174 34.4836C26.2725 34.3878 26.2664 34.2605 26.3004 34.1042L26.304 34.0848C26.3295 33.9684 26.3671 33.8702 26.4168 33.7878C26.4665 33.7065 26.5343 33.6375 26.6192 33.5817C26.7041 33.5259 26.8071 33.4835 26.9295 33.4568C27.052 33.4289 27.1999 33.4156 27.372 33.4156H27.6472L27.6835 33.2435C27.709 33.121 27.6993 33.0374 27.6544 32.9925C27.6096 32.9453 27.5259 32.9234 27.4035 32.9234ZM27.4496 34.3369L27.572 33.7575H27.2968C27.178 33.7575 27.0883 33.7684 27.0265 33.789C26.9659 33.8096 26.921 33.8423 26.8932 33.8872C26.8653 33.9308 26.8435 33.9926 26.8277 34.0714L26.8216 34.0945C26.8059 34.1684 26.8059 34.2254 26.8216 34.2642C26.8374 34.303 26.8701 34.3308 26.9235 34.3466C26.9756 34.3624 27.0568 34.3709 27.1659 34.3709C27.2774 34.3696 27.372 34.3587 27.4496 34.3369ZM30.6426 32.5864C30.6408 32.5946 30.6375 32.6025 30.6329 32.6095L29.491 34.8982C29.4158 35.0509 29.3407 35.1709 29.2667 35.2582C29.1928 35.3455 29.0994 35.4097 28.9891 35.451C28.8788 35.4934 28.737 35.514 28.5636 35.514C28.4969 35.514 28.4242 35.5091 28.3454 35.4982C28.2666 35.4885 28.2048 35.4764 28.1599 35.4619C28.1078 35.4473 28.0848 35.4255 28.0908 35.3952L28.1442 35.1443C28.1478 35.1249 28.1587 35.1091 28.1781 35.0946C28.1963 35.08 28.2169 35.0739 28.2387 35.0739H28.246C28.28 35.0752 28.3527 35.08 28.4618 35.0873C28.5709 35.0946 28.6448 35.0982 28.6824 35.0982C28.7394 35.0982 28.7891 35.0909 28.8315 35.0776C28.874 35.063 28.9115 35.0388 28.9455 35.0024C28.9794 34.9661 29.0134 34.9139 29.0461 34.846L29.1019 34.7297H29.0449C29 34.7297 28.9588 34.7224 28.9212 34.7091C28.8836 34.6945 28.8509 34.6642 28.823 34.6157C28.7952 34.5672 28.7782 34.4969 28.7709 34.4048L28.6412 32.6107C28.6397 32.6017 28.6405 32.5925 28.6436 32.584C28.6521 32.5416 28.6824 32.521 28.7321 32.521H29.1285C29.1467 32.521 29.1613 32.5283 29.1722 32.5416C29.1831 32.5561 29.1879 32.5719 29.1879 32.5913L29.2449 34.1854C29.2449 34.2424 29.2558 34.2714 29.2788 34.2714H29.3152L30.0959 32.5877C30.1153 32.5428 30.1468 32.521 30.1892 32.521H30.5893C30.6074 32.521 30.622 32.527 30.6329 32.5416C30.6426 32.5525 30.6462 32.5683 30.6426 32.5864Z" fill="#099DD9"/>
<path fill-rule="evenodd" clip-rule="evenodd" d="M26.8164 28.0604L24.7677 25.1232L24.5592 24.9316H26.5788L27.9474 27.1525L28.0577 27.0627L28.8845 25.8335C29.0881 25.5317 29.0602 25.1801 28.7705 24.9329H30.6786L28.4735 28.0604L28.4723 30.3297L28.8614 30.7916H26.4903L26.8249 30.3358C26.8237 29.5806 26.7958 28.8156 26.8164 28.0604ZM21.2535 24.9329C21.4171 25.1571 21.4656 25.2359 21.4838 25.4359C21.4971 25.5753 21.4874 25.6541 21.4426 25.7838L19.9188 30.2024C19.8473 30.3843 19.7006 30.5843 19.486 30.7795H21.1492C21.0256 30.6704 20.9468 30.5394 20.9177 30.3843C20.891 30.2424 20.8922 30.1891 20.9237 30.0533L21.2619 29.0035H23.1967L23.4985 29.8121C23.53 29.897 23.5482 29.9757 23.5555 30.0667C23.5822 30.3685 23.4852 30.617 23.2452 30.7928H25.8515C25.5957 30.5649 25.3605 30.3261 25.2284 30.0376L23.3252 24.9329H21.2535ZM22.9118 28.2423H21.5274L22.199 26.3293L22.9118 28.2423ZM15.9814 24.9377L17.2919 24.9329H18.8823C19.7576 24.9329 20.4728 25.6481 20.4728 26.5233V26.7197C20.4728 27.5949 19.7563 28.2616 18.8823 28.2883L18.1574 28.3101C18.7405 28.0422 18.9841 27.3646 18.9114 26.7536C18.8532 26.2639 18.6011 25.7923 18.1804 25.7838L17.915 25.7778V30.1382C17.915 30.223 17.9295 30.2582 17.9744 30.3334C18.0459 30.4522 18.1404 30.571 18.2386 30.6885C18.2641 30.7188 18.2895 30.7504 18.315 30.7807H16.059C16.093 30.7395 16.1257 30.697 16.1572 30.6546C16.2251 30.5613 16.2857 30.4631 16.3318 30.3528C16.3609 30.2824 16.3754 30.2291 16.3754 30.1539V25.4699C16.3669 25.2262 16.1245 25.0868 15.9814 24.9377Z" fill="#085CA8"/>
<path fill-rule="evenodd" clip-rule="evenodd" d="M3.75 24.9062H5.57078L7.0994 29.2897L8.39528 25.659C8.41953 25.5184 8.39892 25.4724 8.34437 25.3511C8.27285 25.2032 8.19648 25.0602 8.12374 24.9135H9.48387C9.40265 25.2093 9.28385 25.5354 9.18202 25.8336L7.42549 30.9383C6.94545 30.8426 6.41207 30.6535 5.99748 30.2607C5.68594 29.9661 5.57562 29.6303 5.42167 29.2315L3.95244 25.3414C3.89668 25.1875 3.82637 25.0505 3.75 24.9062ZM11.021 26.961V30.0934C11.021 30.2207 11.0501 30.2437 11.1289 30.3455L11.4877 30.8135H9.77359L10.0633 30.371C10.1373 30.2498 10.17 30.2086 10.17 30.0667V25.6918L9.68752 24.9087H11.4647L14.3413 28.6133V25.6603C14.3413 25.5196 14.3134 25.4736 14.2382 25.3524C14.1413 25.2045 14.0407 25.0614 13.9449 24.9147H15.6578L15.3002 25.3827C15.2214 25.4845 15.1923 25.5075 15.1923 25.6348V30.9638C14.5437 30.8789 13.94 30.7201 13.4018 30.0328L11.021 26.961Z" fill="#EB2227"/>
<path fill-rule="evenodd" clip-rule="evenodd" d="M30.5469 26.3507C30.5469 26.2246 30.5651 26.0998 30.599 25.9798C30.6354 25.861 30.6851 25.7458 30.753 25.6331C30.879 25.4185 31.0621 25.2476 31.2985 25.1215C31.5373 24.9954 31.8112 24.9336 32.1288 24.9336C32.2573 24.9336 32.3798 24.9481 32.4901 24.9797C32.6028 25.0112 32.7131 25.0597 32.8247 25.1239C33.0332 25.2439 33.198 25.4148 33.318 25.6355C33.3799 25.7519 33.4284 25.8719 33.4623 25.9967C33.4938 26.1228 33.5108 26.2598 33.5108 26.4052C33.5108 26.6053 33.4671 26.8126 33.3787 27.0247C33.2902 27.2356 33.1641 27.415 32.9992 27.5605L33.2041 27.7569C33.2865 27.8345 33.3726 27.9072 33.4647 27.9751C33.5569 28.043 33.6587 28.1012 33.7714 28.1521C33.8842 28.2042 34.0017 28.2345 34.1218 28.2442C34.0151 28.3327 33.9011 28.4006 33.7835 28.4491C33.6635 28.4976 33.5387 28.5194 33.409 28.5194C33.2986 28.5194 33.1859 28.4976 33.0744 28.4491C32.9604 28.403 32.8538 28.3448 32.7531 28.2769C32.6465 28.2042 32.5507 28.1303 32.4646 28.0599L32.2355 27.8672C32.2198 27.8672 32.1991 27.8672 32.1737 27.8696C32.1482 27.872 32.1179 27.8757 32.0816 27.8817L31.9458 27.8939C31.6827 27.8939 31.4451 27.8236 31.2306 27.6878C31.016 27.552 30.8475 27.3653 30.7299 27.1302C30.6717 27.0138 30.6257 26.8914 30.5954 26.7616C30.5638 26.6271 30.5469 26.4925 30.5469 26.3507ZM31.3591 26.3592C31.3591 26.4489 31.3688 26.5434 31.3906 26.6404C31.4063 26.7083 31.4306 26.7944 31.467 26.8986C31.5227 27.0635 31.6052 27.1993 31.713 27.3035C31.8197 27.4102 31.9519 27.4623 32.1082 27.4623C32.3107 27.4623 32.461 27.3823 32.5568 27.2223C32.6525 27.0623 32.7034 26.8574 32.7034 26.6065C32.7034 26.5422 32.695 26.438 32.6828 26.2974C32.6683 26.1931 32.6489 26.0973 32.6246 26.0113C32.6004 25.9216 32.5725 25.8428 32.541 25.7749C32.4804 25.6391 32.4004 25.5361 32.2961 25.4682C32.1943 25.3979 32.0719 25.3639 31.9337 25.3639C31.8694 25.3639 31.8088 25.3761 31.753 25.4003C31.6985 25.4221 31.6464 25.4561 31.6003 25.5009C31.5167 25.5809 31.4536 25.6852 31.416 25.8113C31.3785 25.9373 31.3579 26.0755 31.3579 26.2246V26.301C31.3579 26.3252 31.3591 26.3422 31.3591 26.3592ZM34.5776 26.3883C34.6629 26.3753 34.7444 26.3439 34.8164 26.2961C34.8867 26.2477 34.9412 26.1834 34.9812 26.1058C35.0018 26.0682 35.0152 26.0295 35.0273 25.9894C35.037 25.9494 35.0418 25.907 35.0418 25.8646C35.0418 25.7349 35.0079 25.6258 34.9352 25.5373C34.8649 25.4512 34.757 25.4076 34.6127 25.4076H34.5788V26.3883H34.5776ZM34.5776 26.615V27.4114C34.5776 27.6102 34.6394 27.7448 34.7618 27.8139V27.832H33.6066V27.8139C33.7229 27.7472 33.7835 27.6151 33.7835 27.4175V25.4682C33.7835 25.3494 33.7714 25.256 33.752 25.1894C33.7302 25.1215 33.6817 25.0609 33.6078 25.0088V25.0003H35.0091C35.1655 25.0003 35.3061 25.0281 35.4298 25.0863C35.5546 25.1445 35.6528 25.2282 35.7243 25.3445C35.7619 25.4003 35.7886 25.4646 35.8068 25.5349C35.8274 25.6027 35.8371 25.6791 35.8371 25.7579C35.8371 25.8646 35.8031 25.9785 35.7328 26.1046C35.6649 26.2295 35.5328 26.341 35.334 26.438L35.8892 27.3738C36.0213 27.5763 36.1413 27.7205 36.2504 27.8066L35.7631 27.843L35.6407 27.8466H35.5267C35.4164 27.8466 35.3304 27.8284 35.2661 27.7908C35.2043 27.7545 35.1437 27.6829 35.0891 27.5763L34.5776 26.615Z" fill="#EB2227"/>
</svg>
