<svg width="132" height="64" viewBox="0 0 132 64" fill="none" xmlns="http://www.w3.org/2000/svg">
<path d="M26.0224 35.8762H1.68575C0.926909 35.8762 0.311035 36.4907 0.311035 37.2509C0.311035 38.0112 0.926909 38.6257 1.68575 38.6257H26.0238C26.7826 38.6257 27.3985 38.0112 27.3985 37.2509C27.3985 36.4907 26.7826 35.8762 26.0224 35.8762Z" fill="#BFBFBF"/>
<path d="M26.0224 27.0272H10.5349C9.77603 27.0272 9.16016 27.643 9.16016 28.4019C9.16016 29.1607 9.77603 29.7766 10.5349 29.7766H26.0224C26.7813 29.7766 27.3972 29.1607 27.3972 28.4019C27.3972 27.643 26.7827 27.0272 26.0224 27.0272Z" fill="#BFBFBF"/>
<path d="M26.0225 18.1768H19.384C18.6252 18.1768 18.0093 18.7926 18.0093 19.5515C18.0093 20.3103 18.6252 20.9262 19.384 20.9262H26.0225C26.7814 20.9262 27.3972 20.3103 27.3972 19.5515C27.3972 18.7926 26.7827 18.1768 26.0225 18.1768Z" fill="#BFBFBF"/>
<path d="M128.086 26.2805L120.702 25.4694L113.52 11.5311C113.285 11.0734 112.812 10.786 112.298 10.786H92.7044V1.37472C92.7044 0.615874 92.0899 0 91.3297 0H35.5656C34.8068 0 34.1909 0.615874 34.1909 1.37472V47.678C34.1909 48.4382 34.8068 49.0527 35.5656 49.0527H43.0743C43.8332 49.0527 44.4491 48.4382 44.4491 47.678C44.4491 46.9178 43.8332 46.3033 43.0743 46.3033H36.9404V2.74944H89.9536V46.3033H69.4401C68.6798 46.3033 68.0653 46.9178 68.0653 47.678C68.0653 48.4382 68.6798 49.0527 69.4401 49.0527H91.3297C91.9373 49.0527 92.4377 48.6513 92.6192 48.1041C92.9326 47.8526 93.1457 47.4828 93.1457 47.0484V13.5355H111.462L118.597 27.3858C118.808 27.7954 119.21 28.0731 119.668 28.1226L127.784 29.0134C128.477 29.0904 128.983 29.6939 128.945 30.2974L125.603 54.7633C125.501 55.5166 126.028 56.2095 126.778 56.3126C126.841 56.3208 126.905 56.3249 126.967 56.3249C127.643 56.3249 128.233 55.8259 128.327 55.1372L131.679 30.5779C131.828 28.4072 130.249 26.5197 128.086 26.2805Z" fill="#BFBFBF"/>
<path d="M112.19 28.3662C112.442 27.962 112.465 27.4561 112.253 27.03L108.322 19.1089C108.089 18.6415 107.612 18.3459 107.09 18.3459H100.084C99.324 18.3459 98.7095 18.9618 98.7095 19.7206V27.6417C98.7095 28.4006 99.324 29.0164 100.084 29.0164H111.021C111.497 29.0164 111.94 28.7704 112.19 28.3662ZM101.459 26.267V21.0953H106.237L108.804 26.267H101.459Z" fill="#BFBFBF"/>
<path d="M96.8217 53.5757H72.4851C71.7249 53.5757 71.1104 54.1902 71.1104 54.9505C71.1104 55.7107 71.7249 56.3252 72.4851 56.3252H96.8217C97.5819 56.3252 98.1964 55.7107 98.1964 54.9505C98.1964 54.1902 97.5819 53.5757 96.8217 53.5757Z" fill="#BFBFBF"/>
<path d="M111.879 43.599C106.253 43.599 101.678 48.1741 101.678 53.7967C101.678 59.4234 106.253 63.9998 111.879 63.9998C117.501 63.9998 122.076 59.4234 122.076 53.7967C122.076 48.1741 117.501 43.599 111.879 43.599ZM111.879 61.2504C107.771 61.2504 104.428 57.9057 104.428 53.7967C104.428 49.6904 107.771 46.3484 111.879 46.3484C115.985 46.3484 119.327 49.6904 119.327 53.7967C119.327 57.9057 115.985 61.2504 111.879 61.2504Z" fill="#BFBFBF"/>
<path d="M56.702 43.599C51.078 43.599 46.5029 48.1741 46.5029 53.7967C46.5029 59.4234 51.078 63.9998 56.702 63.9998C62.3246 63.9998 66.8996 59.4234 66.8996 53.7967C66.8996 48.1741 62.3246 43.599 56.702 43.599ZM56.702 61.2504C52.5943 61.2504 49.2524 57.9057 49.2524 53.7967C49.2524 49.6904 52.5943 46.3484 56.702 46.3484C60.8096 46.3484 64.1502 49.6904 64.1502 53.7967C64.1502 57.9057 60.8096 61.2504 56.702 61.2504Z" fill="#BFBFBF"/>
</svg>
