<svg width="80" height="80" viewBox="0 0 80 80" fill="none" xmlns="http://www.w3.org/2000/svg">
<rect width="80" height="80" rx="40" fill="#EBEBEB"/>
<path d="M40.0233 41.8387C47.1362 41.8387 52.9427 36.0807 52.9427 28.9194C52.9427 21.8065 47.1846 16 40.0233 16C32.862 16 27.104 21.8065 27.104 28.9194C27.104 36.0323 32.862 41.8387 40.0233 41.8387ZM46.1201 34.0484C45.5395 35.9839 43.0233 37.4355 40.0233 37.4355C37.0233 37.4355 34.5072 35.9839 33.9265 34.0484H46.1201Z" fill="white"/>
<path d="M61.8459 55.1935V59.4516C61.8459 60.0806 61.362 60.8064 60.7814 61.0484C58.9427 61.871 54.4427 63.4194 45.8782 63.9032C45.7814 63.9032 45.733 63.9032 45.6362 63.9032C45.5395 63.9032 45.4427 63.9032 45.3459 63.9032C45.2007 63.9032 45.0556 63.9032 44.9104 63.9032C44.9104 63.9032 44.9104 63.9032 44.862 63.9032C43.362 63.9516 41.7169 64 39.9749 64C27.5394 64 21.4427 61.9677 19.2169 60.9516C18.6362 60.7097 18.1523 59.9839 18.1523 59.3548V55.0968C18.1523 48.7097 22.9911 43.4355 29.1846 42.7097C29.3782 42.7097 29.6685 42.7581 29.8136 42.9032C32.6685 44.9839 36.1524 46.1935 39.9749 46.1935C43.7491 46.1935 47.2814 44.9355 50.1362 42.9032C50.2814 42.8064 50.5717 42.7097 50.7653 42.7097C57.0072 43.5322 61.8459 48.8064 61.8459 55.1935Z" fill="white"/>
</svg>
