<svg width="18" height="18" viewBox="0 0 18 18" fill="none" xmlns="http://www.w3.org/2000/svg">
<path d="M8.99973 1.5C7.03473 1.5 5.43723 3.0975 5.43723 5.0625C5.43723 6.99 6.94473 8.55 8.90973 8.6175C8.96973 8.61 9.02973 8.61 9.07473 8.6175C9.08973 8.6175 9.09723 8.6175 9.11223 8.6175C9.11973 8.6175 9.11973 8.6175 9.12723 8.6175C11.0472 8.55 12.5547 6.99 12.5622 5.0625C12.5622 3.0975 10.9647 1.5 8.99973 1.5Z" fill="#DD2033"/>
<path d="M12.8097 10.6125C10.7172 9.2175 7.30473 9.2175 5.19723 10.6125C4.24473 11.25 3.71973 12.1125 3.71973 13.035C3.71973 13.9575 4.24473 14.8125 5.18973 15.4425C6.23973 16.1475 7.61973 16.5 8.99973 16.5C10.3797 16.5 11.7597 16.1475 12.8097 15.4425C13.7547 14.805 14.2797 13.95 14.2797 13.02C14.2722 12.0975 13.7547 11.2425 12.8097 10.6125Z" fill="#DD2033"/>
</svg>
 