<svg width="20" height="20" viewBox="0 0 20 20" fill="none" xmlns="http://www.w3.org/2000/svg">
<rect x="1" y="1" width="18" height="18" rx="9" fill="url(#paint0_radial_589_15945)"/>
<rect x="1" y="1" width="18" height="18" rx="9" stroke="#A61720" stroke-width="2"/>
<g filter="url(#filter0_d_589_15945)">
<path d="M16.9949 11.3769C16.9128 11.4179 16.9282 11.5051 16.8974 11.5718C16.7179 11.9461 16.3487 12.1256 15.9179 12.0179C15.3487 11.8795 14.8923 11.5359 14.4308 11.2025C14.3282 11.1256 14.3744 11.0795 14.4513 11.0384C14.9231 10.782 15.3949 10.5256 15.9333 10.4436C16.4462 10.3666 16.7641 10.5564 16.9436 11.0436C16.9538 11.0743 16.9795 11.0948 17 11.1205C16.9949 11.2077 16.9949 11.2948 16.9949 11.3769Z" fill="#FAB731"/>
<path d="M3.00001 11.0692C3.0718 11.0487 3.0718 10.982 3.09744 10.9307C3.28206 10.5512 3.60001 10.382 4.01026 10.4384C4.56924 10.5153 5.05642 10.782 5.5436 11.0384C5.64616 11.0948 5.65642 11.141 5.55385 11.2179C5.12821 11.5307 4.69744 11.8384 4.18462 11.9923C3.61026 12.1615 3.22052 11.9512 3.04616 11.3769C3.04103 11.3564 3.01539 11.341 3.00001 11.3205C3.00001 11.2435 3.00001 11.1564 3.00001 11.0692Z" fill="#FAB731"/>
<path d="M16.9949 13.8385C16.9333 13.859 16.9436 13.9205 16.9282 13.9615C16.7487 14.4179 16.3641 14.5974 15.8205 14.4897C15.4359 14.4128 14.6974 14.0795 14.3385 13.8128C14.8256 13.4436 15.3077 13.0846 15.8974 12.9308C16.4 12.8026 16.7538 13.0128 16.9385 13.5051C16.9487 13.5359 16.9744 13.5564 16.9949 13.5821C16.9949 13.6692 16.9949 13.7564 16.9949 13.8385Z" fill="#FAB731"/>
<path d="M11.4051 5.48462C11.4051 5.50001 11.4051 5.51539 11.4051 5.53077C11.2872 5.62821 11.1641 5.62821 11.0461 5.53077V5.47949C11.1692 5.48462 11.2872 5.48462 11.4051 5.48462Z" fill="#FAB731"/>
<path d="M8.94872 5.4847C8.94872 5.50009 8.94872 5.51547 8.94872 5.53598C8.83077 5.62829 8.70769 5.62829 8.58974 5.53598V5.4847C8.70769 5.4847 8.82564 5.4847 8.94872 5.4847Z" fill="#FAB731"/>
<path d="M3.04616 13.8435C3.03078 13.8435 3.01539 13.8435 3.00001 13.8384C3.00001 13.7512 3.00001 13.6692 3.00001 13.582C3.01539 13.582 3.03078 13.582 3.04103 13.5768C3.12821 13.6692 3.12821 13.7563 3.04616 13.8435Z" fill="#FAB731"/>
<path d="M16.0256 8.99222C16.0359 9.25889 15.9282 9.47427 15.7231 9.63837C15.2615 10.0179 14.7077 10.182 14.1487 10.3409C14.041 10.3717 14.0103 10.3256 14.0256 10.223C14.1128 9.64863 14.2051 9.07427 14.5231 8.57171C14.7333 8.23837 15.1128 8.11017 15.4564 8.21786C15.8051 8.33581 16.0256 8.63324 16.0256 8.99222Z" fill="#FAB731"/>
<path d="M13.482 6.44363C13.8308 6.44876 14.1282 6.65902 14.241 6.98722C14.359 7.32056 14.2513 7.68979 13.9641 7.90004C13.5538 8.20774 13.0667 8.30004 12.5795 8.39235C12.082 8.48466 12.0769 8.46928 12.2308 7.9821C12.3538 7.5821 12.5077 7.19235 12.7487 6.84876C12.9282 6.60261 13.1641 6.44363 13.482 6.44363Z" fill="#FAB731"/>
<path d="M3.96923 9.01798C3.97436 8.64362 4.17436 8.3667 4.51282 8.23849C4.82051 8.12567 5.2 8.21798 5.41026 8.50003C5.79487 9.01798 5.88205 9.63849 5.96923 10.259C5.98462 10.3667 5.92308 10.3718 5.84616 10.3513C5.30769 10.1975 4.7641 10.0334 4.31282 9.67952C4.08718 9.50516 3.95385 9.28465 3.96923 9.01798Z" fill="#FAB731"/>
<path d="M3.04616 13.8435C3.04616 13.7563 3.04616 13.6693 3.04616 13.5821C3.19488 13.0282 3.62564 12.7821 4.18462 12.9564C4.73846 13.1308 5.2 13.459 5.68205 13.8334C5.12308 14.1564 4.58975 14.459 3.95898 14.5154C3.46154 14.5513 3.17437 14.3256 3.04616 13.8435Z" fill="#FAB731"/>
<path d="M5.71283 7.28462C5.71796 6.90514 5.93847 6.60257 6.26155 6.48462C6.58462 6.3718 6.93847 6.47437 7.17949 6.76667C7.4359 7.07437 7.57949 7.43847 7.7077 7.8077C7.77949 8.0077 7.95385 8.28462 7.84616 8.40257C7.71795 8.54616 7.4359 8.39231 7.22052 8.35129C6.82565 8.27437 6.44103 8.1718 6.09744 7.94616C5.84103 7.78206 5.71796 7.54616 5.71283 7.28462Z" fill="#FAB731"/>
<path d="M8.58462 5.53077C8.70257 5.53077 8.82564 5.53077 8.94359 5.53077C9.47692 5.73077 9.67692 6.12565 9.51282 6.66411C9.35385 7.17693 9.05641 7.61283 8.73333 8.03847C8.67692 8.11026 8.63077 8.16154 8.56923 8.04359C8.30256 7.55642 8.02564 7.06924 7.9641 6.50513C7.90769 5.98718 8.09231 5.71026 8.58462 5.53077Z" fill="#FAB731"/>
<path d="M11.0462 5.53598C11.1641 5.53598 11.2872 5.53598 11.4051 5.53598C11.9487 5.73598 12.1385 6.09496 12 6.68983C11.8923 7.16675 11.6667 7.60265 11.4308 8.02829C11.3795 8.12573 11.3333 8.1565 11.2513 8.0488C10.9333 7.62316 10.6308 7.19239 10.4718 6.67444C10.3128 6.13085 10.5179 5.73598 11.0462 5.53598Z" fill="#FAB731"/>
<path d="M13.6051 9.15135C13.5692 9.53597 13.5231 9.91545 13.3231 10.2539C13.1385 10.5719 12.8 10.7462 12.4718 10.7001C12.1487 10.6539 11.8718 10.3872 11.7949 10.0488C11.718 9.71545 11.8615 9.38212 12.1846 9.17699C12.5744 8.93084 13.0154 8.88981 13.4564 8.87443C13.6872 8.8693 13.5692 9.05392 13.6051 9.15135Z" fill="#FAB731"/>
<path d="M6.38462 9.08469C6.34359 8.91546 6.44616 8.84879 6.6718 8.87443C7.11283 8.92058 7.55898 8.96161 7.91795 9.25905C8.21026 9.49494 8.29744 9.85904 8.15898 10.2026C8.02565 10.5206 7.69231 10.736 7.34872 10.7052C7.06667 10.6796 6.85641 10.5308 6.70257 10.3001C6.4718 9.94622 6.4359 9.55135 6.38462 9.08469Z" fill="#FAB731"/>
<path d="M13.7077 13.2846C13.1949 13.2898 12.8154 12.8795 12.8462 12.4128C12.8769 11.9564 13.2923 11.6128 13.7385 11.6693C14.2564 11.7359 14.6462 12.0282 15 12.3821C15.0564 12.4385 15.0769 12.4846 15.0103 12.5513C14.6308 12.9359 14.2154 13.2487 13.7077 13.2846Z" fill="#FAB731"/>
<path d="M6.27692 13.2847C5.77436 13.2436 5.3641 12.9359 4.98974 12.5616C4.9282 12.5 4.93846 12.4436 5 12.3872C5.34872 12.0385 5.73333 11.7462 6.24102 11.6795C6.70769 11.618 7.12308 11.9616 7.14872 12.4334C7.17436 12.8949 6.78974 13.2949 6.27692 13.2847Z" fill="#FAB731"/>
<path d="M9.18975 8.7871C9.23077 8.22812 9.56923 7.83325 9.92821 7.45376C9.98462 7.39223 10.0308 7.41787 10.0769 7.46915C10.3846 7.78197 10.6615 8.12043 10.7744 8.55633C10.8974 9.04351 10.6718 9.45376 10.2256 9.59735C9.84616 9.72043 9.42564 9.52043 9.25128 9.14094C9.2 9.02812 9.19487 8.91017 9.18975 8.7871Z" fill="#FAB731"/>
<path d="M3.04616 13.8435C3.03078 13.8435 3.01539 13.8435 3.00001 13.8384C3.00001 13.7512 3.00001 13.6692 3.00001 13.582C3.01539 13.582 3.03078 13.582 3.04103 13.5768C3.12821 13.6692 3.12821 13.7563 3.04616 13.8435ZM3.04616 13.8435C3.04616 13.7563 3.04616 13.6693 3.04616 13.5821C3.19488 13.0282 3.62564 12.7821 4.18462 12.9564C4.73846 13.1308 5.2 13.459 5.68205 13.8334C5.12308 14.1564 4.58975 14.459 3.95898 14.5154C3.46154 14.5513 3.17437 14.3256 3.04616 13.8435ZM16.9949 11.3769C16.9128 11.4179 16.9282 11.5051 16.8974 11.5718C16.7179 11.9461 16.3487 12.1256 15.9179 12.0179C15.3487 11.8795 14.8923 11.5359 14.4308 11.2025C14.3282 11.1256 14.3744 11.0795 14.4513 11.0384C14.9231 10.782 15.3949 10.5256 15.9333 10.4436C16.4462 10.3666 16.7641 10.5564 16.9436 11.0436C16.9538 11.0743 16.9795 11.0948 17 11.1205C16.9949 11.2077 16.9949 11.2948 16.9949 11.3769ZM3.00001 11.0692C3.0718 11.0487 3.0718 10.982 3.09744 10.9307C3.28206 10.5512 3.60001 10.382 4.01026 10.4384C4.56924 10.5153 5.05642 10.782 5.5436 11.0384C5.64616 11.0948 5.65642 11.141 5.55385 11.2179C5.12821 11.5307 4.69744 11.8384 4.18462 11.9923C3.61026 12.1615 3.22052 11.9512 3.04616 11.3769C3.04103 11.3564 3.01539 11.341 3.00001 11.3205C3.00001 11.2435 3.00001 11.1564 3.00001 11.0692ZM16.9949 13.8385C16.9333 13.859 16.9436 13.9205 16.9282 13.9615C16.7487 14.4179 16.3641 14.5974 15.8205 14.4897C15.4359 14.4128 14.6974 14.0795 14.3385 13.8128C14.8256 13.4436 15.3077 13.0846 15.8974 12.9308C16.4 12.8026 16.7538 13.0128 16.9385 13.5051C16.9487 13.5359 16.9744 13.5564 16.9949 13.582C16.9949 13.6692 16.9949 13.7564 16.9949 13.8385ZM11.4051 5.48462C11.4051 5.50001 11.4051 5.51539 11.4051 5.53077C11.2872 5.62821 11.1641 5.62821 11.0461 5.53077V5.47949C11.1692 5.48462 11.2872 5.48462 11.4051 5.48462ZM8.94872 5.4847C8.94872 5.50009 8.94872 5.51547 8.94872 5.53598C8.83077 5.62829 8.70769 5.62829 8.58974 5.53598V5.4847C8.70769 5.4847 8.82564 5.4847 8.94872 5.4847ZM16.0256 8.99222C16.0359 9.25889 15.9282 9.47427 15.7231 9.63837C15.2615 10.0179 14.7077 10.182 14.1487 10.3409C14.041 10.3717 14.0103 10.3256 14.0256 10.223C14.1128 9.64863 14.2051 9.07427 14.5231 8.57171C14.7333 8.23837 15.1128 8.11017 15.4564 8.21786C15.8051 8.33581 16.0256 8.63324 16.0256 8.99222ZM13.482 6.44363C13.8308 6.44876 14.1282 6.65902 14.241 6.98722C14.359 7.32056 14.2513 7.68979 13.9641 7.90004C13.5538 8.20774 13.0667 8.30004 12.5795 8.39235C12.082 8.48466 12.0769 8.46928 12.2308 7.9821C12.3538 7.5821 12.5077 7.19235 12.7487 6.84876C12.9282 6.60261 13.1641 6.44363 13.482 6.44363ZM3.96923 9.01798C3.97436 8.64362 4.17436 8.3667 4.51282 8.23849C4.82051 8.12567 5.2 8.21798 5.41026 8.50003C5.79487 9.01798 5.88205 9.63849 5.96923 10.259C5.98462 10.3667 5.92308 10.3718 5.84615 10.3513C5.30769 10.1975 4.7641 10.0334 4.31282 9.67952C4.08718 9.50516 3.95385 9.28465 3.96923 9.01798ZM5.71283 7.28462C5.71796 6.90514 5.93847 6.60257 6.26154 6.48462C6.58462 6.3718 6.93847 6.47437 7.17949 6.76667C7.4359 7.07437 7.57949 7.43847 7.7077 7.8077C7.77949 8.0077 7.95385 8.28462 7.84616 8.40257C7.71795 8.54616 7.4359 8.39231 7.22052 8.35129C6.82565 8.27437 6.44103 8.1718 6.09744 7.94616C5.84103 7.78206 5.71796 7.54616 5.71283 7.28462ZM8.58462 5.53077C8.70257 5.53077 8.82564 5.53077 8.94359 5.53077C9.47692 5.73077 9.67692 6.12565 9.51282 6.66411C9.35384 7.17693 9.05641 7.61283 8.73333 8.03847C8.67692 8.11026 8.63077 8.16154 8.56923 8.04359C8.30256 7.55641 8.02564 7.06924 7.9641 6.50513C7.90769 5.98718 8.09231 5.71026 8.58462 5.53077ZM11.0462 5.53598C11.1641 5.53598 11.2872 5.53598 11.4051 5.53598C11.9487 5.73598 12.1385 6.09496 12 6.68983C11.8923 7.16675 11.6667 7.60265 11.4308 8.02829C11.3795 8.12573 11.3333 8.15649 11.2513 8.0488C10.9333 7.62316 10.6308 7.19239 10.4718 6.67444C10.3128 6.13085 10.5179 5.73598 11.0462 5.53598ZM13.6051 9.15135C13.5692 9.53597 13.5231 9.91545 13.3231 10.2539C13.1385 10.5719 12.8 10.7462 12.4718 10.7001C12.1487 10.6539 11.8718 10.3872 11.7949 10.0488C11.718 9.71545 11.8615 9.38212 12.1846 9.17699C12.5744 8.93084 13.0154 8.88981 13.4564 8.87443C13.6872 8.8693 13.5692 9.05392 13.6051 9.15135ZM6.38462 9.08469C6.34359 8.91546 6.44616 8.84879 6.6718 8.87443C7.11283 8.92058 7.55898 8.96161 7.91795 9.25905C8.21026 9.49494 8.29744 9.85904 8.15898 10.2026C8.02565 10.5206 7.69231 10.736 7.34872 10.7052C7.06667 10.6796 6.85642 10.5308 6.70257 10.3001C6.4718 9.94622 6.4359 9.55135 6.38462 9.08469ZM13.7077 13.2846C13.1949 13.2898 12.8154 12.8795 12.8462 12.4128C12.8769 11.9564 13.2923 11.6128 13.7385 11.6693C14.2564 11.7359 14.6462 12.0282 15 12.3821C15.0564 12.4385 15.0769 12.4846 15.0103 12.5513C14.6308 12.9359 14.2154 13.2487 13.7077 13.2846ZM6.27692 13.2847C5.77436 13.2436 5.3641 12.9359 4.98974 12.5616C4.9282 12.5 4.93846 12.4436 5 12.3872C5.34872 12.0385 5.73333 11.7462 6.24102 11.6795C6.70769 11.618 7.12308 11.9616 7.14872 12.4334C7.17436 12.8949 6.78974 13.2949 6.27692 13.2847ZM9.18975 8.7871C9.23077 8.22812 9.56923 7.83325 9.92821 7.45376C9.98462 7.39223 10.0308 7.41787 10.0769 7.46915C10.3846 7.78197 10.6615 8.12043 10.7744 8.55633C10.8974 9.04351 10.6718 9.45376 10.2256 9.59735C9.84616 9.72043 9.42564 9.52043 9.25128 9.14094C9.2 9.02812 9.19487 8.91017 9.18975 8.7871Z" stroke="#FAB731" stroke-width="0.2" stroke-linejoin="round"/>
</g>
<defs>
<filter id="filter0_d_589_15945" x="2.70039" y="5.37988" width="14.3992" height="9.64023" filterUnits="userSpaceOnUse" color-interpolation-filters="sRGB">
<feFlood flood-opacity="0" result="BackgroundImageFix"/>
<feColorMatrix in="SourceAlpha" type="matrix" values="0 0 0 0 0 0 0 0 0 0 0 0 0 0 0 0 0 0 127 0" result="hardAlpha"/>
<feOffset dx="-0.2" dy="0.4"/>
<feComposite in2="hardAlpha" operator="out"/>
<feColorMatrix type="matrix" values="0 0 0 0 0.52549 0 0 0 0 0.0705882 0 0 0 0 0.0980392 0 0 0 1 0"/>
<feBlend mode="normal" in2="BackgroundImageFix" result="effect1_dropShadow_589_15945"/>
<feBlend mode="normal" in="SourceGraphic" in2="effect1_dropShadow_589_15945" result="shape"/>
</filter>
<radialGradient id="paint0_radial_589_15945" cx="0" cy="0" r="1" gradientUnits="userSpaceOnUse" gradientTransform="translate(9 14) rotate(146.31) scale(10.8167)">
<stop stop-color="#EC323D"/>
<stop offset="1" stop-color="#741016"/>
</radialGradient>
</defs>
</svg>
