<svg width="32" height="32" viewBox="0 0 32 32" fill="none" xmlns="http://www.w3.org/2000/svg">
<path d="M16.0003 22.2222C15.0627 22.2222 14.1461 21.9442 13.3665 21.4233C12.5869 20.9024 11.9793 20.1619 11.6205 19.2957C11.2617 18.4294 11.1678 17.4762 11.3507 16.5566C11.5336 15.637 11.9851 14.7923 12.6481 14.1293C13.3111 13.4663 14.1559 13.0148 15.0755 12.8318C15.9951 12.6489 16.9483 12.7428 17.8146 13.1016C18.6808 13.4604 19.4212 14.0681 19.9421 14.8477C20.463 15.6273 20.7411 16.5439 20.7411 17.4815C20.7411 18.7388 20.2416 19.9446 19.3526 20.8337C18.4635 21.7228 17.2577 22.2222 16.0003 22.2222ZM16.0003 13.9259C15.2971 13.9259 14.6097 14.1345 14.025 14.5252C13.4403 14.9158 12.9846 15.4711 12.7154 16.1208C12.4463 16.7705 12.3759 17.4854 12.5131 18.1751C12.6503 18.8649 12.9889 19.4984 13.4862 19.9956C13.9834 20.4929 14.617 20.8315 15.3067 20.9687C15.9964 21.1059 16.7113 21.0355 17.361 20.7664C18.0107 20.4973 18.566 20.0416 18.9567 19.4568C19.3474 18.8721 19.5559 18.1847 19.5559 17.4815C19.5559 16.5385 19.1813 15.6341 18.5145 14.9673C17.8477 14.3005 16.9433 13.9259 16.0003 13.9259Z" fill="black"/>
<path d="M24.6878 6.56001L21.547 3.7689C21.4394 3.67255 21.3003 3.61881 21.1559 3.61779H18.4478L20.4181 1.65927L19.5826 0.811859L16.7618 3.61779H10.8359C10.6915 3.61881 10.5524 3.67255 10.4448 3.7689L7.59739 6.2963C7.5367 6.35257 7.48848 6.42093 7.45582 6.49696C7.42316 6.573 7.40679 6.65504 7.40776 6.73779V27.9674C7.40752 28.1181 7.46474 28.2633 7.56776 28.3733L9.90553 30.8948C10.1102 31.1217 10.3595 31.3039 10.6379 31.4298C10.9163 31.5558 11.2178 31.6228 11.5233 31.6267H20.4774C20.7832 31.623 21.085 31.5557 21.3635 31.4292C21.642 31.3027 21.8911 31.1197 22.0952 30.8919L24.7292 28.0504C24.8323 27.9403 24.8895 27.7952 24.8892 27.6445V7.00445C24.8891 6.92031 24.8711 6.83716 24.8364 6.76053C24.8016 6.6839 24.751 6.61554 24.6878 6.56001ZM23.7041 26.9096H20.1485V28.0948H22.7944L21.1974 29.8074C21.1034 29.9147 20.9877 30.0008 20.858 30.0601C20.7283 30.1193 20.5874 30.1504 20.4448 30.1511H11.5559C11.414 30.1481 11.2742 30.1154 11.1456 30.0552C11.0171 29.995 10.9025 29.9086 10.8092 29.8015L9.20331 28.0889H16.5929V26.9037H8.59294V7.74519H11.5559V6.56001H9.09368L11.0966 4.78223H20.9041L22.9041 6.56001H15.1115V7.74519H23.7041V26.9096Z" fill="black"/>
<path d="M18.9633 27.5556C18.9633 27.2283 18.698 26.963 18.3707 26.963C18.0434 26.963 17.7781 27.2283 17.7781 27.5556C17.7781 27.8828 18.0434 28.1482 18.3707 28.1482C18.698 28.1482 18.9633 27.8828 18.9633 27.5556Z" fill="black"/>
<path d="M13.9263 7.11112C13.9263 6.78384 13.661 6.51853 13.3337 6.51853C13.0064 6.51853 12.7411 6.78384 12.7411 7.11112C12.7411 7.4384 13.0064 7.70371 13.3337 7.70371C13.661 7.70371 13.9263 7.4384 13.9263 7.11112Z" fill="black"/>
</svg>
