<svg width="32" height="32" viewBox="0 0 32 32" fill="none" xmlns="http://www.w3.org/2000/svg">
<path d="M15.8541 17.8098C15.7655 17.4601 15.4103 17.2484 15.0607 17.3371C14.8117 17.4002 14.5589 17.444 14.2912 17.4904C13.4156 17.6421 12.4231 17.8141 11.5016 18.7355C10.7362 19.5009 10.4809 20.3309 10.3322 21.0417C10.2583 21.3948 10.4846 21.7408 10.8377 21.8146C10.8828 21.8241 10.9278 21.8286 10.9721 21.8286C11.2747 21.8286 11.5463 21.6171 11.6106 21.3092C11.7433 20.6749 11.9326 20.1516 12.4252 19.6591C13.0539 19.0304 13.7306 18.9131 14.5141 18.7774C14.7943 18.7288 15.0841 18.6786 15.3815 18.6032C15.7311 18.5146 15.9428 18.1594 15.8541 17.8098Z" fill="black"/>
<path d="M17.4487 16.5251C17.1936 16.2701 16.7801 16.2701 16.5251 16.5251L16.519 16.5312C16.264 16.7863 16.264 17.1998 16.519 17.4548C16.6465 17.5824 16.8137 17.6461 16.9807 17.6461C17.1479 17.6461 17.315 17.5823 17.4426 17.4548L17.4487 17.4487C17.7037 17.1937 17.7037 16.7801 17.4487 16.5251Z" fill="black"/>
<path d="M31.0964 18.8227L30.5421 18.3434C31.4051 17.9164 32 17.0265 32 16.0003C32 14.9734 31.4046 14.0831 30.5408 13.6565L31.0964 13.176C32.1859 12.2338 32.3058 10.5809 31.3637 9.49145C30.9073 8.96363 30.2726 8.6452 29.5767 8.59476C28.8807 8.5447 28.2068 8.76788 27.6791 9.22426L25.2032 11.3653C23.437 8.29513 19.9742 6.20407 16 6.20407C12.0258 6.20407 8.563 8.29513 6.79681 11.3651L4.321 9.22407C3.79325 8.76763 3.11962 8.54445 2.42337 8.59457C1.72744 8.64507 1.09275 8.96351 0.636375 9.49132C-0.30575 10.5808 -0.185875 12.2337 0.903625 13.1759L1.45931 13.6564C0.595563 14.0831 0 14.9735 0 16.0003C0 17.0264 0.594875 17.9164 1.45787 18.3433L0.903562 18.8226C-0.185937 19.7648 -0.305813 21.4177 0.636313 22.5072C1.13288 23.0814 1.85344 23.4108 2.61306 23.4108C3.23981 23.4108 3.84631 23.1849 4.32088 22.7744L6.79625 20.6338C8.56225 23.7044 12.0254 25.7958 16 25.7958C19.9746 25.7958 23.4377 23.7044 25.2038 20.6339L27.6791 22.7745C28.1537 23.1849 28.7602 23.4108 29.3869 23.4108C30.1466 23.4108 30.8671 23.0815 31.3637 22.5072C32.3058 21.4178 32.1859 19.7648 31.0964 18.8227ZM6.20719 19.4166L3.46662 21.7865C3.22931 21.9918 2.92612 22.1048 2.61306 22.1048C2.233 22.1048 1.87263 21.9401 1.62425 21.6529C1.15319 21.1081 1.21313 20.2816 1.75788 19.8106L3.32737 18.4534C3.53369 18.2749 3.60744 17.9871 3.51219 17.7315C3.417 17.4758 3.173 17.3064 2.90019 17.3064H2.61219C1.892 17.3064 1.30606 16.7204 1.30606 16.0003C1.30606 15.2801 1.89206 14.6941 2.61219 14.6941H2.90231C3.17513 14.6941 3.41913 14.5246 3.51431 14.269C3.6095 14.0134 3.53581 13.7255 3.3295 13.5471L1.75788 12.188C1.21313 11.7169 1.15319 10.8904 1.62425 10.3457C1.8525 10.0818 2.16981 9.92257 2.51775 9.89732C2.86563 9.87232 3.20269 9.98382 3.4665 10.212L6.2075 12.5823C5.7835 13.6469 5.551 14.7984 5.551 16C5.551 17.2012 5.78331 18.3523 6.20719 19.4166ZM7.71994 19.0487C7.69569 19.1834 7.67169 19.3162 7.64556 19.4472C7.13919 18.3932 6.85713 17.2267 6.85713 16C6.85713 11.3188 10.9586 7.5102 16 7.5102C16.8583 7.5102 17.6891 7.62082 18.4773 7.82707C17.7411 7.98613 16.9569 8.2537 16.2222 8.98832C15.2217 9.98888 15.0626 10.9935 14.9221 11.8798C14.7986 12.6588 14.6921 13.3315 14.0118 14.0118C13.3124 14.7113 12.6013 14.8345 11.7779 14.9771C10.9022 15.1288 9.90975 15.3008 8.98825 16.2223C8.062 17.1486 7.88031 18.1581 7.71994 19.0487ZM11.9579 23.6134C10.6008 22.9897 9.43313 22.0626 8.55888 20.9275C8.81113 20.3591 8.91331 19.7919 9.00538 19.2801C9.15 18.4766 9.27488 17.7827 9.91181 17.1458C10.5406 16.5171 11.2173 16.3998 12.0008 16.2641C12.9113 16.1063 13.9431 15.9276 14.9353 14.9354C15.9156 13.9551 16.0731 12.9611 16.2121 12.0842C16.3372 11.2944 16.4453 10.6123 17.1493 9.90832C17.7863 9.27138 18.4802 9.14645 19.2837 9.00182C19.7184 8.92357 20.1653 8.8417 20.6223 8.67782C22.0278 9.44582 23.1938 10.5526 23.9894 11.8764C23.779 11.9256 23.5629 11.9649 23.3407 12.0049C22.45 12.1652 21.4405 12.3469 20.5106 13.2768C19.5101 14.2773 19.3509 15.2819 19.2104 16.1683C19.087 16.9473 18.9804 17.62 18.3001 18.3003C17.6007 18.9998 16.8896 19.123 16.0662 19.2656C15.1906 19.4173 14.1981 19.5893 13.2766 20.5108C12.3503 21.4371 12.1687 22.4466 12.0084 23.3372C11.9917 23.4308 11.9751 23.5226 11.9579 23.6134ZM16 24.4898C15.0225 24.4898 14.0806 24.3461 13.1968 24.0811C13.2329 23.9078 13.2639 23.7368 13.2941 23.5686C13.4387 22.7651 13.5635 22.0713 14.2003 21.4344C14.8291 20.8057 15.5058 20.6884 16.2893 20.5527C17.1997 20.3949 18.2316 20.2162 19.2239 19.2241C20.2042 18.2437 20.3617 17.2498 20.5007 16.3728C20.6258 15.5831 20.7339 14.901 21.4379 14.197C22.0748 13.5601 22.7687 13.4351 23.5722 13.2906C23.9022 13.2311 24.2393 13.1704 24.5826 13.0729C24.9449 13.9858 25.1429 14.9719 25.1429 16.0001C25.1429 20.6813 21.0414 24.4898 16 24.4898ZM30.3757 21.6529C30.1273 21.9401 29.7669 22.1048 29.3869 22.1048C29.0738 22.1048 28.7706 21.9918 28.5334 21.7866L25.7928 19.4166C26.2166 18.3523 26.4489 17.2012 26.4489 16C26.4489 14.7984 26.2164 13.6469 25.7924 12.5823L28.5334 10.212C28.7973 9.98376 29.1344 9.8722 29.4821 9.89732C29.8301 9.92251 30.1474 10.0818 30.3756 10.3457C30.8467 10.8904 30.7868 11.7169 30.242 12.188L28.6703 13.5471C28.4639 13.7256 28.3902 14.0134 28.4854 14.269C28.5806 14.5247 28.8246 14.6941 29.0974 14.6941H29.3876C30.1078 14.6941 30.6938 15.2801 30.6938 16.0003C30.6938 16.7204 30.1078 17.3064 29.3876 17.3064H29.0996C28.8268 17.3064 28.5828 17.4759 28.4876 17.7315C28.3924 17.9871 28.4661 18.275 28.6724 18.4534L30.2419 19.8106C30.7868 20.2818 30.8468 21.1082 30.3757 21.6529Z" fill="black"/>
</svg>
