<svg width="32" height="32" viewBox="0 0 32 32" fill="none" xmlns="http://www.w3.org/2000/svg">
<g clip-path="url(#clip0_2056_6123)">
<path d="M31.2326 22.8066H29.3038L25.8767 6.68344C25.6557 5.64357 25.0429 4.75204 24.1513 4.17298C23.2598 3.594 22.1963 3.39678 21.1562 3.61794C20.2723 3.80572 19.5023 4.27435 18.9425 4.9389C18.2132 4.10737 17.1462 3.60113 15.9993 3.60113C14.8527 3.60113 13.7855 4.10745 13.0562 4.93882C12.4964 4.27427 11.7264 3.80579 10.8425 3.61794C9.80289 3.39694 8.739 3.594 7.84739 4.17298C6.95586 4.75204 6.34311 5.64357 6.12203 6.68344L2.69501 22.8066H0.767373C0.343553 22.8066 0 23.1502 0 23.5739C0 23.9978 0.343553 24.3413 0.767373 24.3413H2.68757L3.38803 27.8532C3.45963 28.2121 3.77463 28.4705 4.14059 28.4705H27.8595C28.2254 28.4705 28.5405 28.2121 28.612 27.8532L29.3125 24.3413H31.2327C31.6564 24.3413 32.0001 23.9978 32.0001 23.5739C32 23.1502 31.6564 22.8066 31.2326 22.8066ZM7.62332 7.00252C7.75914 6.36368 8.13554 5.81585 8.68329 5.4601C9.23112 5.10449 9.88469 4.9834 10.5235 5.11907C11.362 5.29726 12.034 5.88706 12.321 6.69672C12.4293 7.00206 12.7177 7.20664 13.0417 7.20771H13.0443C13.3672 7.20771 13.6557 7.00551 13.7658 6.70178C14.1052 5.76513 15.0028 5.13588 15.9993 5.13588C16.9959 5.13588 17.8936 5.76513 18.2329 6.70178C18.343 7.00551 18.6314 7.20771 18.9544 7.20771H18.957C19.281 7.20656 19.5693 7.00213 19.6776 6.69679C19.9647 5.88706 20.6367 5.29734 21.4752 5.11907C22.1141 4.9834 22.7676 5.10449 23.3154 5.4601C23.8632 5.81585 24.2397 6.3636 24.3755 7.00252L27.7347 22.8066H4.26399L7.62332 7.00252ZM4.76999 26.9357L4.25255 24.3413H27.7475L27.23 26.9357H4.76999Z" fill="black"/>
<path d="M12.0036 18.2052C11.5816 18.1679 11.209 18.4799 11.1716 18.902L10.9681 21.2042C10.9307 21.6263 11.2427 21.9988 11.6648 22.0362C11.6879 22.0382 11.7107 22.0393 11.7334 22.0393C12.1266 22.0393 12.4615 21.7385 12.4968 21.3394L12.7004 19.0372C12.7378 18.6151 12.4258 18.2426 12.0036 18.2052Z" fill="black"/>
<path d="M12.8726 8.38072C12.4505 8.34381 12.078 8.65528 12.0406 9.07749L11.4431 15.8327C11.4058 16.2548 11.7178 16.6273 12.1399 16.6647C12.1629 16.6667 12.1857 16.6677 12.2084 16.6677C12.6016 16.6677 12.9366 16.3671 12.9719 15.9679L13.5694 9.2127C13.6068 8.79057 13.2948 8.41801 12.8726 8.38072Z" fill="black"/>
<path d="M19.9582 9.07749C19.9209 8.65528 19.5484 8.34312 19.1262 8.38072C18.704 8.41801 18.3921 8.79057 18.4294 9.2127L19.502 21.3394C19.5373 21.7386 19.8722 22.0393 20.2655 22.0393C20.2881 22.0393 20.3111 22.0382 20.334 22.0362C20.7562 21.9989 21.0681 21.6263 21.0308 21.2042L19.9582 9.07749Z" fill="black"/>
</g>
<defs>
<clipPath id="clip0_2056_6123">
<rect width="32" height="32" fill="white"/>
</clipPath>
</defs>
</svg>
