<svg xmlns="http://www.w3.org/2000/svg" width="14" height="12.25" viewBox="0 0 14 12.25">
  <path id="Path_181" data-name="Path 181" d="M136.458,202.609v-6.526h-2.917v6.526a.412.412,0,0,0,.164.351.68.68,0,0,0,.419.123h1.75a.68.68,0,0,0,.419-.123A.412.412,0,0,0,136.458,202.609Zm-4.156-7.693h1.777l-1.148-1.467a.78.78,0,0,0-.629-.283.875.875,0,1,0,0,1.75Zm6.271-.875a.871.871,0,0,0-.875-.875.78.78,0,0,0-.629.283l-1.139,1.467H137.7a.871.871,0,0,0,.875-.875ZM142,196.375v2.917a.281.281,0,0,1-.292.292h-.875v3.792a.871.871,0,0,1-.875.875h-9.917a.871.871,0,0,1-.875-.875v-3.792h-.875a.281.281,0,0,1-.292-.292v-2.917a.281.281,0,0,1,.292-.292h4.01a2.042,2.042,0,1,1,0-4.083,1.846,1.846,0,0,1,1.531.7l1.167,1.5,1.167-1.5a1.846,1.846,0,0,1,1.531-.7,2.042,2.042,0,1,1,0,4.083h4.01a.281.281,0,0,1,.292.292Z" transform="translate(-128 -192)" fill="#fff"/>
</svg>
