<svg xmlns="http://www.w3.org/2000/svg" xmlns:xlink="http://www.w3.org/1999/xlink" viewBox="0 0 36.04 38.47"><defs><style>.cls-1{isolation:isolate;}.cls-2{fill:none;}.cls-3{mask:url(#mask);}.cls-4{clip-path:url(#clip-path);}.cls-5{fill:#228e45;}.cls-6{filter:url(#luminosity-noclip);}</style><filter id="luminosity-noclip" x="2.63" y="0" width="33.92" height="36.79" filterUnits="userSpaceOnUse" color-interpolation-filters="sRGB"><feFlood flood-color="#fff" result="bg"/><feBlend in="SourceGraphic" in2="bg"/></filter><mask id="mask" x="2.63" y="-0.46" width="33.92" height="36.79" maskUnits="userSpaceOnUse"><g class="cls-6"><g transform="translate(0 -0.46)"><g class="cls-1"><path d="M19.59,27.18a8.48,8.48,0,1,1-8.48-8.48,8.48,8.48,0,0,1,8.48,8.48"/></g></g></g></mask><clipPath id="clip-path" transform="translate(0 -0.46)"><rect class="cls-2" x="3.15" width="33.41" height="36.79"/></clipPath></defs><title>bh_a</title><g id="Layer_2" data-name="Layer 2"><g id="Layer_1-2" data-name="Layer 1"><g class="cls-3"><g class="cls-4"><path class="cls-5" d="M19.86,3.41c.7.15,3.12.68,7.44,1.79,3.18.82,5,1.32,6,1.58A35,35,0,0,1,32,16.94a29.14,29.14,0,0,1-4.09,8.77,26.06,26.06,0,0,1-8,7.46,25.87,25.87,0,0,1-8.31-7.3,26.33,26.33,0,0,1-4.07-8.57,31.87,31.87,0,0,1-1-10.53c.91-.25,2.78-.76,6-1.59,4.32-1.11,6.74-1.65,7.44-1.79m0-3s-2.71.55-8.6,2.06c-5.56,1.43-7.51,2-7.51,2S.68,26,19.87,36.28C37.9,26,36,4.56,36,4.53S34,4,28.47,2.52C22.58,1,19.87.46,19.87.46" transform="translate(0 -0.46)"/><polygon class="cls-5" points="25.83 14.39 21.39 14.39 21.39 9.95 18.23 9.95 18.23 14.39 13.79 14.39 13.79 17.55 18.23 17.55 18.23 21.99 21.39 21.99 21.39 17.55 25.83 17.55 25.83 14.39"/></g></g><path class="cls-5" d="M11.5,19.81a7.07,7.07,0,1,0,7.07,7.07,7.07,7.07,0,0,0-7.07-7.07m0,12.37a5.3,5.3,0,1,1,5.3-5.3,5.3,5.3,0,0,1-5.3,5.3" transform="translate(0 -0.46)"/><rect class="cls-5" x="-0.59" y="33.91" width="9.11" height="2.1" transform="translate(-23.57 12.6) rotate(-45.03)"/></g></g></svg>