<svg xmlns="http://www.w3.org/2000/svg" viewBox="0 0 36.18 32.04"><defs><style>.cls-1{fill:#228e45;}</style></defs><title>cart_a</title><g id="Layer_2" data-name="Layer 2"><g id="Layer_1-2" data-name="Layer 1"><path class="cls-1" d="M13.52,26a3,3,0,1,1-3,3,3,3,0,0,1,3-3"/><path class="cls-1" d="M26.64,26a3,3,0,1,1-3,3,3,3,0,0,1,3-3"/><path class="cls-1" d="M34.3,9.54H15.74A1.47,1.47,0,0,0,14.64,11a1.65,1.65,0,0,0,1.1,1.56H32.38l-.94,3.16H15.09a1.36,1.36,0,0,0-1,1.35,1.54,1.54,0,0,0,1,1.45H30.62l-.88,3H12.85l-1.12-8.93-.36-3S11,6.76,10.85,5.61,7.79,3,1.58.09c-1.46-.61-2.68,2.06,0,3.45L6.47,5.83s1.14.66,1.24,1.55S9.79,23,9.79,23s.08,2,1.94,2H30.4a2,2,0,0,0,1.87-1.63l3.7-11s1.1-2.87-1.66-2.87"/></g></g></svg>