<svg xmlns="http://www.w3.org/2000/svg" xmlns:xlink="http://www.w3.org/1999/xlink" viewBox="0 0 39.23 34.76"><defs><style>.cls-1{isolation:isolate;}.cls-2{fill:none;}.cls-3{mask:url(#mask);}.cls-4{clip-path:url(#clip-path);}.cls-5{filter:url(#luminosity-noclip);}</style><filter id="luminosity-noclip" x="1.12" y="0" width="38.12" height="34.76" filterUnits="userSpaceOnUse" color-interpolation-filters="sRGB"><feFlood flood-color="#fff" result="bg"/><feBlend in="SourceGraphic" in2="bg"/></filter><mask id="mask" x="1.12" y="0" width="38.12" height="34.76" maskUnits="userSpaceOnUse"><g class="cls-5"><g transform="translate(0 0)"><g class="cls-1"><rect x="1.12" y="12.65" width="10.22" height="10.22"/></g></g></g></mask><clipPath id="clip-path" transform="translate(0 0)"><rect class="cls-2" x="4.48" width="34.76" height="34.76"/></clipPath></defs><title>Asset 5</title><g id="Layer_2" data-name="Layer 2"><g id="Layer_1-2" data-name="Layer 1"><rect y="15.02" width="18.56" height="5.27"/><path d="M20.89,10.48l6.21,6.21a1.36,1.36,0,0,1,0,1.93l-6.21,6.21a1.36,1.36,0,0,1-2.32-1V11.45a1.36,1.36,0,0,1,2.32-1" transform="translate(0 0)"/><g class="cls-3"><g class="cls-4"><path d="M4.48,6.05V28.71a6.05,6.05,0,0,0,6.05,6.05H33.18a6.05,6.05,0,0,0,6.05-6.05V6.05A6.05,6.05,0,0,0,33.18,0H10.53A6.05,6.05,0,0,0,4.48,6.05M33.85,30.3h-24a.93.93,0,0,1-.93-.93v-24a.93.93,0,0,1,.93-.93h24a.93.93,0,0,1,.93.93v24a.93.93,0,0,1-.93.93" transform="translate(0 0)"/></g></g></g></g></svg>