<svg xmlns="http://www.w3.org/2000/svg" viewBox="0 0 25.49 34.49"><defs><style>.cls-1{fill:#1e1e1e;}</style></defs><title>qldh</title><g id="Layer_2" data-name="Layer 2"><g id="Layer_1-2" data-name="Layer 1"><path class="cls-1" d="M19.47,0H2.11A2.12,2.12,0,0,0,0,2.12V32.38a2.12,2.12,0,0,0,2.11,2.12H23.38a2.12,2.12,0,0,0,2.11-2.12V6.54ZM20,3.17,22.61,6H20Zm3.74,29.21a.34.34,0,0,1-.34.34H2.11a.34.34,0,0,1-.34-.34V2.12a.34.34,0,0,1,.34-.34H18.2V6.92a.89.89,0,0,0,.89.89h4.63ZM4.91,9.45H20a.67.67,0,1,1,0,1.33H4.91a.66.66,0,0,1,0-1.33m15.75,5.14a.67.67,0,0,1-.67.67H4.91a.67.67,0,0,1,0-1.33H20a.67.67,0,0,1,.67.67m0,4.33a.67.67,0,0,1-.67.67H4.91a.67.67,0,0,1,0-1.33H20a.67.67,0,0,1,.67.67m0,4.4A.67.67,0,0,1,20,24H4.91a.67.67,0,0,1,0-1.33H20a.67.67,0,0,1,.67.67"/></g></g></svg>