<svg xmlns="http://www.w3.org/2000/svg" xmlns:xlink="http://www.w3.org/1999/xlink" viewBox="0 0 34.55 33.04"><defs><style>.cls-1{clip-path:url(#clip-path);}.cls-2{fill:none;}.cls-3{isolation:isolate;}.cls-4{mask:url(#mask);}.cls-5{clip-path:url(#clip-path-2);}.cls-6{fill:#228e45;}.cls-7{filter:url(#luminosity-noclip);}</style><clipPath id="clip-path"><rect class="cls-2" x="5.62" y="16.03" width="10.38" height="12.34"/></clipPath><filter id="luminosity-noclip" x="5.62" y="0" width="29.33" height="32.28" filterUnits="userSpaceOnUse" color-interpolation-filters="sRGB"><feFlood flood-color="#fff" result="bg"/><feBlend in="SourceGraphic" in2="bg"/></filter><mask id="mask" x="5.62" y="-0.06" width="29.33" height="32.28" maskUnits="userSpaceOnUse"><g class="cls-7"><g transform="translate(0 -0.06)"><g class="cls-1"><g class="cls-3"><path d="M6,17.68A8.25,8.25,0,0,1,9.43,16s5.21,8,5.3,8.06,1.59,3.41,1.21,3.59-6,.68-6.58.68a7.76,7.76,0,0,1-2.47-.5c0-.16.06-4.33.06-4.65s-1.32-2.87-1.32-3S6,17.68,6,17.68"/></g></g></g></g></mask><clipPath id="clip-path-2" transform="translate(0 -0.06)"><rect class="cls-2" x="5.95" width="29" height="32"/></clipPath></defs><title>suachua_a</title><g id="Layer_2" data-name="Layer 2"><g id="Layer_1-2" data-name="Layer 1"><g class="cls-4"><g class="cls-5"><path class="cls-6" d="M13.59,25.21A11.59,11.59,0,0,1,18,4.95V2A14.5,14.5,0,0,0,11.27,27c2.33,2.17,3.78-.73,2.31-1.84m15.93-20C28,3.84,25.85,6,27.28,7.1A11.59,11.59,0,0,1,23,27.39v3a14.5,14.5,0,0,0,6.56-25.2M19.23,7.45l4.72-2.83a.8.8,0,0,0,0-1.5L19.19.25C18.51-.17,18,.15,18,.95l0,5.8c0,.8.56,1.12,1.25.71M21.74,24.9,17,27.78a.8.8,0,0,0,0,1.5L21.7,32.1c.68.41,1.25.09,1.25-.7l0-5.8c0-.8-.55-1.11-1.24-.7" transform="translate(0 -0.06)"/></g></g><path class="cls-6" d="M10.3,16a6.33,6.33,0,1,0,6.33,6.33A6.33,6.33,0,0,0,10.3,16m0,11.08A4.75,4.75,0,1,1,15,22.31a4.75,4.75,0,0,1-4.75,4.75" transform="translate(0 -0.06)"/><rect class="cls-6" x="-0.53" y="28.61" width="8.16" height="1.88" transform="translate(-19.86 11.1) rotate(-45)"/></g></g></svg>