<svg xmlns="http://www.w3.org/2000/svg" xmlns:xlink="http://www.w3.org/1999/xlink" viewBox="0 0 34.9 33.04"><defs><style>.cls-1{clip-path:url(#clip-path);}.cls-2{fill:none;}.cls-3{isolation:isolate;}.cls-4{mask:url(#mask);}.cls-5{clip-path:url(#clip-path-2);}.cls-6{fill:#1e1e1e;}.cls-7{filter:url(#luminosity-noclip);}</style><clipPath id="clip-path"><rect class="cls-2" x="5.62" y="15.97" width="10.38" height="12.34"/></clipPath><filter id="luminosity-noclip" x="5.62" y="0" width="29.28" height="32.22" filterUnits="userSpaceOnUse" color-interpolation-filters="sRGB"><feFlood flood-color="#fff" result="bg"/><feBlend in="SourceGraphic" in2="bg"/></filter><mask id="mask" x="5.62" y="0" width="29.28" height="32.22" maskUnits="userSpaceOnUse"><g class="cls-7"><g transform="translate(0 0)"><g class="cls-1"><g class="cls-3"><path d="M6,17.61A8.25,8.25,0,0,1,9.43,16s5.21,8,5.3,8.06,1.59,3.41,1.21,3.59-6,.68-6.58.68a7.76,7.76,0,0,1-2.47-.5c0-.16.06-4.33.06-4.65s-1.32-2.87-1.32-3S6,17.61,6,17.61"/></g></g></g></g></mask><clipPath id="clip-path-2" transform="translate(0 0)"><rect class="cls-2" x="5.9" width="29" height="32.22"/></clipPath></defs><title>suachua</title><g id="Layer_2" data-name="Layer 2"><g id="Layer_1-2" data-name="Layer 1"><g class="cls-4"><g class="cls-5"><path class="cls-6" d="M13.14,25.14A11.59,11.59,0,0,1,17.5,4.88v-3A14.5,14.5,0,0,0,10.82,27c2.33,2.17,3.78-.73,2.31-1.84m16.73-20C28.38,3.78,26.21,6,27.63,7a11.59,11.59,0,0,1-4.32,20.29v3a14.5,14.5,0,0,0,6.56-25.2M18.78,7.39,23.5,4.56a.8.8,0,0,0,0-1.5L18.74.18c-.68-.41-1.24-.1-1.24.7l0,5.8c0,.8.56,1.12,1.25.71m3.28,17.45L17.3,27.72a.8.8,0,0,0,0,1.5L22,32c.69.41,1.25.09,1.25-.71l0-5.8c0-.8-.55-1.11-1.24-.7" transform="translate(0 0)"/></g></g><path class="cls-6" d="M10.3,15.92a6.33,6.33,0,1,0,6.33,6.33,6.33,6.33,0,0,0-6.33-6.33M10.3,27A4.75,4.75,0,1,1,15,22.25,4.75,4.75,0,0,1,10.3,27" transform="translate(0 0)"/><rect class="cls-6" x="-0.53" y="28.55" width="8.16" height="1.88" transform="translate(-19.81 11.15) rotate(-45)"/></g></g></svg>