<svg xmlns="http://www.w3.org/2000/svg" viewBox="0 0 33.39 35.42"><defs><style>.cls-1,.cls-3{fill:none;}.cls-1,.cls-2,.cls-3{stroke:#1e1e1e;}.cls-1{stroke-linecap:round;stroke-linejoin:round;stroke-width:0.5px;}.cls-2{fill:#228e45;}.cls-2,.cls-3{stroke-miterlimit:10;}.cls-3{stroke-width:0.9px;}</style></defs><title>tichluy</title><g id="Layer_2" data-name="Layer 2"><g id="Layer_1-2" data-name="Layer 1"><path class="cls-1" d="M12.58,4.85a4.6,4.6,0,1,0,4.6-4.6A4.61,4.61,0,0,0,12.58,4.85Zm8.19,0a3.54,3.54,0,1,1-3.54-3.54A3.54,3.54,0,0,1,20.77,4.85Z"/><path class="cls-2" d="M17.11,7.55h.41a.22.22,0,0,0,.22-.22V7a2.05,2.05,0,0,0,.85-.31,1.2,1.2,0,0,0,.58-1,1,1,0,0,0-.23-.7,1.82,1.82,0,0,0-1.2-.57V3.58a1.24,1.24,0,0,1,.28.18.29.29,0,0,0,.19.07.38.38,0,0,0,.14,0h0l.45-.28a.18.18,0,0,0,.09-.15.17.17,0,0,0-.06-.13,1.83,1.83,0,0,0-1.09-.6V2.2A.22.22,0,0,0,17.51,2h-.41a.22.22,0,0,0-.22.22v.42a2,2,0,0,0-.57.16,1.17,1.17,0,0,0-.8,1.11,1.06,1.06,0,0,0,.22.64,1.69,1.69,0,0,0,1.15.6v1a1.64,1.64,0,0,1-.65-.45.21.21,0,0,0-.18-.09l-.12,0h0l-.41.24a.18.18,0,0,0-.1.16l0,.12a2.11,2.11,0,0,0,.43.43,2.16,2.16,0,0,0,1,.42v.38a.22.22,0,0,0,.22.22m.63-2.32c.22.07.33.19.33.38a.46.46,0,0,1-.24.41l-.09,0ZM16.62,3.89a.35.35,0,0,1,.24-.32h0v.68a.36.36,0,0,1-.27-.35"/><path class="cls-3" d="M29.74,26.2h2.7a.5.5,0,0,0,.5-.51v-6.9a.5.5,0,0,0-.5-.5H30a9.79,9.79,0,0,0-1.21-1.91c.09-.21,1.21-2.85,2-4.49.34-.2-3.75-2.29-7.11.83a16,16,0,0,0-6.1-1.18C10.32,11.53,4.4,16.21,4.4,22c0,.16,0,.31,0,.47a1.28,1.28,0,0,1-.48.67,2,2,0,0,1-.36.2A.87.87,0,0,0,3.66,23a.9.9,0,0,0-.31-.67,1.11,1.11,0,0,0-1.44,0A.9.9,0,0,0,1.6,23a.85.85,0,0,0,.09.37,1.9,1.9,0,0,1-.36-.2,1.17,1.17,0,0,1-.51-.93H.45a1.54,1.54,0,0,0,.66,1.22,2.53,2.53,0,0,0,1.53.48,2.53,2.53,0,0,0,1.53-.48,1.86,1.86,0,0,0,.32-.31,9.45,9.45,0,0,0,3,5.61L7,33.83a.55.55,0,0,0,.4.59l1.82.52a.56.56,0,0,0,.65-.28l1.74-3.38a16.42,16.42,0,0,0,11.72.13L25,34.67a.55.55,0,0,0,.65.28l1.82-.52a.56.56,0,0,0,.4-.59L27.39,29A10.64,10.64,0,0,0,29.74,26.2ZM3.11,23.35a.74.74,0,0,1-1,0,.52.52,0,0,1,0-.8.74.74,0,0,1,1,0,.52.52,0,0,1,0,.8Zm20.5-8.71-.67,1.56a.23.23,0,0,1-.13.12.24.24,0,0,1-.18,0L21.86,16h0l-.05,0-.23-.09c-.21-.07-.51-.17-.89-.27a11.5,11.5,0,0,0-2.9-.4,13.31,13.31,0,0,0-3,.39,14.42,14.42,0,0,0-1.44.42h0l-.79.3a.23.23,0,0,1-.3-.14l-.59-1.59a.23.23,0,0,1,.14-.3l.79-.29a15.22,15.22,0,0,1,1.61-.47A15.58,15.58,0,0,1,17.78,13a13.71,13.71,0,0,1,3.42.46,11.81,11.81,0,0,1,1.51.5h0l.78.33a.23.23,0,0,1,.13.13A.23.23,0,0,1,23.61,14.64Z"/><path class="cls-2" d="M22.64,16.33a.23.23,0,0,0,.18,0,.23.23,0,0,0,.13-.12l.67-1.56a.24.24,0,0,0,0-.18.23.23,0,0,0-.13-.13L22.71,14h0a12.31,12.31,0,0,0-1.51-.49A13.64,13.64,0,0,0,17.78,13a15.57,15.57,0,0,0-3.59.47,15.75,15.75,0,0,0-1.61.47l-.8.29a.23.23,0,0,0-.14.3l.59,1.59a.23.23,0,0,0,.3.14l.79-.3h0a14.17,14.17,0,0,1,1.44-.42,13.38,13.38,0,0,1,3-.39,11.56,11.56,0,0,1,2.9.4c.38.1.68.2.89.27l.23.09.05,0h0Zm-.6-.76h0l-.06,0-.25-.09c-.21-.07-.53-.18-.92-.28a12,12,0,0,0-3-.41,13.72,13.72,0,0,0-3.11.4,14.53,14.53,0,0,0-1.5.43h0l-.58.21-.43-1.16.58-.21A14.84,14.84,0,0,1,14.29,14a15.08,15.08,0,0,1,3.49-.45,13.24,13.24,0,0,1,3.34.46c.43.11.78.23,1,.31l.28.11.08,0h0l.57.24-.48,1.13"/></g></g></svg>