<svg xmlns="http://www.w3.org/2000/svg" width="14.86" height="16" viewBox="0 0 23.213 25"><path d="M10.428,25.106V18.848a.959.959,0,0,1,.893-.884h3.571a.96.96,0,0,1,.893.893v6.25a.893.893,0,0,0,.893.893H23.82a.893.893,0,0,0,.893-.893v-12.5a.893.893,0,0,0-.261-.632L22.034,9.559V3.679a.893.893,0,0,0-.893-.893H19.356a.893.893,0,0,0-.893.893V5.988L13.739,1.261a.893.893,0,0,0-1.264,0L1.761,11.975a.893.893,0,0,0-.261.632v12.5A.893.893,0,0,0,2.393,26H9.535A.893.893,0,0,0,10.428,25.106Z" transform="translate(-1.5 -0.999)" fill="#316a8f"/></svg>