<svg width="34" height="46" viewBox="0 0 34 46" fill="none" xmlns="http://www.w3.org/2000/svg">
<g clip-path="url(#clip0_2_2)" filter="url(#filter0_dd_2_2)">
<path d="M20.9577 0.631897C19.7183 0.229781 18.3662 0 16.9859 0C13.0141 0 9.43662 1.83825 7.04225 4.73923L13.1831 9.99546L20.9577 0.631897Z" fill="#1A73E8"/>
<path d="M7.04225 4.73923C5.15493 7.03704 4 10.0242 4 13.2411C4 15.74 4.47887 17.7506 5.29577 19.5601L13.1831 9.99546L7.04225 4.73923V4.73923Z" fill="#EA4335"/>
<path d="M17.0141 8.18594C19.7746 8.18594 22 10.455 22 13.2698C22 14.5049 21.5493 15.6538 20.8169 16.5442C20.8169 16.5442 24.7324 11.7763 28.5634 7.15193C26.9859 4.04989 24.2535 1.69463 20.9577 0.631897L13.1831 9.99546C14.1127 8.90401 15.4648 8.18594 17.0141 8.18594" fill="#4285F4"/>
<path d="M17.0141 18.325C14.2535 18.325 12.0282 16.0559 12.0282 13.2411C12.0282 12.006 12.4507 10.8571 13.1831 9.99546L5.29578 19.5601C6.64789 22.6047 8.90141 25.0748 11.2113 28.1481L20.8169 16.5155C19.8873 17.6357 18.5352 18.325 17.0141 18.325Z" fill="#FBBC04"/>
<path d="M20.6479 31.3651C24.9859 24.4429 30.0282 21.3122 30.0282 13.2698C30.0282 11.0582 29.493 8.99017 28.5634 7.15193L11.2113 28.1482C11.9437 29.1247 12.7042 30.2449 13.4366 31.3938C16.0845 35.5586 15.3521 38.0287 17.0423 38.0287C18.7324 38.0287 18 35.5299 20.6479 31.3651" fill="#34A853"/>
</g>
<defs>
<filter id="filter0_dd_2_2" x="0" y="0" width="34" height="46" filterUnits="userSpaceOnUse" color-interpolation-filters="sRGB">
<feFlood flood-opacity="0" result="BackgroundImageFix"/>
<feColorMatrix in="SourceAlpha" type="matrix" values="0 0 0 0 0 0 0 0 0 0 0 0 0 0 0 0 0 0 127 0" result="hardAlpha"/>
<feOffset dy="4"/>
<feGaussianBlur stdDeviation="2"/>
<feComposite in2="hardAlpha" operator="out"/>
<feColorMatrix type="matrix" values="0 0 0 0 0 0 0 0 0 0 0 0 0 0 0 0 0 0 0.25 0"/>
<feBlend mode="normal" in2="BackgroundImageFix" result="effect1_dropShadow_2_2"/>
<feColorMatrix in="SourceAlpha" type="matrix" values="0 0 0 0 0 0 0 0 0 0 0 0 0 0 0 0 0 0 127 0" result="hardAlpha"/>
<feOffset dy="4"/>
<feGaussianBlur stdDeviation="2"/>
<feComposite in2="hardAlpha" operator="out"/>
<feColorMatrix type="matrix" values="0 0 0 0 0 0 0 0 0 0 0 0 0 0 0 0 0 0 0.25 0"/>
<feBlend mode="normal" in2="effect1_dropShadow_2_2" result="effect2_dropShadow_2_2"/>
<feBlend mode="normal" in="SourceGraphic" in2="effect2_dropShadow_2_2" result="shape"/>
</filter>
<clipPath id="clip0_2_2">
<rect width="26" height="38" fill="white" transform="translate(4)"/>
</clipPath>
</defs>
</svg>
