<svg width="10" height="15" viewBox="0 0 10 15" fill="none" xmlns="http://www.w3.org/2000/svg">
<path d="M6.85714 4.99999C6.85714 6.25892 5.83036 7.2857 4.57143 7.2857C3.3125 7.2857 2.28571 6.25892 2.28571 4.99999C2.28571 3.74106 3.3125 2.71427 4.57143 2.71427C5.83036 2.71427 6.85714 3.74106 6.85714 4.99999ZM9.14286 4.99999C9.14286 2.4732 7.09821 0.428558 4.57143 0.428558C2.04464 0.428558 0 2.4732 0 4.99999C0 5.54463 0.0625 6.10713 0.294643 6.5982L3.55357 13.5089C3.73214 13.9018 4.14286 14.1428 4.57143 14.1428C5 14.1428 5.41071 13.9018 5.59821 13.5089L8.84822 6.5982C9.08036 6.10713 9.14286 5.54463 9.14286 4.99999Z" fill="#FF6700"/>
</svg>
