<svg xmlns="http://www.w3.org/2000/svg" width="12" height="16" viewBox="0 0 18.75 25"><path d="M11.375,25c5.178,0,9.375-3.125,9.375-8.594a13.541,13.541,0,0,0-3.906-9.375,2.873,2.873,0,0,1-1.953,3.125C16.063,6.25,12.938.781,8.25,0c.558,3.125.781,6.25-3.125,9.375A9.1,9.1,0,0,0,2,16.406C2,21.875,6.2,25,11.375,25Zm0-1.562c-2.589,0-4.687-1.562-4.687-4.3a6.77,6.77,0,0,1,1.953-4.687c-.2,1.172,1.172,1.953,1.172,1.953-.586-1.953.781-5.078,3.125-5.469-.28,1.563-.391,3.125,1.563,4.688a4.548,4.548,0,0,1,1.563,3.516C16.063,21.875,13.964,23.438,11.375,23.438Z" transform="translate(-2)" fill="#316a8f"/></svg>